<?xml version="1.0" encoding="utf-8"?>
<svg xmlns="http://www.w3.org/2000/svg" xmlns:xlink="http://www.w3.org/1999/xlink" width="600" height="400" viewBox="0 0 2400 1600">
<defs>
  <clipPath id="clip910">
    <rect x="0" y="0" width="2400" height="1600"/>
  </clipPath>
</defs>
<path clip-path="url(#clip910)" d="
M0 1600 L2400 1600 L2400 0 L0 0  Z
  " fill="#ffffff" fill-rule="evenodd" fill-opacity="1"/>
<defs>
  <clipPath id="clip911">
    <rect x="480" y="0" width="1681" height="1600"/>
  </clipPath>
</defs>
<path clip-path="url(#clip910)" d="
M190.464 1486.45 L2352.76 1486.45 L2352.76 47.2441 L190.464 47.2441  Z
  " fill="#ffffff" fill-rule="evenodd" fill-opacity="1"/>
<defs>
  <clipPath id="clip912">
    <rect x="190" y="47" width="2163" height="1440"/>
  </clipPath>
</defs>
<polyline clip-path="url(#clip912)" style="stroke:#000000; stroke-width:2; stroke-opacity:0.1; fill:none" points="
  251.661,1486.45 251.661,47.2441 
  "/>
<polyline clip-path="url(#clip912)" style="stroke:#000000; stroke-width:2; stroke-opacity:0.1; fill:none" points="
  780.523,1486.45 780.523,47.2441 
  "/>
<polyline clip-path="url(#clip912)" style="stroke:#000000; stroke-width:2; stroke-opacity:0.1; fill:none" points="
  1309.39,1486.45 1309.39,47.2441 
  "/>
<polyline clip-path="url(#clip912)" style="stroke:#000000; stroke-width:2; stroke-opacity:0.1; fill:none" points="
  1838.25,1486.45 1838.25,47.2441 
  "/>
<polyline clip-path="url(#clip910)" style="stroke:#000000; stroke-width:4; stroke-opacity:1; fill:none" points="
  190.464,1486.45 2352.76,1486.45 
  "/>
<polyline clip-path="url(#clip910)" style="stroke:#000000; stroke-width:4; stroke-opacity:1; fill:none" points="
  251.661,1486.45 251.661,1469.18 
  "/>
<polyline clip-path="url(#clip910)" style="stroke:#000000; stroke-width:4; stroke-opacity:1; fill:none" points="
  780.523,1486.45 780.523,1469.18 
  "/>
<polyline clip-path="url(#clip910)" style="stroke:#000000; stroke-width:4; stroke-opacity:1; fill:none" points="
  1309.39,1486.45 1309.39,1469.18 
  "/>
<polyline clip-path="url(#clip910)" style="stroke:#000000; stroke-width:4; stroke-opacity:1; fill:none" points="
  1838.25,1486.45 1838.25,1469.18 
  "/>
<path clip-path="url(#clip910)" d="M 0 0 M140.249 1543.18 L156.569 1543.18 L156.569 1547.12 L134.624 1547.12 L134.624 1543.18 Q137.286 1540.43 141.87 1535.8 Q146.476 1531.15 147.657 1529.81 Q149.902 1527.28 150.782 1525.55 Q151.684 1523.79 151.684 1522.1 Q151.684 1519.34 149.74 1517.61 Q147.819 1515.87 144.717 1515.87 Q142.518 1515.87 140.064 1516.63 Q137.634 1517.4 134.856 1518.95 L134.856 1514.23 Q137.68 1513.09 140.134 1512.51 Q142.587 1511.93 144.624 1511.93 Q149.995 1511.93 153.189 1514.62 Q156.383 1517.31 156.383 1521.8 Q156.383 1523.93 155.573 1525.85 Q154.786 1527.74 152.68 1530.34 Q152.101 1531.01 148.999 1534.23 Q145.897 1537.42 140.249 1543.18 Z" fill="#000000" fill-rule="evenodd" fill-opacity="1" /><path clip-path="url(#clip910)" d="M 0 0 M171.638 1515.64 Q168.027 1515.64 166.198 1519.2 Q164.393 1522.75 164.393 1529.87 Q164.393 1536.98 166.198 1540.55 Q168.027 1544.09 171.638 1544.09 Q175.272 1544.09 177.078 1540.55 Q178.907 1536.98 178.907 1529.87 Q178.907 1522.75 177.078 1519.2 Q175.272 1515.64 171.638 1515.64 M171.638 1511.93 Q177.448 1511.93 180.504 1516.54 Q183.582 1521.12 183.582 1529.87 Q183.582 1538.6 180.504 1543.21 Q177.448 1547.79 171.638 1547.79 Q165.828 1547.79 162.749 1543.21 Q159.694 1538.6 159.694 1529.87 Q159.694 1521.12 162.749 1516.54 Q165.828 1511.93 171.638 1511.93 Z" fill="#000000" fill-rule="evenodd" fill-opacity="1" /><path clip-path="url(#clip910)" d="M 0 0 M192.68 1543.18 L208.999 1543.18 L208.999 1547.12 L187.055 1547.12 L187.055 1543.18 Q189.717 1540.43 194.3 1535.8 Q198.906 1531.15 200.087 1529.81 Q202.332 1527.28 203.212 1525.55 Q204.115 1523.79 204.115 1522.1 Q204.115 1519.34 202.17 1517.61 Q200.249 1515.87 197.147 1515.87 Q194.948 1515.87 192.494 1516.63 Q190.064 1517.4 187.286 1518.95 L187.286 1514.23 Q190.11 1513.09 192.564 1512.51 Q195.018 1511.93 197.055 1511.93 Q202.425 1511.93 205.619 1514.62 Q208.814 1517.31 208.814 1521.8 Q208.814 1523.93 208.004 1525.85 Q207.217 1527.74 205.11 1530.34 Q204.531 1531.01 201.43 1534.23 Q198.328 1537.42 192.68 1543.18 Z" fill="#000000" fill-rule="evenodd" fill-opacity="1" /><path clip-path="url(#clip910)" d="M 0 0 M214.879 1543.18 L222.517 1543.18 L222.517 1516.82 L214.207 1518.49 L214.207 1514.23 L222.471 1512.56 L227.147 1512.56 L227.147 1543.18 L234.786 1543.18 L234.786 1547.12 L214.879 1547.12 L214.879 1543.18 Z" fill="#000000" fill-rule="evenodd" fill-opacity="1" /><path clip-path="url(#clip910)" d="M 0 0 M237.101 1532.24 L249.577 1532.24 L249.577 1536.03 L237.101 1536.03 L237.101 1532.24 Z" fill="#000000" fill-rule="evenodd" fill-opacity="1" /><path clip-path="url(#clip910)" d="M 0 0 M264.647 1515.64 Q261.036 1515.64 259.207 1519.2 Q257.401 1522.75 257.401 1529.87 Q257.401 1536.98 259.207 1540.55 Q261.036 1544.09 264.647 1544.09 Q268.281 1544.09 270.087 1540.55 Q271.915 1536.98 271.915 1529.87 Q271.915 1522.75 270.087 1519.2 Q268.281 1515.64 264.647 1515.64 M264.647 1511.93 Q270.457 1511.93 273.512 1516.54 Q276.591 1521.12 276.591 1529.87 Q276.591 1538.6 273.512 1543.21 Q270.457 1547.79 264.647 1547.79 Q258.837 1547.79 255.758 1543.21 Q252.702 1538.6 252.702 1529.87 Q252.702 1521.12 255.758 1516.54 Q258.837 1511.93 264.647 1511.93 Z" fill="#000000" fill-rule="evenodd" fill-opacity="1" /><path clip-path="url(#clip910)" d="M 0 0 M285.688 1543.18 L302.008 1543.18 L302.008 1547.12 L280.063 1547.12 L280.063 1543.18 Q282.725 1540.43 287.309 1535.8 Q291.915 1531.15 293.096 1529.81 Q295.341 1527.28 296.221 1525.55 Q297.123 1523.79 297.123 1522.1 Q297.123 1519.34 295.179 1517.61 Q293.258 1515.87 290.156 1515.87 Q287.957 1515.87 285.503 1516.63 Q283.073 1517.4 280.295 1518.95 L280.295 1514.23 Q283.119 1513.09 285.573 1512.51 Q288.026 1511.93 290.063 1511.93 Q295.434 1511.93 298.628 1514.62 Q301.823 1517.31 301.823 1521.8 Q301.823 1523.93 301.012 1525.85 Q300.225 1527.74 298.119 1530.34 Q297.54 1531.01 294.438 1534.23 Q291.336 1537.42 285.688 1543.18 Z" fill="#000000" fill-rule="evenodd" fill-opacity="1" /><path clip-path="url(#clip910)" d="M 0 0 M304.322 1532.24 L316.799 1532.24 L316.799 1536.03 L304.322 1536.03 L304.322 1532.24 Z" fill="#000000" fill-rule="evenodd" fill-opacity="1" /><path clip-path="url(#clip910)" d="M 0 0 M322.679 1543.18 L330.318 1543.18 L330.318 1516.82 L322.008 1518.49 L322.008 1514.23 L330.271 1512.56 L334.947 1512.56 L334.947 1543.18 L342.586 1543.18 L342.586 1547.12 L322.679 1547.12 L322.679 1543.18 Z" fill="#000000" fill-rule="evenodd" fill-opacity="1" /><path clip-path="url(#clip910)" d="M 0 0 M346.475 1512.56 L368.697 1512.56 L368.697 1514.55 L356.151 1547.12 L351.267 1547.12 L363.072 1516.5 L346.475 1516.5 L346.475 1512.56 Z" fill="#000000" fill-rule="evenodd" fill-opacity="1" /><path clip-path="url(#clip910)" d="M 0 0 M668.603 1543.18 L684.922 1543.18 L684.922 1547.12 L662.978 1547.12 L662.978 1543.18 Q665.64 1540.43 670.223 1535.8 Q674.829 1531.15 676.01 1529.81 Q678.255 1527.28 679.135 1525.55 Q680.038 1523.79 680.038 1522.1 Q680.038 1519.34 678.093 1517.61 Q676.172 1515.87 673.07 1515.87 Q670.871 1515.87 668.417 1516.63 Q665.987 1517.4 663.209 1518.95 L663.209 1514.23 Q666.033 1513.09 668.487 1512.51 Q670.94 1511.93 672.978 1511.93 Q678.348 1511.93 681.542 1514.62 Q684.737 1517.31 684.737 1521.8 Q684.737 1523.93 683.927 1525.85 Q683.14 1527.74 681.033 1530.34 Q680.454 1531.01 677.352 1534.23 Q674.251 1537.42 668.603 1543.18 Z" fill="#000000" fill-rule="evenodd" fill-opacity="1" /><path clip-path="url(#clip910)" d="M 0 0 M699.991 1515.64 Q696.38 1515.64 694.551 1519.2 Q692.746 1522.75 692.746 1529.87 Q692.746 1536.98 694.551 1540.55 Q696.38 1544.09 699.991 1544.09 Q703.626 1544.09 705.431 1540.55 Q707.26 1536.98 707.26 1529.87 Q707.26 1522.75 705.431 1519.2 Q703.626 1515.64 699.991 1515.64 M699.991 1511.93 Q705.801 1511.93 708.857 1516.54 Q711.936 1521.12 711.936 1529.87 Q711.936 1538.6 708.857 1543.21 Q705.801 1547.79 699.991 1547.79 Q694.181 1547.79 691.102 1543.21 Q688.047 1538.6 688.047 1529.87 Q688.047 1521.12 691.102 1516.54 Q694.181 1511.93 699.991 1511.93 Z" fill="#000000" fill-rule="evenodd" fill-opacity="1" /><path clip-path="url(#clip910)" d="M 0 0 M721.033 1543.18 L737.352 1543.18 L737.352 1547.12 L715.408 1547.12 L715.408 1543.18 Q718.07 1540.43 722.653 1535.8 Q727.26 1531.15 728.44 1529.81 Q730.686 1527.28 731.565 1525.55 Q732.468 1523.79 732.468 1522.1 Q732.468 1519.34 730.524 1517.61 Q728.602 1515.87 725.5 1515.87 Q723.301 1515.87 720.848 1516.63 Q718.417 1517.4 715.639 1518.95 L715.639 1514.23 Q718.463 1513.09 720.917 1512.51 Q723.371 1511.93 725.408 1511.93 Q730.778 1511.93 733.973 1514.62 Q737.167 1517.31 737.167 1521.8 Q737.167 1523.93 736.357 1525.85 Q735.57 1527.74 733.463 1530.34 Q732.885 1531.01 729.783 1534.23 Q726.681 1537.42 721.033 1543.18 Z" fill="#000000" fill-rule="evenodd" fill-opacity="1" /><path clip-path="url(#clip910)" d="M 0 0 M743.232 1543.18 L750.871 1543.18 L750.871 1516.82 L742.56 1518.49 L742.56 1514.23 L750.824 1512.56 L755.5 1512.56 L755.5 1543.18 L763.139 1543.18 L763.139 1547.12 L743.232 1547.12 L743.232 1543.18 Z" fill="#000000" fill-rule="evenodd" fill-opacity="1" /><path clip-path="url(#clip910)" d="M 0 0 M765.454 1532.24 L777.931 1532.24 L777.931 1536.03 L765.454 1536.03 L765.454 1532.24 Z" fill="#000000" fill-rule="evenodd" fill-opacity="1" /><path clip-path="url(#clip910)" d="M 0 0 M793 1515.64 Q789.389 1515.64 787.56 1519.2 Q785.755 1522.75 785.755 1529.87 Q785.755 1536.98 787.56 1540.55 Q789.389 1544.09 793 1544.09 Q796.634 1544.09 798.44 1540.55 Q800.269 1536.98 800.269 1529.87 Q800.269 1522.75 798.44 1519.2 Q796.634 1515.64 793 1515.64 M793 1511.93 Q798.81 1511.93 801.866 1516.54 Q804.944 1521.12 804.944 1529.87 Q804.944 1538.6 801.866 1543.21 Q798.81 1547.79 793 1547.79 Q787.19 1547.79 784.111 1543.21 Q781.056 1538.6 781.056 1529.87 Q781.056 1521.12 784.111 1516.54 Q787.19 1511.93 793 1511.93 Z" fill="#000000" fill-rule="evenodd" fill-opacity="1" /><path clip-path="url(#clip910)" d="M 0 0 M814.042 1543.18 L830.361 1543.18 L830.361 1547.12 L808.417 1547.12 L808.417 1543.18 Q811.079 1540.43 815.662 1535.8 Q820.268 1531.15 821.449 1529.81 Q823.694 1527.28 824.574 1525.55 Q825.477 1523.79 825.477 1522.1 Q825.477 1519.34 823.532 1517.61 Q821.611 1515.87 818.509 1515.87 Q816.31 1515.87 813.856 1516.63 Q811.426 1517.4 808.648 1518.95 L808.648 1514.23 Q811.472 1513.09 813.926 1512.51 Q816.38 1511.93 818.417 1511.93 Q823.787 1511.93 826.981 1514.62 Q830.176 1517.31 830.176 1521.8 Q830.176 1523.93 829.366 1525.85 Q828.579 1527.74 826.472 1530.34 Q825.893 1531.01 822.792 1534.23 Q819.69 1537.42 814.042 1543.18 Z" fill="#000000" fill-rule="evenodd" fill-opacity="1" /><path clip-path="url(#clip910)" d="M 0 0 M832.676 1532.24 L845.153 1532.24 L845.153 1536.03 L832.676 1536.03 L832.676 1532.24 Z" fill="#000000" fill-rule="evenodd" fill-opacity="1" /><path clip-path="url(#clip910)" d="M 0 0 M854.25 1543.18 L870.569 1543.18 L870.569 1547.12 L848.625 1547.12 L848.625 1543.18 Q851.287 1540.43 855.87 1535.8 Q860.477 1531.15 861.657 1529.81 Q863.902 1527.28 864.782 1525.55 Q865.685 1523.79 865.685 1522.1 Q865.685 1519.34 863.74 1517.61 Q861.819 1515.87 858.717 1515.87 Q856.518 1515.87 854.065 1516.63 Q851.634 1517.4 848.856 1518.95 L848.856 1514.23 Q851.68 1513.09 854.134 1512.51 Q856.588 1511.93 858.625 1511.93 Q863.995 1511.93 867.189 1514.62 Q870.384 1517.31 870.384 1521.8 Q870.384 1523.93 869.574 1525.85 Q868.787 1527.74 866.68 1530.34 Q866.101 1531.01 863 1534.23 Q859.898 1537.42 854.25 1543.18 Z" fill="#000000" fill-rule="evenodd" fill-opacity="1" /><path clip-path="url(#clip910)" d="M 0 0 M888.486 1516.63 L876.68 1535.08 L888.486 1535.08 L888.486 1516.63 M887.259 1512.56 L893.138 1512.56 L893.138 1535.08 L898.069 1535.08 L898.069 1538.97 L893.138 1538.97 L893.138 1547.12 L888.486 1547.12 L888.486 1538.97 L872.884 1538.97 L872.884 1534.46 L887.259 1512.56 Z" fill="#000000" fill-rule="evenodd" fill-opacity="1" /><path clip-path="url(#clip910)" d="M 0 0 M1196.76 1543.18 L1213.08 1543.18 L1213.08 1547.12 L1191.13 1547.12 L1191.13 1543.18 Q1193.8 1540.43 1198.38 1535.8 Q1202.99 1531.15 1204.17 1529.81 Q1206.41 1527.28 1207.29 1525.55 Q1208.19 1523.79 1208.19 1522.1 Q1208.19 1519.34 1206.25 1517.61 Q1204.33 1515.87 1201.23 1515.87 Q1199.03 1515.87 1196.57 1516.63 Q1194.14 1517.4 1191.37 1518.95 L1191.37 1514.23 Q1194.19 1513.09 1196.64 1512.51 Q1199.1 1511.93 1201.13 1511.93 Q1206.5 1511.93 1209.7 1514.62 Q1212.89 1517.31 1212.89 1521.8 Q1212.89 1523.93 1212.08 1525.85 Q1211.3 1527.74 1209.19 1530.34 Q1208.61 1531.01 1205.51 1534.23 Q1202.41 1537.42 1196.76 1543.18 Z" fill="#000000" fill-rule="evenodd" fill-opacity="1" /><path clip-path="url(#clip910)" d="M 0 0 M1228.15 1515.64 Q1224.54 1515.64 1222.71 1519.2 Q1220.9 1522.75 1220.9 1529.87 Q1220.9 1536.98 1222.71 1540.55 Q1224.54 1544.09 1228.15 1544.09 Q1231.78 1544.09 1233.59 1540.55 Q1235.42 1536.98 1235.42 1529.87 Q1235.42 1522.75 1233.59 1519.2 Q1231.78 1515.64 1228.15 1515.64 M1228.15 1511.93 Q1233.96 1511.93 1237.01 1516.54 Q1240.09 1521.12 1240.09 1529.87 Q1240.09 1538.6 1237.01 1543.21 Q1233.96 1547.79 1228.15 1547.79 Q1222.34 1547.79 1219.26 1543.21 Q1216.2 1538.6 1216.2 1529.87 Q1216.2 1521.12 1219.26 1516.54 Q1222.34 1511.93 1228.15 1511.93 Z" fill="#000000" fill-rule="evenodd" fill-opacity="1" /><path clip-path="url(#clip910)" d="M 0 0 M1249.19 1543.18 L1265.51 1543.18 L1265.51 1547.12 L1243.56 1547.12 L1243.56 1543.18 Q1246.23 1540.43 1250.81 1535.8 Q1255.42 1531.15 1256.6 1529.81 Q1258.84 1527.28 1259.72 1525.55 Q1260.62 1523.79 1260.62 1522.1 Q1260.62 1519.34 1258.68 1517.61 Q1256.76 1515.87 1253.66 1515.87 Q1251.46 1515.87 1249 1516.63 Q1246.57 1517.4 1243.8 1518.95 L1243.8 1514.23 Q1246.62 1513.09 1249.07 1512.51 Q1251.53 1511.93 1253.56 1511.93 Q1258.93 1511.93 1262.13 1514.62 Q1265.32 1517.31 1265.32 1521.8 Q1265.32 1523.93 1264.51 1525.85 Q1263.73 1527.74 1261.62 1530.34 Q1261.04 1531.01 1257.94 1534.23 Q1254.84 1537.42 1249.19 1543.18 Z" fill="#000000" fill-rule="evenodd" fill-opacity="1" /><path clip-path="url(#clip910)" d="M 0 0 M1271.39 1543.18 L1279.03 1543.18 L1279.03 1516.82 L1270.72 1518.49 L1270.72 1514.23 L1278.98 1512.56 L1283.66 1512.56 L1283.66 1543.18 L1291.3 1543.18 L1291.3 1547.12 L1271.39 1547.12 L1271.39 1543.18 Z" fill="#000000" fill-rule="evenodd" fill-opacity="1" /><path clip-path="url(#clip910)" d="M 0 0 M1293.61 1532.24 L1306.09 1532.24 L1306.09 1536.03 L1293.61 1536.03 L1293.61 1532.24 Z" fill="#000000" fill-rule="evenodd" fill-opacity="1" /><path clip-path="url(#clip910)" d="M 0 0 M1321.16 1515.64 Q1317.55 1515.64 1315.72 1519.2 Q1313.91 1522.75 1313.91 1529.87 Q1313.91 1536.98 1315.72 1540.55 Q1317.55 1544.09 1321.16 1544.09 Q1324.79 1544.09 1326.6 1540.55 Q1328.42 1536.98 1328.42 1529.87 Q1328.42 1522.75 1326.6 1519.2 Q1324.79 1515.64 1321.16 1515.64 M1321.16 1511.93 Q1326.97 1511.93 1330.02 1516.54 Q1333.1 1521.12 1333.1 1529.87 Q1333.1 1538.6 1330.02 1543.21 Q1326.97 1547.79 1321.16 1547.79 Q1315.35 1547.79 1312.27 1543.21 Q1309.21 1538.6 1309.21 1529.87 Q1309.21 1521.12 1312.27 1516.54 Q1315.35 1511.93 1321.16 1511.93 Z" fill="#000000" fill-rule="evenodd" fill-opacity="1" /><path clip-path="url(#clip910)" d="M 0 0 M1352.34 1528.49 Q1355.69 1529.2 1357.57 1531.47 Q1359.47 1533.74 1359.47 1537.07 Q1359.47 1542.19 1355.95 1544.99 Q1352.43 1547.79 1345.95 1547.79 Q1343.77 1547.79 1341.46 1547.35 Q1339.17 1546.93 1336.71 1546.08 L1336.71 1541.56 Q1338.66 1542.7 1340.97 1543.28 Q1343.29 1543.86 1345.81 1543.86 Q1350.21 1543.86 1352.5 1542.12 Q1354.81 1540.38 1354.81 1537.07 Q1354.81 1534.02 1352.66 1532.31 Q1350.53 1530.57 1346.71 1530.57 L1342.68 1530.57 L1342.68 1526.73 L1346.9 1526.73 Q1350.35 1526.73 1352.17 1525.36 Q1354 1523.97 1354 1521.38 Q1354 1518.72 1352.11 1517.31 Q1350.23 1515.87 1346.71 1515.87 Q1344.79 1515.87 1342.59 1516.29 Q1340.39 1516.7 1337.75 1517.58 L1337.75 1513.42 Q1340.42 1512.68 1342.73 1512.31 Q1345.07 1511.93 1347.13 1511.93 Q1352.45 1511.93 1355.55 1514.37 Q1358.66 1516.77 1358.66 1520.89 Q1358.66 1523.76 1357.01 1525.75 Q1355.37 1527.72 1352.34 1528.49 Z" fill="#000000" fill-rule="evenodd" fill-opacity="1" /><path clip-path="url(#clip910)" d="M 0 0 M1361.78 1532.24 L1374.26 1532.24 L1374.26 1536.03 L1361.78 1536.03 L1361.78 1532.24 Z" fill="#000000" fill-rule="evenodd" fill-opacity="1" /><path clip-path="url(#clip910)" d="M 0 0 M1389.33 1515.64 Q1385.72 1515.64 1383.89 1519.2 Q1382.08 1522.75 1382.08 1529.87 Q1382.08 1536.98 1383.89 1540.55 Q1385.72 1544.09 1389.33 1544.09 Q1392.96 1544.09 1394.77 1540.55 Q1396.6 1536.98 1396.6 1529.87 Q1396.6 1522.75 1394.77 1519.2 Q1392.96 1515.64 1389.33 1515.64 M1389.33 1511.93 Q1395.14 1511.93 1398.19 1516.54 Q1401.27 1521.12 1401.27 1529.87 Q1401.27 1538.6 1398.19 1543.21 Q1395.14 1547.79 1389.33 1547.79 Q1383.52 1547.79 1380.44 1543.21 Q1377.38 1538.6 1377.38 1529.87 Q1377.38 1521.12 1380.44 1516.54 Q1383.52 1511.93 1389.33 1511.93 Z" fill="#000000" fill-rule="evenodd" fill-opacity="1" /><path clip-path="url(#clip910)" d="M 0 0 M1420.51 1528.49 Q1423.86 1529.2 1425.74 1531.47 Q1427.64 1533.74 1427.64 1537.07 Q1427.64 1542.19 1424.12 1544.99 Q1420.6 1547.79 1414.12 1547.79 Q1411.94 1547.79 1409.63 1547.35 Q1407.34 1546.93 1404.88 1546.08 L1404.88 1541.56 Q1406.83 1542.7 1409.14 1543.28 Q1411.46 1543.86 1413.98 1543.86 Q1418.38 1543.86 1420.67 1542.12 Q1422.98 1540.38 1422.98 1537.07 Q1422.98 1534.02 1420.83 1532.31 Q1418.7 1530.57 1414.88 1530.57 L1410.86 1530.57 L1410.86 1526.73 L1415.07 1526.73 Q1418.52 1526.73 1420.35 1525.36 Q1422.17 1523.97 1422.17 1521.38 Q1422.17 1518.72 1420.28 1517.31 Q1418.4 1515.87 1414.88 1515.87 Q1412.96 1515.87 1410.76 1516.29 Q1408.56 1516.7 1405.92 1517.58 L1405.92 1513.42 Q1408.59 1512.68 1410.9 1512.31 Q1413.24 1511.93 1415.3 1511.93 Q1420.62 1511.93 1423.73 1514.37 Q1426.83 1516.77 1426.83 1520.89 Q1426.83 1523.76 1425.18 1525.75 Q1423.54 1527.72 1420.51 1528.49 Z" fill="#000000" fill-rule="evenodd" fill-opacity="1" /><path clip-path="url(#clip910)" d="M 0 0 M1725.91 1543.18 L1742.23 1543.18 L1742.23 1547.12 L1720.29 1547.12 L1720.29 1543.18 Q1722.95 1540.43 1727.53 1535.8 Q1732.14 1531.15 1733.32 1529.81 Q1735.56 1527.28 1736.44 1525.55 Q1737.35 1523.79 1737.35 1522.1 Q1737.35 1519.34 1735.4 1517.61 Q1733.48 1515.87 1730.38 1515.87 Q1728.18 1515.87 1725.73 1516.63 Q1723.3 1517.4 1720.52 1518.95 L1720.52 1514.23 Q1723.34 1513.09 1725.8 1512.51 Q1728.25 1511.93 1730.29 1511.93 Q1735.66 1511.93 1738.85 1514.62 Q1742.05 1517.31 1742.05 1521.8 Q1742.05 1523.93 1741.23 1525.85 Q1740.45 1527.74 1738.34 1530.34 Q1737.76 1531.01 1734.66 1534.23 Q1731.56 1537.42 1725.91 1543.18 Z" fill="#000000" fill-rule="evenodd" fill-opacity="1" /><path clip-path="url(#clip910)" d="M 0 0 M1757.3 1515.64 Q1753.69 1515.64 1751.86 1519.2 Q1750.05 1522.75 1750.05 1529.87 Q1750.05 1536.98 1751.86 1540.55 Q1753.69 1544.09 1757.3 1544.09 Q1760.93 1544.09 1762.74 1540.55 Q1764.57 1536.98 1764.57 1529.87 Q1764.57 1522.75 1762.74 1519.2 Q1760.93 1515.64 1757.3 1515.64 M1757.3 1511.93 Q1763.11 1511.93 1766.17 1516.54 Q1769.24 1521.12 1769.24 1529.87 Q1769.24 1538.6 1766.17 1543.21 Q1763.11 1547.79 1757.3 1547.79 Q1751.49 1547.79 1748.41 1543.21 Q1745.36 1538.6 1745.36 1529.87 Q1745.36 1521.12 1748.41 1516.54 Q1751.49 1511.93 1757.3 1511.93 Z" fill="#000000" fill-rule="evenodd" fill-opacity="1" /><path clip-path="url(#clip910)" d="M 0 0 M1778.34 1543.18 L1794.66 1543.18 L1794.66 1547.12 L1772.72 1547.12 L1772.72 1543.18 Q1775.38 1540.43 1779.96 1535.8 Q1784.57 1531.15 1785.75 1529.81 Q1787.99 1527.28 1788.87 1525.55 Q1789.78 1523.79 1789.78 1522.1 Q1789.78 1519.34 1787.83 1517.61 Q1785.91 1515.87 1782.81 1515.87 Q1780.61 1515.87 1778.16 1516.63 Q1775.73 1517.4 1772.95 1518.95 L1772.95 1514.23 Q1775.77 1513.09 1778.23 1512.51 Q1780.68 1511.93 1782.72 1511.93 Q1788.09 1511.93 1791.28 1514.62 Q1794.48 1517.31 1794.48 1521.8 Q1794.48 1523.93 1793.67 1525.85 Q1792.88 1527.74 1790.77 1530.34 Q1790.19 1531.01 1787.09 1534.23 Q1783.99 1537.42 1778.34 1543.18 Z" fill="#000000" fill-rule="evenodd" fill-opacity="1" /><path clip-path="url(#clip910)" d="M 0 0 M1800.54 1543.18 L1808.18 1543.18 L1808.18 1516.82 L1799.87 1518.49 L1799.87 1514.23 L1808.13 1512.56 L1812.81 1512.56 L1812.81 1543.18 L1820.45 1543.18 L1820.45 1547.12 L1800.54 1547.12 L1800.54 1543.18 Z" fill="#000000" fill-rule="evenodd" fill-opacity="1" /><path clip-path="url(#clip910)" d="M 0 0 M1822.76 1532.24 L1835.24 1532.24 L1835.24 1536.03 L1822.76 1536.03 L1822.76 1532.24 Z" fill="#000000" fill-rule="evenodd" fill-opacity="1" /><path clip-path="url(#clip910)" d="M 0 0 M1850.31 1515.64 Q1846.7 1515.64 1844.87 1519.2 Q1843.06 1522.75 1843.06 1529.87 Q1843.06 1536.98 1844.87 1540.55 Q1846.7 1544.09 1850.31 1544.09 Q1853.94 1544.09 1855.75 1540.55 Q1857.58 1536.98 1857.58 1529.87 Q1857.58 1522.75 1855.75 1519.2 Q1853.94 1515.64 1850.31 1515.64 M1850.31 1511.93 Q1856.12 1511.93 1859.17 1516.54 Q1862.25 1521.12 1862.25 1529.87 Q1862.25 1538.6 1859.17 1543.21 Q1856.12 1547.79 1850.31 1547.79 Q1844.5 1547.79 1841.42 1543.21 Q1838.36 1538.6 1838.36 1529.87 Q1838.36 1521.12 1841.42 1516.54 Q1844.5 1511.93 1850.31 1511.93 Z" fill="#000000" fill-rule="evenodd" fill-opacity="1" /><path clip-path="url(#clip910)" d="M 0 0 M1881.49 1528.49 Q1884.85 1529.2 1886.72 1531.47 Q1888.62 1533.74 1888.62 1537.07 Q1888.62 1542.19 1885.1 1544.99 Q1881.58 1547.79 1875.1 1547.79 Q1872.92 1547.79 1870.61 1547.35 Q1868.32 1546.93 1865.86 1546.08 L1865.86 1541.56 Q1867.81 1542.7 1870.12 1543.28 Q1872.44 1543.86 1874.96 1543.86 Q1879.36 1543.86 1881.65 1542.12 Q1883.97 1540.38 1883.97 1537.07 Q1883.97 1534.02 1881.81 1532.31 Q1879.68 1530.57 1875.86 1530.57 L1871.84 1530.57 L1871.84 1526.73 L1876.05 1526.73 Q1879.5 1526.73 1881.33 1525.36 Q1883.16 1523.97 1883.16 1521.38 Q1883.16 1518.72 1881.26 1517.31 Q1879.38 1515.87 1875.86 1515.87 Q1873.94 1515.87 1871.74 1516.29 Q1869.54 1516.7 1866.91 1517.58 L1866.91 1513.42 Q1869.57 1512.68 1871.88 1512.31 Q1874.22 1511.93 1876.28 1511.93 Q1881.6 1511.93 1884.71 1514.37 Q1887.81 1516.77 1887.81 1520.89 Q1887.81 1523.76 1886.16 1525.75 Q1884.52 1527.72 1881.49 1528.49 Z" fill="#000000" fill-rule="evenodd" fill-opacity="1" /><path clip-path="url(#clip910)" d="M 0 0 M1890.93 1532.24 L1903.41 1532.24 L1903.41 1536.03 L1890.93 1536.03 L1890.93 1532.24 Z" fill="#000000" fill-rule="evenodd" fill-opacity="1" /><path clip-path="url(#clip910)" d="M 0 0 M1909.29 1543.18 L1916.93 1543.18 L1916.93 1516.82 L1908.62 1518.49 L1908.62 1514.23 L1916.88 1512.56 L1921.56 1512.56 L1921.56 1543.18 L1929.2 1543.18 L1929.2 1547.12 L1909.29 1547.12 L1909.29 1543.18 Z" fill="#000000" fill-rule="evenodd" fill-opacity="1" /><path clip-path="url(#clip910)" d="M 0 0 M1944.27 1515.64 Q1940.66 1515.64 1938.83 1519.2 Q1937.02 1522.75 1937.02 1529.87 Q1937.02 1536.98 1938.83 1540.55 Q1940.66 1544.09 1944.27 1544.09 Q1947.9 1544.09 1949.71 1540.55 Q1951.53 1536.98 1951.53 1529.87 Q1951.53 1522.75 1949.71 1519.2 Q1947.9 1515.64 1944.27 1515.64 M1944.27 1511.93 Q1950.08 1511.93 1953.13 1516.54 Q1956.21 1521.12 1956.21 1529.87 Q1956.21 1538.6 1953.13 1543.21 Q1950.08 1547.79 1944.27 1547.79 Q1938.46 1547.79 1935.38 1543.21 Q1932.32 1538.6 1932.32 1529.87 Q1932.32 1521.12 1935.38 1516.54 Q1938.46 1511.93 1944.27 1511.93 Z" fill="#000000" fill-rule="evenodd" fill-opacity="1" /><polyline clip-path="url(#clip912)" style="stroke:#000000; stroke-width:2; stroke-opacity:0.1; fill:none" points="
  190.464,1466.55 2352.76,1466.55 
  "/>
<polyline clip-path="url(#clip912)" style="stroke:#000000; stroke-width:2; stroke-opacity:0.1; fill:none" points="
  190.464,1260.27 2352.76,1260.27 
  "/>
<polyline clip-path="url(#clip912)" style="stroke:#000000; stroke-width:2; stroke-opacity:0.1; fill:none" points="
  190.464,1053.99 2352.76,1053.99 
  "/>
<polyline clip-path="url(#clip912)" style="stroke:#000000; stroke-width:2; stroke-opacity:0.1; fill:none" points="
  190.464,847.708 2352.76,847.708 
  "/>
<polyline clip-path="url(#clip912)" style="stroke:#000000; stroke-width:2; stroke-opacity:0.1; fill:none" points="
  190.464,641.427 2352.76,641.427 
  "/>
<polyline clip-path="url(#clip912)" style="stroke:#000000; stroke-width:2; stroke-opacity:0.1; fill:none" points="
  190.464,435.146 2352.76,435.146 
  "/>
<polyline clip-path="url(#clip912)" style="stroke:#000000; stroke-width:2; stroke-opacity:0.1; fill:none" points="
  190.464,228.865 2352.76,228.865 
  "/>
<polyline clip-path="url(#clip910)" style="stroke:#000000; stroke-width:4; stroke-opacity:1; fill:none" points="
  190.464,1486.45 190.464,47.2441 
  "/>
<polyline clip-path="url(#clip910)" style="stroke:#000000; stroke-width:4; stroke-opacity:1; fill:none" points="
  190.464,1466.55 216.411,1466.55 
  "/>
<polyline clip-path="url(#clip910)" style="stroke:#000000; stroke-width:4; stroke-opacity:1; fill:none" points="
  190.464,1260.27 216.411,1260.27 
  "/>
<polyline clip-path="url(#clip910)" style="stroke:#000000; stroke-width:4; stroke-opacity:1; fill:none" points="
  190.464,1053.99 216.411,1053.99 
  "/>
<polyline clip-path="url(#clip910)" style="stroke:#000000; stroke-width:4; stroke-opacity:1; fill:none" points="
  190.464,847.708 216.411,847.708 
  "/>
<polyline clip-path="url(#clip910)" style="stroke:#000000; stroke-width:4; stroke-opacity:1; fill:none" points="
  190.464,641.427 216.411,641.427 
  "/>
<polyline clip-path="url(#clip910)" style="stroke:#000000; stroke-width:4; stroke-opacity:1; fill:none" points="
  190.464,435.146 216.411,435.146 
  "/>
<polyline clip-path="url(#clip910)" style="stroke:#000000; stroke-width:4; stroke-opacity:1; fill:none" points="
  190.464,228.865 216.411,228.865 
  "/>
<path clip-path="url(#clip910)" d="M 0 0 M57.1032 1479.9 L73.4226 1479.9 L73.4226 1483.83 L51.4782 1483.83 L51.4782 1479.9 Q54.1403 1477.14 58.7236 1472.51 Q63.33 1467.86 64.5106 1466.52 Q66.7559 1463.99 67.6356 1462.26 Q68.5383 1460.5 68.5383 1458.81 Q68.5383 1456.05 66.5939 1454.32 Q64.6726 1452.58 61.5708 1452.58 Q59.3717 1452.58 56.918 1453.34 Q54.4875 1454.11 51.7097 1455.66 L51.7097 1450.94 Q54.5338 1449.8 56.9875 1449.22 Q59.4412 1448.65 61.4782 1448.65 Q66.8485 1448.65 70.0429 1451.33 Q73.2374 1454.02 73.2374 1458.51 Q73.2374 1460.64 72.4272 1462.56 Q71.6402 1464.46 69.5337 1467.05 Q68.955 1467.72 65.8532 1470.94 Q62.7513 1474.13 57.1032 1479.9 Z" fill="#000000" fill-rule="evenodd" fill-opacity="1" /><path clip-path="url(#clip910)" d="M 0 0 M88.4919 1452.35 Q84.8808 1452.35 83.0521 1455.91 Q81.2466 1459.46 81.2466 1466.58 Q81.2466 1473.69 83.0521 1477.26 Q84.8808 1480.8 88.4919 1480.8 Q92.1262 1480.8 93.9317 1477.26 Q95.7604 1473.69 95.7604 1466.58 Q95.7604 1459.46 93.9317 1455.91 Q92.1262 1452.35 88.4919 1452.35 M88.4919 1448.65 Q94.3021 1448.65 97.3576 1453.25 Q100.436 1457.84 100.436 1466.58 Q100.436 1475.31 97.3576 1479.92 Q94.3021 1484.5 88.4919 1484.5 Q82.6818 1484.5 79.6031 1479.92 Q76.5475 1475.31 76.5475 1466.58 Q76.5475 1457.84 79.6031 1453.25 Q82.6818 1448.65 88.4919 1448.65 Z" fill="#000000" fill-rule="evenodd" fill-opacity="1" /><path clip-path="url(#clip910)" d="M 0 0 M115.506 1452.35 Q111.895 1452.35 110.066 1455.91 Q108.26 1459.46 108.26 1466.58 Q108.26 1473.69 110.066 1477.26 Q111.895 1480.8 115.506 1480.8 Q119.14 1480.8 120.945 1477.26 Q122.774 1473.69 122.774 1466.58 Q122.774 1459.46 120.945 1455.91 Q119.14 1452.35 115.506 1452.35 M115.506 1448.65 Q121.316 1448.65 124.371 1453.25 Q127.45 1457.84 127.45 1466.58 Q127.45 1475.31 124.371 1479.92 Q121.316 1484.5 115.506 1484.5 Q109.696 1484.5 106.617 1479.92 Q103.561 1475.31 103.561 1466.58 Q103.561 1457.84 106.617 1453.25 Q109.696 1448.65 115.506 1448.65 Z" fill="#000000" fill-rule="evenodd" fill-opacity="1" /><path clip-path="url(#clip910)" d="M 0 0 M142.519 1452.35 Q138.908 1452.35 137.08 1455.91 Q135.274 1459.46 135.274 1466.58 Q135.274 1473.69 137.08 1477.26 Q138.908 1480.8 142.519 1480.8 Q146.154 1480.8 147.959 1477.26 Q149.788 1473.69 149.788 1466.58 Q149.788 1459.46 147.959 1455.91 Q146.154 1452.35 142.519 1452.35 M142.519 1448.65 Q148.33 1448.65 151.385 1453.25 Q154.464 1457.84 154.464 1466.58 Q154.464 1475.31 151.385 1479.92 Q148.33 1484.5 142.519 1484.5 Q136.709 1484.5 133.631 1479.92 Q130.575 1475.31 130.575 1466.58 Q130.575 1457.84 133.631 1453.25 Q136.709 1448.65 142.519 1448.65 Z" fill="#000000" fill-rule="evenodd" fill-opacity="1" /><path clip-path="url(#clip910)" d="M 0 0 M58.7004 1273.61 L75.0198 1273.61 L75.0198 1277.55 L53.0754 1277.55 L53.0754 1273.61 Q55.7375 1270.86 60.3208 1266.23 Q64.9272 1261.58 66.1078 1260.23 Q68.3531 1257.71 69.2328 1255.98 Q70.1355 1254.22 70.1355 1252.53 Q70.1355 1249.77 68.1911 1248.04 Q66.2698 1246.3 63.168 1246.3 Q60.9689 1246.3 58.5152 1247.06 Q56.0847 1247.83 53.3069 1249.38 L53.3069 1244.66 Q56.131 1243.52 58.5847 1242.94 Q61.0384 1242.36 63.0754 1242.36 Q68.4457 1242.36 71.6402 1245.05 Q74.8346 1247.73 74.8346 1252.23 Q74.8346 1254.36 74.0244 1256.28 Q73.2374 1258.17 71.1309 1260.77 Q70.5522 1261.44 67.4504 1264.66 Q64.3485 1267.85 58.7004 1273.61 Z" fill="#000000" fill-rule="evenodd" fill-opacity="1" /><path clip-path="url(#clip910)" d="M 0 0 M90.0891 1246.07 Q86.478 1246.07 84.6494 1249.63 Q82.8438 1253.17 82.8438 1260.3 Q82.8438 1267.41 84.6494 1270.98 Q86.478 1274.52 90.0891 1274.52 Q93.7234 1274.52 95.5289 1270.98 Q97.3576 1267.41 97.3576 1260.3 Q97.3576 1253.17 95.5289 1249.63 Q93.7234 1246.07 90.0891 1246.07 M90.0891 1242.36 Q95.8993 1242.36 98.9548 1246.97 Q102.034 1251.55 102.034 1260.3 Q102.034 1269.03 98.9548 1273.64 Q95.8993 1278.22 90.0891 1278.22 Q84.279 1278.22 81.2003 1273.64 Q78.1448 1269.03 78.1448 1260.3 Q78.1448 1251.55 81.2003 1246.97 Q84.279 1242.36 90.0891 1242.36 Z" fill="#000000" fill-rule="evenodd" fill-opacity="1" /><path clip-path="url(#clip910)" d="M 0 0 M111.131 1273.61 L127.45 1273.61 L127.45 1277.55 L105.506 1277.55 L105.506 1273.61 Q108.168 1270.86 112.751 1266.23 Q117.358 1261.58 118.538 1260.23 Q120.783 1257.71 121.663 1255.98 Q122.566 1254.22 122.566 1252.53 Q122.566 1249.77 120.621 1248.04 Q118.7 1246.3 115.598 1246.3 Q113.399 1246.3 110.946 1247.06 Q108.515 1247.83 105.737 1249.38 L105.737 1244.66 Q108.561 1243.52 111.015 1242.94 Q113.469 1242.36 115.506 1242.36 Q120.876 1242.36 124.07 1245.05 Q127.265 1247.73 127.265 1252.23 Q127.265 1254.36 126.455 1256.28 Q125.668 1258.17 123.561 1260.77 Q122.982 1261.44 119.881 1264.66 Q116.779 1267.85 111.131 1273.61 Z" fill="#000000" fill-rule="evenodd" fill-opacity="1" /><path clip-path="url(#clip910)" d="M 0 0 M142.519 1246.07 Q138.908 1246.07 137.08 1249.63 Q135.274 1253.17 135.274 1260.3 Q135.274 1267.41 137.08 1270.98 Q138.908 1274.52 142.519 1274.52 Q146.154 1274.52 147.959 1270.98 Q149.788 1267.41 149.788 1260.3 Q149.788 1253.17 147.959 1249.63 Q146.154 1246.07 142.519 1246.07 M142.519 1242.36 Q148.33 1242.36 151.385 1246.97 Q154.464 1251.55 154.464 1260.3 Q154.464 1269.03 151.385 1273.64 Q148.33 1278.22 142.519 1278.22 Q136.709 1278.22 133.631 1273.64 Q130.575 1269.03 130.575 1260.3 Q130.575 1251.55 133.631 1246.97 Q136.709 1242.36 142.519 1242.36 Z" fill="#000000" fill-rule="evenodd" fill-opacity="1" /><path clip-path="url(#clip910)" d="M 0 0 M56.6171 1067.33 L72.9365 1067.33 L72.9365 1071.27 L50.9921 1071.27 L50.9921 1067.33 Q53.6541 1064.58 58.2375 1059.95 Q62.8439 1055.3 64.0245 1053.95 Q66.2698 1051.43 67.1494 1049.69 Q68.0522 1047.94 68.0522 1046.25 Q68.0522 1043.49 66.1078 1041.75 Q64.1865 1040.02 61.0847 1040.02 Q58.8856 1040.02 56.4319 1040.78 Q54.0014 1041.55 51.2236 1043.1 L51.2236 1038.38 Q54.0477 1037.24 56.5014 1036.66 Q58.955 1036.08 60.9921 1036.08 Q66.3624 1036.08 69.5568 1038.77 Q72.7513 1041.45 72.7513 1045.94 Q72.7513 1048.07 71.9411 1050 Q71.1541 1051.89 69.0476 1054.49 Q68.4689 1055.16 65.367 1058.38 Q62.2652 1061.57 56.6171 1067.33 Z" fill="#000000" fill-rule="evenodd" fill-opacity="1" /><path clip-path="url(#clip910)" d="M 0 0 M88.0058 1039.79 Q84.3947 1039.79 82.566 1043.35 Q80.7605 1046.89 80.7605 1054.02 Q80.7605 1061.13 82.566 1064.69 Q84.3947 1068.24 88.0058 1068.24 Q91.6401 1068.24 93.4456 1064.69 Q95.2743 1061.13 95.2743 1054.02 Q95.2743 1046.89 93.4456 1043.35 Q91.6401 1039.79 88.0058 1039.79 M88.0058 1036.08 Q93.816 1036.08 96.8715 1040.69 Q99.9502 1045.27 99.9502 1054.02 Q99.9502 1062.75 96.8715 1067.36 Q93.816 1071.94 88.0058 1071.94 Q82.1957 1071.94 79.117 1067.36 Q76.0614 1062.75 76.0614 1054.02 Q76.0614 1045.27 79.117 1040.69 Q82.1957 1036.08 88.0058 1036.08 Z" fill="#000000" fill-rule="evenodd" fill-opacity="1" /><path clip-path="url(#clip910)" d="M 0 0 M117.867 1040.78 L106.061 1059.23 L117.867 1059.23 L117.867 1040.78 M116.64 1036.71 L122.52 1036.71 L122.52 1059.23 L127.45 1059.23 L127.45 1063.12 L122.52 1063.12 L122.52 1071.27 L117.867 1071.27 L117.867 1063.12 L102.265 1063.12 L102.265 1058.61 L116.64 1036.71 Z" fill="#000000" fill-rule="evenodd" fill-opacity="1" /><path clip-path="url(#clip910)" d="M 0 0 M142.519 1039.79 Q138.908 1039.79 137.08 1043.35 Q135.274 1046.89 135.274 1054.02 Q135.274 1061.13 137.08 1064.69 Q138.908 1068.24 142.519 1068.24 Q146.154 1068.24 147.959 1064.69 Q149.788 1061.13 149.788 1054.02 Q149.788 1046.89 147.959 1043.35 Q146.154 1039.79 142.519 1039.79 M142.519 1036.08 Q148.33 1036.08 151.385 1040.69 Q154.464 1045.27 154.464 1054.02 Q154.464 1062.75 151.385 1067.36 Q148.33 1071.94 142.519 1071.94 Q136.709 1071.94 133.631 1067.36 Q130.575 1062.75 130.575 1054.02 Q130.575 1045.27 133.631 1040.69 Q136.709 1036.08 142.519 1036.08 Z" fill="#000000" fill-rule="evenodd" fill-opacity="1" /><path clip-path="url(#clip910)" d="M 0 0 M56.9412 861.053 L73.2605 861.053 L73.2605 864.988 L51.3162 864.988 L51.3162 861.053 Q53.9782 858.298 58.5615 853.668 Q63.168 849.016 64.3485 847.673 Q66.5939 845.15 67.4735 843.414 Q68.3763 841.655 68.3763 839.965 Q68.3763 837.21 66.4319 835.474 Q64.5106 833.738 61.4087 833.738 Q59.2097 833.738 56.756 834.502 Q54.3254 835.266 51.5477 836.817 L51.5477 832.094 Q54.3717 830.96 56.8254 830.381 Q59.2791 829.803 61.3161 829.803 Q66.6865 829.803 69.8809 832.488 Q73.0753 835.173 73.0753 839.664 Q73.0753 841.793 72.2652 843.715 Q71.4781 845.613 69.3717 848.205 Q68.793 848.877 65.6911 852.094 Q62.5893 855.289 56.9412 861.053 Z" fill="#000000" fill-rule="evenodd" fill-opacity="1" /><path clip-path="url(#clip910)" d="M 0 0 M88.3299 833.506 Q84.7188 833.506 82.8901 837.071 Q81.0846 840.613 81.0846 847.742 Q81.0846 854.849 82.8901 858.414 Q84.7188 861.955 88.3299 861.955 Q91.9641 861.955 93.7697 858.414 Q95.5984 854.849 95.5984 847.742 Q95.5984 840.613 93.7697 837.071 Q91.9641 833.506 88.3299 833.506 M88.3299 829.803 Q94.14 829.803 97.1956 834.409 Q100.274 838.992 100.274 847.742 Q100.274 856.469 97.1956 861.076 Q94.14 865.659 88.3299 865.659 Q82.5197 865.659 79.441 861.076 Q76.3855 856.469 76.3855 847.742 Q76.3855 838.992 79.441 834.409 Q82.5197 829.803 88.3299 829.803 Z" fill="#000000" fill-rule="evenodd" fill-opacity="1" /><path clip-path="url(#clip910)" d="M 0 0 M115.922 845.844 Q112.774 845.844 110.922 847.997 Q109.094 850.15 109.094 853.9 Q109.094 857.627 110.922 859.803 Q112.774 861.955 115.922 861.955 Q119.07 861.955 120.899 859.803 Q122.751 857.627 122.751 853.9 Q122.751 850.15 120.899 847.997 Q119.07 845.844 115.922 845.844 M125.205 831.192 L125.205 835.451 Q123.445 834.618 121.64 834.178 Q119.857 833.738 118.098 833.738 Q113.469 833.738 111.015 836.863 Q108.584 839.988 108.237 846.307 Q109.603 844.293 111.663 843.229 Q113.723 842.141 116.2 842.141 Q121.408 842.141 124.418 845.312 Q127.45 848.46 127.45 853.9 Q127.45 859.224 124.302 862.441 Q121.154 865.659 115.922 865.659 Q109.927 865.659 106.756 861.076 Q103.584 856.469 103.584 847.742 Q103.584 839.548 107.473 834.687 Q111.362 829.803 117.913 829.803 Q119.672 829.803 121.455 830.15 Q123.26 830.497 125.205 831.192 Z" fill="#000000" fill-rule="evenodd" fill-opacity="1" /><path clip-path="url(#clip910)" d="M 0 0 M142.519 833.506 Q138.908 833.506 137.08 837.071 Q135.274 840.613 135.274 847.742 Q135.274 854.849 137.08 858.414 Q138.908 861.955 142.519 861.955 Q146.154 861.955 147.959 858.414 Q149.788 854.849 149.788 847.742 Q149.788 840.613 147.959 837.071 Q146.154 833.506 142.519 833.506 M142.519 829.803 Q148.33 829.803 151.385 834.409 Q154.464 838.992 154.464 847.742 Q154.464 856.469 151.385 861.076 Q148.33 865.659 142.519 865.659 Q136.709 865.659 133.631 861.076 Q130.575 856.469 130.575 847.742 Q130.575 838.992 133.631 834.409 Q136.709 829.803 142.519 829.803 Z" fill="#000000" fill-rule="evenodd" fill-opacity="1" /><path clip-path="url(#clip910)" d="M 0 0 M57.1958 654.772 L73.5152 654.772 L73.5152 658.707 L51.5708 658.707 L51.5708 654.772 Q54.2328 652.017 58.8162 647.387 Q63.4226 642.735 64.6032 641.392 Q66.8485 638.869 67.7281 637.133 Q68.6309 635.374 68.6309 633.684 Q68.6309 630.929 66.6865 629.193 Q64.7652 627.457 61.6634 627.457 Q59.4643 627.457 57.0106 628.221 Q54.5801 628.985 51.8023 630.536 L51.8023 625.814 Q54.6264 624.679 57.0801 624.101 Q59.5337 623.522 61.5708 623.522 Q66.9411 623.522 70.1355 626.207 Q73.33 628.892 73.33 633.383 Q73.33 635.513 72.5198 637.434 Q71.7328 639.332 69.6263 641.925 Q69.0476 642.596 65.9457 645.813 Q62.8439 649.008 57.1958 654.772 Z" fill="#000000" fill-rule="evenodd" fill-opacity="1" /><path clip-path="url(#clip910)" d="M 0 0 M88.5845 627.226 Q84.9734 627.226 83.1447 630.79 Q81.3392 634.332 81.3392 641.462 Q81.3392 648.568 83.1447 652.133 Q84.9734 655.674 88.5845 655.674 Q92.2188 655.674 94.0243 652.133 Q95.853 648.568 95.853 641.462 Q95.853 634.332 94.0243 630.79 Q92.2188 627.226 88.5845 627.226 M88.5845 623.522 Q94.3947 623.522 97.4502 628.128 Q100.529 632.712 100.529 641.462 Q100.529 650.188 97.4502 654.795 Q94.3947 659.378 88.5845 659.378 Q82.7744 659.378 79.6957 654.795 Q76.6401 650.188 76.6401 641.462 Q76.6401 632.712 79.6957 628.128 Q82.7744 623.522 88.5845 623.522 Z" fill="#000000" fill-rule="evenodd" fill-opacity="1" /><path clip-path="url(#clip910)" d="M 0 0 M115.598 642.295 Q112.265 642.295 110.344 644.077 Q108.446 645.86 108.446 648.985 Q108.446 652.11 110.344 653.892 Q112.265 655.674 115.598 655.674 Q118.932 655.674 120.853 653.892 Q122.774 652.087 122.774 648.985 Q122.774 645.86 120.853 644.077 Q118.955 642.295 115.598 642.295 M110.922 640.304 Q107.913 639.563 106.223 637.503 Q104.557 635.443 104.557 632.48 Q104.557 628.337 107.496 625.929 Q110.459 623.522 115.598 623.522 Q120.76 623.522 123.7 625.929 Q126.64 628.337 126.64 632.48 Q126.64 635.443 124.95 637.503 Q123.283 639.563 120.297 640.304 Q123.677 641.091 125.552 643.383 Q127.45 645.675 127.45 648.985 Q127.45 654.008 124.371 656.693 Q121.316 659.378 115.598 659.378 Q109.881 659.378 106.802 656.693 Q103.746 654.008 103.746 648.985 Q103.746 645.675 105.645 643.383 Q107.543 641.091 110.922 640.304 M109.209 632.92 Q109.209 635.605 110.876 637.11 Q112.566 638.614 115.598 638.614 Q118.608 638.614 120.297 637.11 Q122.01 635.605 122.01 632.92 Q122.01 630.235 120.297 628.73 Q118.608 627.226 115.598 627.226 Q112.566 627.226 110.876 628.73 Q109.209 630.235 109.209 632.92 Z" fill="#000000" fill-rule="evenodd" fill-opacity="1" /><path clip-path="url(#clip910)" d="M 0 0 M142.519 627.226 Q138.908 627.226 137.08 630.79 Q135.274 634.332 135.274 641.462 Q135.274 648.568 137.08 652.133 Q138.908 655.674 142.519 655.674 Q146.154 655.674 147.959 652.133 Q149.788 648.568 149.788 641.462 Q149.788 634.332 147.959 630.79 Q146.154 627.226 142.519 627.226 M142.519 623.522 Q148.33 623.522 151.385 628.128 Q154.464 632.712 154.464 641.462 Q154.464 650.188 151.385 654.795 Q148.33 659.378 142.519 659.378 Q136.709 659.378 133.631 654.795 Q130.575 650.188 130.575 641.462 Q130.575 632.712 133.631 628.128 Q136.709 623.522 142.519 623.522 Z" fill="#000000" fill-rule="evenodd" fill-opacity="1" /><path clip-path="url(#clip910)" d="M 0 0 M58.33 448.491 L74.6494 448.491 L74.6494 452.426 L52.7051 452.426 L52.7051 448.491 Q55.3671 445.736 59.9504 441.107 Q64.5569 436.454 65.7374 435.111 Q67.9828 432.588 68.8624 430.852 Q69.7652 429.093 69.7652 427.403 Q69.7652 424.648 67.8207 422.912 Q65.8995 421.176 62.7976 421.176 Q60.5986 421.176 58.1449 421.94 Q55.7143 422.704 52.9366 424.255 L52.9366 419.533 Q55.7606 418.398 58.2143 417.82 Q60.668 417.241 62.705 417.241 Q68.0754 417.241 71.2698 419.926 Q74.4642 422.611 74.4642 427.102 Q74.4642 429.232 73.654 431.153 Q72.867 433.051 70.7605 435.644 Q70.1818 436.315 67.08 439.533 Q63.9782 442.727 58.33 448.491 Z" fill="#000000" fill-rule="evenodd" fill-opacity="1" /><path clip-path="url(#clip910)" d="M 0 0 M80.529 448.491 L88.1679 448.491 L88.1679 422.125 L79.8577 423.792 L79.8577 419.533 L88.1216 417.866 L92.7975 417.866 L92.7975 448.491 L100.436 448.491 L100.436 452.426 L80.529 452.426 L80.529 448.491 Z" fill="#000000" fill-rule="evenodd" fill-opacity="1" /><path clip-path="url(#clip910)" d="M 0 0 M115.506 420.945 Q111.895 420.945 110.066 424.51 Q108.26 428.051 108.26 435.181 Q108.26 442.287 110.066 445.852 Q111.895 449.394 115.506 449.394 Q119.14 449.394 120.945 445.852 Q122.774 442.287 122.774 435.181 Q122.774 428.051 120.945 424.51 Q119.14 420.945 115.506 420.945 M115.506 417.241 Q121.316 417.241 124.371 421.847 Q127.45 426.431 127.45 435.181 Q127.45 443.908 124.371 448.514 Q121.316 453.097 115.506 453.097 Q109.696 453.097 106.617 448.514 Q103.561 443.908 103.561 435.181 Q103.561 426.431 106.617 421.847 Q109.696 417.241 115.506 417.241 Z" fill="#000000" fill-rule="evenodd" fill-opacity="1" /><path clip-path="url(#clip910)" d="M 0 0 M142.519 420.945 Q138.908 420.945 137.08 424.51 Q135.274 428.051 135.274 435.181 Q135.274 442.287 137.08 445.852 Q138.908 449.394 142.519 449.394 Q146.154 449.394 147.959 445.852 Q149.788 442.287 149.788 435.181 Q149.788 428.051 147.959 424.51 Q146.154 420.945 142.519 420.945 M142.519 417.241 Q148.33 417.241 151.385 421.847 Q154.464 426.431 154.464 435.181 Q154.464 443.908 151.385 448.514 Q148.33 453.097 142.519 453.097 Q136.709 453.097 133.631 448.514 Q130.575 443.908 130.575 435.181 Q130.575 426.431 133.631 421.847 Q136.709 417.241 142.519 417.241 Z" fill="#000000" fill-rule="evenodd" fill-opacity="1" /><path clip-path="url(#clip910)" d="M 0 0 M59.9273 242.21 L76.2466 242.21 L76.2466 246.145 L54.3023 246.145 L54.3023 242.21 Q56.9643 239.455 61.5476 234.826 Q66.1541 230.173 67.3346 228.83 Q69.58 226.307 70.4596 224.571 Q71.3624 222.812 71.3624 221.122 Q71.3624 218.368 69.418 216.631 Q67.4967 214.895 64.3948 214.895 Q62.1958 214.895 59.7421 215.659 Q57.3115 216.423 54.5338 217.974 L54.5338 213.252 Q57.3578 212.118 59.8115 211.539 Q62.2652 210.96 64.3022 210.96 Q69.6726 210.96 72.867 213.645 Q76.0614 216.331 76.0614 220.821 Q76.0614 222.951 75.2513 224.872 Q74.4642 226.77 72.3578 229.363 Q71.7791 230.034 68.6772 233.252 Q65.5754 236.446 59.9273 242.21 Z" fill="#000000" fill-rule="evenodd" fill-opacity="1" /><path clip-path="url(#clip910)" d="M 0 0 M82.1262 242.21 L89.7651 242.21 L89.7651 215.844 L81.4549 217.511 L81.4549 213.252 L89.7188 211.585 L94.3947 211.585 L94.3947 242.21 L102.034 242.21 L102.034 246.145 L82.1262 246.145 L82.1262 242.21 Z" fill="#000000" fill-rule="evenodd" fill-opacity="1" /><path clip-path="url(#clip910)" d="M 0 0 M111.131 242.21 L127.45 242.21 L127.45 246.145 L105.506 246.145 L105.506 242.21 Q108.168 239.455 112.751 234.826 Q117.358 230.173 118.538 228.83 Q120.783 226.307 121.663 224.571 Q122.566 222.812 122.566 221.122 Q122.566 218.368 120.621 216.631 Q118.7 214.895 115.598 214.895 Q113.399 214.895 110.946 215.659 Q108.515 216.423 105.737 217.974 L105.737 213.252 Q108.561 212.118 111.015 211.539 Q113.469 210.96 115.506 210.96 Q120.876 210.96 124.07 213.645 Q127.265 216.331 127.265 220.821 Q127.265 222.951 126.455 224.872 Q125.668 226.77 123.561 229.363 Q122.982 230.034 119.881 233.252 Q116.779 236.446 111.131 242.21 Z" fill="#000000" fill-rule="evenodd" fill-opacity="1" /><path clip-path="url(#clip910)" d="M 0 0 M142.519 214.664 Q138.908 214.664 137.08 218.229 Q135.274 221.77 135.274 228.9 Q135.274 236.006 137.08 239.571 Q138.908 243.113 142.519 243.113 Q146.154 243.113 147.959 239.571 Q149.788 236.006 149.788 228.9 Q149.788 221.77 147.959 218.229 Q146.154 214.664 142.519 214.664 M142.519 210.96 Q148.33 210.96 151.385 215.567 Q154.464 220.15 154.464 228.9 Q154.464 237.627 151.385 242.233 Q148.33 246.816 142.519 246.816 Q136.709 246.816 133.631 242.233 Q130.575 237.627 130.575 228.9 Q130.575 220.15 133.631 215.567 Q136.709 210.96 142.519 210.96 Z" fill="#000000" fill-rule="evenodd" fill-opacity="1" /><polyline clip-path="url(#clip912)" style="stroke:#009af9; stroke-width:4; stroke-opacity:1; fill:none" points="
  251.661,435.146 327.213,327.984 402.764,236.394 629.42,775.509 704.971,1208.6 780.523,1035.11 856.075,770.869 931.627,945.485 1158.28,883.6 1233.83,680.724 
  1309.39,773.344 1384.94,1225.51 1460.49,712.386 1687.14,423.492 1762.7,744.567 1838.25,726.414 1913.8,702.692 1989.35,589.857 2216.01,823.985 2291.56,651.844 
  
  "/>
<polyline clip-path="url(#clip912)" style="stroke:#e26f46; stroke-width:4; stroke-opacity:1; fill:none" points="
  251.661,87.9763 327.213,97.5148 402.764,120.258 629.42,523.641 704.971,620.696 780.523,427.101 856.075,487.955 931.627,734.15 1158.28,574.179 1233.83,390.072 
  1309.39,553.571 1384.94,546.125 1460.49,248.358 1687.14,137.998 1762.7,661.642 1838.25,692.997 1913.8,170.076 1989.35,535.605 2216.01,774.89 2291.56,192.147 
  
  "/>
<polyline clip-path="url(#clip912)" style="stroke:#3da44d; stroke-width:4; stroke-opacity:1; fill:none" points="
  251.661,446.286 327.213,396.881 402.764,461.86 629.42,825.637 704.971,1445.72 780.523,1073.28 856.075,1246.96 931.627,1300.91 1158.28,991.073 1233.83,731.572 
  1309.39,1363.41 1384.94,1257.48 1460.49,987.824 1687.14,1243.66 1762.7,973.23 1838.25,1122.37 1913.8,720.021 1989.35,976.117 2216.01,1017.79 2291.56,744.567 
  
  "/>
<polyline clip-path="url(#clip912)" style="stroke:#c271d2; stroke-width:4; stroke-opacity:1; fill:none" points="
  251.661,143.155 327.213,257.745 402.764,423.389 629.42,797.376 704.971,735.696 780.523,484.964 856.075,1143.1 931.627,1086.37 1158.28,625.853 1233.83,684.332 
  1309.39,1191.06 1384.94,960.233 1460.49,347.064 1687.14,1217.26 1762.7,923.001 1838.25,898.968 1913.8,282.807 1989.35,827.906 2216.01,780.77 2291.56,512.295 
  
  "/>
<path clip-path="url(#clip910)" d="
M1928.27 397.618 L2280.68 397.618 L2280.68 95.2176 L1928.27 95.2176  Z
  " fill="#ffffff" fill-rule="evenodd" fill-opacity="1"/>
<polyline clip-path="url(#clip910)" style="stroke:#000000; stroke-width:4; stroke-opacity:1; fill:none" points="
  1928.27,397.618 2280.68,397.618 2280.68,95.2176 1928.27,95.2176 1928.27,397.618 
  "/>
<polyline clip-path="url(#clip910)" style="stroke:#009af9; stroke-width:4; stroke-opacity:1; fill:none" points="
  1952.3,155.698 2096.45,155.698 
  "/>
<path clip-path="url(#clip910)" d="M 0 0 M2136.49 141.589 Q2131.4 141.589 2128.39 145.385 Q2125.41 149.181 2125.41 155.732 Q2125.41 162.26 2128.39 166.056 Q2131.4 169.853 2136.49 169.853 Q2141.59 169.853 2144.55 166.056 Q2147.54 162.26 2147.54 155.732 Q2147.54 149.181 2144.55 145.385 Q2141.59 141.589 2136.49 141.589 M2136.49 137.793 Q2143.76 137.793 2148.12 142.677 Q2152.47 147.538 2152.47 155.732 Q2152.47 163.904 2148.12 168.788 Q2143.76 173.649 2136.49 173.649 Q2129.2 173.649 2124.83 168.788 Q2120.48 163.927 2120.48 155.732 Q2120.48 147.538 2124.83 142.677 Q2129.2 137.793 2136.49 137.793 Z" fill="#000000" fill-rule="evenodd" fill-opacity="1" /><path clip-path="url(#clip910)" d="M 0 0 M2161.05 169.089 L2161.05 182.839 L2156.77 182.839 L2156.77 147.052 L2161.05 147.052 L2161.05 150.987 Q2162.4 148.672 2164.43 147.561 Q2166.49 146.427 2169.34 146.427 Q2174.06 146.427 2177 150.177 Q2179.97 153.927 2179.97 160.038 Q2179.97 166.149 2177 169.899 Q2174.06 173.649 2169.34 173.649 Q2166.49 173.649 2164.43 172.538 Q2162.4 171.403 2161.05 169.089 M2175.55 160.038 Q2175.55 155.339 2173.6 152.677 Q2171.68 149.992 2168.3 149.992 Q2164.92 149.992 2162.98 152.677 Q2161.05 155.339 2161.05 160.038 Q2161.05 164.737 2162.98 167.422 Q2164.92 170.084 2168.3 170.084 Q2171.68 170.084 2173.6 167.422 Q2175.55 164.737 2175.55 160.038 Z" fill="#000000" fill-rule="evenodd" fill-opacity="1" /><path clip-path="url(#clip910)" d="M 0 0 M2206.61 158.95 L2206.61 161.033 L2187.03 161.033 Q2187.3 165.431 2189.67 167.746 Q2192.05 170.038 2196.29 170.038 Q2198.74 170.038 2201.03 169.436 Q2203.35 168.834 2205.61 167.63 L2205.61 171.658 Q2203.32 172.63 2200.92 173.14 Q2198.51 173.649 2196.03 173.649 Q2189.83 173.649 2186.19 170.038 Q2182.58 166.427 2182.58 160.269 Q2182.58 153.904 2186.01 150.177 Q2189.46 146.427 2195.29 146.427 Q2200.52 146.427 2203.55 149.806 Q2206.61 153.163 2206.61 158.95 M2202.35 157.7 Q2202.3 154.205 2200.38 152.121 Q2198.49 150.038 2195.34 150.038 Q2191.77 150.038 2189.62 152.052 Q2187.49 154.066 2187.17 157.723 L2202.35 157.7 Z" fill="#000000" fill-rule="evenodd" fill-opacity="1" /><path clip-path="url(#clip910)" d="M 0 0 M2232.63 157.329 L2232.63 172.978 L2228.37 172.978 L2228.37 157.468 Q2228.37 153.788 2226.93 151.959 Q2225.5 150.13 2222.63 150.13 Q2219.18 150.13 2217.19 152.33 Q2215.2 154.529 2215.2 158.325 L2215.2 172.978 L2210.92 172.978 L2210.92 147.052 L2215.2 147.052 L2215.2 151.08 Q2216.73 148.742 2218.79 147.584 Q2220.87 146.427 2223.58 146.427 Q2228.05 146.427 2230.34 149.205 Q2232.63 151.959 2232.63 157.329 Z" fill="#000000" fill-rule="evenodd" fill-opacity="1" /><polyline clip-path="url(#clip910)" style="stroke:#e26f46; stroke-width:4; stroke-opacity:1; fill:none" points="
  1952.3,216.178 2096.45,216.178 
  "/>
<path clip-path="url(#clip910)" d="M 0 0 M2120.48 198.898 L2125.15 198.898 L2125.15 213.064 L2142.14 213.064 L2142.14 198.898 L2146.82 198.898 L2146.82 233.458 L2142.14 233.458 L2142.14 216.999 L2125.15 216.999 L2125.15 233.458 L2120.48 233.458 L2120.48 198.898 Z" fill="#000000" fill-rule="evenodd" fill-opacity="1" /><path clip-path="url(#clip910)" d="M 0 0 M2151.29 207.532 L2155.55 207.532 L2155.55 233.458 L2151.29 233.458 L2151.29 207.532 M2151.29 197.439 L2155.55 197.439 L2155.55 202.833 L2151.29 202.833 L2151.29 197.439 Z" fill="#000000" fill-rule="evenodd" fill-opacity="1" /><path clip-path="url(#clip910)" d="M 0 0 M2177.07 220.194 Q2177.07 215.564 2175.15 213.018 Q2173.25 210.472 2169.8 210.472 Q2166.38 210.472 2164.46 213.018 Q2162.56 215.564 2162.56 220.194 Q2162.56 224.8 2164.46 227.346 Q2166.38 229.893 2169.8 229.893 Q2173.25 229.893 2175.15 227.346 Q2177.07 224.8 2177.07 220.194 M2181.33 230.24 Q2181.33 236.86 2178.39 240.078 Q2175.45 243.319 2169.39 243.319 Q2167.14 243.319 2165.15 242.971 Q2163.16 242.647 2161.29 241.953 L2161.29 237.809 Q2163.16 238.828 2164.99 239.314 Q2166.82 239.8 2168.72 239.8 Q2172.91 239.8 2174.99 237.601 Q2177.07 235.425 2177.07 231.004 L2177.07 228.897 Q2175.75 231.189 2173.69 232.323 Q2171.63 233.458 2168.76 233.458 Q2163.99 233.458 2161.08 229.823 Q2158.16 226.189 2158.16 220.194 Q2158.16 214.175 2161.08 210.541 Q2163.99 206.907 2168.76 206.907 Q2171.63 206.907 2173.69 208.041 Q2175.75 209.175 2177.07 211.467 L2177.07 207.532 L2181.33 207.532 L2181.33 230.24 Z" fill="#000000" fill-rule="evenodd" fill-opacity="1" /><path clip-path="url(#clip910)" d="M 0 0 M2207.35 217.809 L2207.35 233.458 L2203.09 233.458 L2203.09 217.948 Q2203.09 214.268 2201.66 212.439 Q2200.22 210.61 2197.35 210.61 Q2193.9 210.61 2191.91 212.81 Q2189.92 215.009 2189.92 218.805 L2189.92 233.458 L2185.64 233.458 L2185.64 197.439 L2189.92 197.439 L2189.92 211.56 Q2191.45 209.222 2193.51 208.064 Q2195.59 206.907 2198.3 206.907 Q2202.77 206.907 2205.06 209.685 Q2207.35 212.439 2207.35 217.809 Z" fill="#000000" fill-rule="evenodd" fill-opacity="1" /><polyline clip-path="url(#clip910)" style="stroke:#3da44d; stroke-width:4; stroke-opacity:1; fill:none" points="
  1952.3,276.658 2096.45,276.658 
  "/>
<path clip-path="url(#clip910)" d="M 0 0 M2120.48 259.378 L2125.15 259.378 L2125.15 290.002 L2141.98 290.002 L2141.98 293.938 L2120.48 293.938 L2120.48 259.378 Z" fill="#000000" fill-rule="evenodd" fill-opacity="1" /><path clip-path="url(#clip910)" d="M 0 0 M2155.66 270.998 Q2152.24 270.998 2150.24 273.683 Q2148.25 276.345 2148.25 280.998 Q2148.25 285.651 2150.22 288.336 Q2152.21 290.998 2155.66 290.998 Q2159.06 290.998 2161.05 288.313 Q2163.05 285.627 2163.05 280.998 Q2163.05 276.391 2161.05 273.706 Q2159.06 270.998 2155.66 270.998 M2155.66 267.387 Q2161.22 267.387 2164.39 270.998 Q2167.56 274.609 2167.56 280.998 Q2167.56 287.364 2164.39 290.998 Q2161.22 294.609 2155.66 294.609 Q2150.08 294.609 2146.91 290.998 Q2143.76 287.364 2143.76 280.998 Q2143.76 274.609 2146.91 270.998 Q2150.08 267.387 2155.66 267.387 Z" fill="#000000" fill-rule="evenodd" fill-opacity="1" /><path clip-path="url(#clip910)" d="M 0 0 M2169.55 268.012 L2173.81 268.012 L2179.13 288.243 L2184.43 268.012 L2189.46 268.012 L2194.78 288.243 L2200.08 268.012 L2204.34 268.012 L2197.56 293.938 L2192.54 293.938 L2186.96 272.688 L2181.36 293.938 L2176.33 293.938 L2169.55 268.012 Z" fill="#000000" fill-rule="evenodd" fill-opacity="1" /><polyline clip-path="url(#clip910)" style="stroke:#c271d2; stroke-width:4; stroke-opacity:1; fill:none" points="
  1952.3,337.138 2096.45,337.138 
  "/>
<path clip-path="url(#clip910)" d="M 0 0 M2148.35 322.52 L2148.35 327.45 Q2145.99 325.251 2143.3 324.163 Q2140.64 323.075 2137.63 323.075 Q2131.7 323.075 2128.56 326.709 Q2125.41 330.32 2125.41 337.172 Q2125.41 344.001 2128.56 347.635 Q2131.7 351.246 2137.63 351.246 Q2140.64 351.246 2143.3 350.158 Q2145.99 349.07 2148.35 346.871 L2148.35 351.756 Q2145.89 353.422 2143.14 354.256 Q2140.41 355.089 2137.35 355.089 Q2129.5 355.089 2124.99 350.297 Q2120.48 345.482 2120.48 337.172 Q2120.48 328.839 2124.99 324.047 Q2129.5 319.233 2137.35 319.233 Q2140.45 319.233 2143.18 320.066 Q2145.94 320.876 2148.35 322.52 Z" fill="#000000" fill-rule="evenodd" fill-opacity="1" /><path clip-path="url(#clip910)" d="M 0 0 M2152.81 318.399 L2157.07 318.399 L2157.07 354.418 L2152.81 354.418 L2152.81 318.399 Z" fill="#000000" fill-rule="evenodd" fill-opacity="1" /><path clip-path="url(#clip910)" d="M 0 0 M2171.59 331.478 Q2168.16 331.478 2166.17 334.163 Q2164.18 336.825 2164.18 341.478 Q2164.18 346.131 2166.15 348.816 Q2168.14 351.478 2171.59 351.478 Q2174.99 351.478 2176.98 348.793 Q2178.97 346.107 2178.97 341.478 Q2178.97 336.871 2176.98 334.186 Q2174.99 331.478 2171.59 331.478 M2171.59 327.867 Q2177.14 327.867 2180.31 331.478 Q2183.49 335.089 2183.49 341.478 Q2183.49 347.844 2180.31 351.478 Q2177.14 355.089 2171.59 355.089 Q2166.01 355.089 2162.84 351.478 Q2159.69 347.844 2159.69 341.478 Q2159.69 335.089 2162.84 331.478 Q2166.01 327.867 2171.59 327.867 Z" fill="#000000" fill-rule="evenodd" fill-opacity="1" /><path clip-path="url(#clip910)" d="M 0 0 M2204.48 329.256 L2204.48 333.283 Q2202.68 332.357 2200.73 331.895 Q2198.79 331.432 2196.7 331.432 Q2193.53 331.432 2191.93 332.404 Q2190.36 333.376 2190.36 335.32 Q2190.36 336.802 2191.49 337.658 Q2192.63 338.492 2196.05 339.256 L2197.51 339.58 Q2202.05 340.552 2203.95 342.334 Q2205.87 344.094 2205.87 347.265 Q2205.87 350.876 2203 352.982 Q2200.15 355.089 2195.15 355.089 Q2193.07 355.089 2190.8 354.672 Q2188.55 354.279 2186.05 353.468 L2186.05 349.07 Q2188.42 350.297 2190.71 350.922 Q2193 351.524 2195.24 351.524 Q2198.25 351.524 2199.87 350.506 Q2201.49 349.464 2201.49 347.589 Q2201.49 345.853 2200.31 344.927 Q2199.16 344.001 2195.2 343.144 L2193.72 342.797 Q2189.76 341.964 2188 340.251 Q2186.24 338.515 2186.24 335.506 Q2186.24 331.848 2188.83 329.858 Q2191.43 327.867 2196.19 327.867 Q2198.55 327.867 2200.64 328.214 Q2202.72 328.561 2204.48 329.256 Z" fill="#000000" fill-rule="evenodd" fill-opacity="1" /><path clip-path="url(#clip910)" d="M 0 0 M2232.51 340.39 L2232.51 342.473 L2212.93 342.473 Q2213.21 346.871 2215.57 349.186 Q2217.95 351.478 2222.19 351.478 Q2224.64 351.478 2226.93 350.876 Q2229.25 350.274 2231.52 349.07 L2231.52 353.098 Q2229.23 354.07 2226.82 354.58 Q2224.41 355.089 2221.93 355.089 Q2215.73 355.089 2212.1 351.478 Q2208.49 347.867 2208.49 341.709 Q2208.49 335.344 2211.91 331.617 Q2215.36 327.867 2221.19 327.867 Q2226.42 327.867 2229.46 331.246 Q2232.51 334.603 2232.51 340.39 M2228.25 339.14 Q2228.21 335.645 2226.29 333.561 Q2224.39 331.478 2221.24 331.478 Q2217.67 331.478 2215.52 333.492 Q2213.39 335.506 2213.07 339.163 L2228.25 339.14 Z" fill="#000000" fill-rule="evenodd" fill-opacity="1" /></svg>
