<?xml version="1.0" encoding="utf-8"?>
<svg xmlns="http://www.w3.org/2000/svg" xmlns:xlink="http://www.w3.org/1999/xlink" width="600" height="400" viewBox="0 0 2400 1600">
<defs>
  <clipPath id="clip380">
    <rect x="0" y="0" width="2400" height="1600"/>
  </clipPath>
</defs>
<path clip-path="url(#clip380)" d="
M0 1600 L2400 1600 L2400 0 L0 0  Z
  " fill="#ffffff" fill-rule="evenodd" fill-opacity="1"/>
<defs>
  <clipPath id="clip381">
    <rect x="480" y="0" width="1681" height="1600"/>
  </clipPath>
</defs>
<path clip-path="url(#clip380)" d="
M190.464 1350.1 L2352.76 1350.1 L2352.76 47.2441 L190.464 47.2441  Z
  " fill="#ffffff" fill-rule="evenodd" fill-opacity="1"/>
<defs>
  <clipPath id="clip382">
    <rect x="190" y="47" width="2163" height="1304"/>
  </clipPath>
</defs>
<polyline clip-path="url(#clip382)" style="stroke:#000000; stroke-width:2; stroke-opacity:0.1; fill:none" points="
  297.789,1350.1 297.789,47.2441 
  "/>
<polyline clip-path="url(#clip382)" style="stroke:#000000; stroke-width:2; stroke-opacity:0.1; fill:none" points="
  400.297,1350.1 400.297,47.2441 
  "/>
<polyline clip-path="url(#clip382)" style="stroke:#000000; stroke-width:2; stroke-opacity:0.1; fill:none" points="
  502.804,1350.1 502.804,47.2441 
  "/>
<polyline clip-path="url(#clip382)" style="stroke:#000000; stroke-width:2; stroke-opacity:0.1; fill:none" points="
  605.311,1350.1 605.311,47.2441 
  "/>
<polyline clip-path="url(#clip382)" style="stroke:#000000; stroke-width:2; stroke-opacity:0.1; fill:none" points="
  707.819,1350.1 707.819,47.2441 
  "/>
<polyline clip-path="url(#clip382)" style="stroke:#000000; stroke-width:2; stroke-opacity:0.1; fill:none" points="
  810.326,1350.1 810.326,47.2441 
  "/>
<polyline clip-path="url(#clip382)" style="stroke:#000000; stroke-width:2; stroke-opacity:0.1; fill:none" points="
  912.834,1350.1 912.834,47.2441 
  "/>
<polyline clip-path="url(#clip382)" style="stroke:#000000; stroke-width:2; stroke-opacity:0.1; fill:none" points="
  1015.34,1350.1 1015.34,47.2441 
  "/>
<polyline clip-path="url(#clip382)" style="stroke:#000000; stroke-width:2; stroke-opacity:0.1; fill:none" points="
  1117.85,1350.1 1117.85,47.2441 
  "/>
<polyline clip-path="url(#clip382)" style="stroke:#000000; stroke-width:2; stroke-opacity:0.1; fill:none" points="
  1220.36,1350.1 1220.36,47.2441 
  "/>
<polyline clip-path="url(#clip382)" style="stroke:#000000; stroke-width:2; stroke-opacity:0.1; fill:none" points="
  1322.86,1350.1 1322.86,47.2441 
  "/>
<polyline clip-path="url(#clip382)" style="stroke:#000000; stroke-width:2; stroke-opacity:0.1; fill:none" points="
  1425.37,1350.1 1425.37,47.2441 
  "/>
<polyline clip-path="url(#clip382)" style="stroke:#000000; stroke-width:2; stroke-opacity:0.1; fill:none" points="
  1527.88,1350.1 1527.88,47.2441 
  "/>
<polyline clip-path="url(#clip382)" style="stroke:#000000; stroke-width:2; stroke-opacity:0.1; fill:none" points="
  1630.39,1350.1 1630.39,47.2441 
  "/>
<polyline clip-path="url(#clip382)" style="stroke:#000000; stroke-width:2; stroke-opacity:0.1; fill:none" points="
  1732.89,1350.1 1732.89,47.2441 
  "/>
<polyline clip-path="url(#clip382)" style="stroke:#000000; stroke-width:2; stroke-opacity:0.1; fill:none" points="
  1835.4,1350.1 1835.4,47.2441 
  "/>
<polyline clip-path="url(#clip382)" style="stroke:#000000; stroke-width:2; stroke-opacity:0.1; fill:none" points="
  1937.91,1350.1 1937.91,47.2441 
  "/>
<polyline clip-path="url(#clip382)" style="stroke:#000000; stroke-width:2; stroke-opacity:0.1; fill:none" points="
  2040.42,1350.1 2040.42,47.2441 
  "/>
<polyline clip-path="url(#clip382)" style="stroke:#000000; stroke-width:2; stroke-opacity:0.1; fill:none" points="
  2142.92,1350.1 2142.92,47.2441 
  "/>
<polyline clip-path="url(#clip382)" style="stroke:#000000; stroke-width:2; stroke-opacity:0.1; fill:none" points="
  2245.43,1350.1 2245.43,47.2441 
  "/>
<polyline clip-path="url(#clip380)" style="stroke:#000000; stroke-width:4; stroke-opacity:1; fill:none" points="
  190.464,1350.1 2352.76,1350.1 
  "/>
<polyline clip-path="url(#clip380)" style="stroke:#000000; stroke-width:4; stroke-opacity:1; fill:none" points="
  297.789,1350.1 297.789,1334.47 
  "/>
<polyline clip-path="url(#clip380)" style="stroke:#000000; stroke-width:4; stroke-opacity:1; fill:none" points="
  400.297,1350.1 400.297,1334.47 
  "/>
<polyline clip-path="url(#clip380)" style="stroke:#000000; stroke-width:4; stroke-opacity:1; fill:none" points="
  502.804,1350.1 502.804,1334.47 
  "/>
<polyline clip-path="url(#clip380)" style="stroke:#000000; stroke-width:4; stroke-opacity:1; fill:none" points="
  605.311,1350.1 605.311,1334.47 
  "/>
<polyline clip-path="url(#clip380)" style="stroke:#000000; stroke-width:4; stroke-opacity:1; fill:none" points="
  707.819,1350.1 707.819,1334.47 
  "/>
<polyline clip-path="url(#clip380)" style="stroke:#000000; stroke-width:4; stroke-opacity:1; fill:none" points="
  810.326,1350.1 810.326,1334.47 
  "/>
<polyline clip-path="url(#clip380)" style="stroke:#000000; stroke-width:4; stroke-opacity:1; fill:none" points="
  912.834,1350.1 912.834,1334.47 
  "/>
<polyline clip-path="url(#clip380)" style="stroke:#000000; stroke-width:4; stroke-opacity:1; fill:none" points="
  1015.34,1350.1 1015.34,1334.47 
  "/>
<polyline clip-path="url(#clip380)" style="stroke:#000000; stroke-width:4; stroke-opacity:1; fill:none" points="
  1117.85,1350.1 1117.85,1334.47 
  "/>
<polyline clip-path="url(#clip380)" style="stroke:#000000; stroke-width:4; stroke-opacity:1; fill:none" points="
  1220.36,1350.1 1220.36,1334.47 
  "/>
<polyline clip-path="url(#clip380)" style="stroke:#000000; stroke-width:4; stroke-opacity:1; fill:none" points="
  1322.86,1350.1 1322.86,1334.47 
  "/>
<polyline clip-path="url(#clip380)" style="stroke:#000000; stroke-width:4; stroke-opacity:1; fill:none" points="
  1425.37,1350.1 1425.37,1334.47 
  "/>
<polyline clip-path="url(#clip380)" style="stroke:#000000; stroke-width:4; stroke-opacity:1; fill:none" points="
  1527.88,1350.1 1527.88,1334.47 
  "/>
<polyline clip-path="url(#clip380)" style="stroke:#000000; stroke-width:4; stroke-opacity:1; fill:none" points="
  1630.39,1350.1 1630.39,1334.47 
  "/>
<polyline clip-path="url(#clip380)" style="stroke:#000000; stroke-width:4; stroke-opacity:1; fill:none" points="
  1732.89,1350.1 1732.89,1334.47 
  "/>
<polyline clip-path="url(#clip380)" style="stroke:#000000; stroke-width:4; stroke-opacity:1; fill:none" points="
  1835.4,1350.1 1835.4,1334.47 
  "/>
<polyline clip-path="url(#clip380)" style="stroke:#000000; stroke-width:4; stroke-opacity:1; fill:none" points="
  1937.91,1350.1 1937.91,1334.47 
  "/>
<polyline clip-path="url(#clip380)" style="stroke:#000000; stroke-width:4; stroke-opacity:1; fill:none" points="
  2040.42,1350.1 2040.42,1334.47 
  "/>
<polyline clip-path="url(#clip380)" style="stroke:#000000; stroke-width:4; stroke-opacity:1; fill:none" points="
  2142.92,1350.1 2142.92,1334.47 
  "/>
<polyline clip-path="url(#clip380)" style="stroke:#000000; stroke-width:4; stroke-opacity:1; fill:none" points="
  2245.43,1350.1 2245.43,1334.47 
  "/>
<path clip-path="url(#clip380)" d="M 0 0 M216.073 1585.91 L224.233 1571.78 L227.641 1573.75 L216.668 1592.75 L213.261 1590.78 Q212.206 1587.1 210.488 1580.82 Q208.762 1574.5 208.19 1572.81 Q207.127 1569.6 206.064 1567.97 Q204.991 1566.31 203.528 1565.47 Q201.142 1564.09 198.667 1564.9 Q196.203 1565.7 194.652 1568.39 Q193.552 1570.29 192.987 1572.8 Q192.433 1575.28 192.387 1578.47 L188.298 1576.1 Q188.727 1573.09 189.453 1570.68 Q190.179 1568.26 191.197 1566.5 Q193.883 1561.85 197.805 1560.42 Q201.728 1559 205.617 1561.25 Q207.461 1562.31 208.72 1563.97 Q209.97 1565.6 211.162 1568.72 Q211.454 1569.56 212.69 1573.86 Q213.905 1578.14 216.073 1585.91 Z" fill="#000000" fill-rule="evenodd" fill-opacity="1" /><path clip-path="url(#clip380)" d="M 0 0 M207.912 1544.96 Q206.106 1548.08 208.279 1551.45 Q210.443 1554.78 216.618 1558.35 Q222.772 1561.9 226.762 1562.12 Q230.744 1562.31 232.549 1559.18 Q234.366 1556.03 232.202 1552.7 Q230.029 1549.33 223.875 1545.78 Q217.7 1542.22 213.719 1542.03 Q209.729 1541.81 207.912 1544.96 M204.704 1543.1 Q207.609 1538.07 213.126 1537.73 Q218.635 1537.36 226.213 1541.73 Q233.77 1546.09 236.22 1551.06 Q238.662 1556 235.757 1561.03 Q232.852 1566.06 227.343 1566.44 Q221.826 1566.78 214.268 1562.42 Q206.691 1558.04 204.249 1553.11 Q201.799 1548.14 204.704 1543.1 Z" fill="#000000" fill-rule="evenodd" fill-opacity="1" /><path clip-path="url(#clip380)" d="M 0 0 M242.288 1540.51 L250.448 1526.37 L253.856 1528.34 L242.884 1547.35 L239.476 1545.38 Q238.421 1541.7 236.703 1535.41 Q234.977 1529.1 234.405 1527.4 Q233.342 1524.2 232.279 1522.57 Q231.207 1520.91 229.743 1520.06 Q227.358 1518.68 224.882 1519.5 Q222.418 1520.29 220.867 1522.98 Q219.767 1524.89 219.202 1527.39 Q218.648 1529.88 218.602 1533.06 L214.513 1530.7 Q214.943 1527.69 215.668 1525.27 Q216.394 1522.86 217.412 1521.09 Q220.098 1516.44 224.02 1515.02 Q227.943 1513.59 231.832 1515.84 Q233.676 1516.9 234.935 1518.57 Q236.185 1520.2 237.377 1523.32 Q237.669 1524.16 238.905 1528.45 Q240.121 1532.73 242.288 1540.51 Z" fill="#000000" fill-rule="evenodd" fill-opacity="1" /><path clip-path="url(#clip380)" d="M 0 0 M253.388 1521.28 L257.207 1514.67 L234.374 1501.48 L231.662 1509.51 L227.973 1507.38 L230.662 1499.39 L233 1495.35 L259.522 1510.66 L263.341 1504.04 L266.749 1506.01 L256.796 1523.25 L253.388 1521.28 Z" fill="#000000" fill-rule="evenodd" fill-opacity="1" /><path clip-path="url(#clip380)" d="M 0 0 M255.017 1496.56 L261.255 1485.76 L264.543 1487.66 L258.304 1498.46 L255.017 1496.56 Z" fill="#000000" fill-rule="evenodd" fill-opacity="1" /><path clip-path="url(#clip380)" d="M 0 0 M254.416 1464.41 Q252.611 1467.54 254.783 1470.9 Q256.948 1474.24 263.122 1477.8 Q269.277 1481.35 273.267 1481.57 Q277.248 1481.76 279.054 1478.63 Q280.871 1475.49 278.706 1472.15 Q276.533 1468.79 270.379 1465.23 Q264.205 1461.67 260.223 1461.48 Q256.233 1461.26 254.416 1464.41 M251.209 1462.56 Q254.114 1457.53 259.631 1457.18 Q265.139 1456.81 272.717 1461.18 Q280.275 1465.55 282.725 1470.52 Q285.166 1475.45 282.261 1480.48 Q279.356 1485.52 273.847 1485.89 Q268.33 1486.23 260.773 1481.87 Q253.195 1477.5 250.754 1472.56 Q248.304 1467.59 251.209 1462.56 Z" fill="#000000" fill-rule="evenodd" fill-opacity="1" /><path clip-path="url(#clip380)" d="M 0 0 M288.793 1459.96 L296.952 1445.83 L300.36 1447.79 L289.388 1466.8 L285.98 1464.83 Q284.925 1461.15 283.208 1454.86 Q281.482 1448.55 280.909 1446.85 Q279.847 1443.65 278.783 1442.02 Q277.711 1440.36 276.247 1439.51 Q273.862 1438.13 271.386 1438.95 Q268.922 1439.75 267.371 1442.43 Q266.272 1444.34 265.706 1446.84 Q265.153 1449.33 265.107 1452.51 L261.017 1450.15 Q261.447 1447.14 262.173 1444.72 Q262.898 1442.31 263.917 1440.55 Q266.602 1435.89 270.525 1434.47 Q274.447 1433.05 278.336 1435.29 Q280.181 1436.36 281.439 1438.02 Q282.69 1439.65 283.882 1442.77 Q284.174 1443.61 285.409 1447.9 Q286.625 1452.19 288.793 1459.96 Z" fill="#000000" fill-rule="evenodd" fill-opacity="1" /><path clip-path="url(#clip380)" d="M 0 0 M288.627 1438.35 L294.866 1427.54 L298.154 1429.44 L291.915 1440.25 L288.627 1438.35 Z" fill="#000000" fill-rule="evenodd" fill-opacity="1" /><path clip-path="url(#clip380)" d="M 0 0 M307.288 1427.92 L311.107 1421.31 L288.274 1408.13 L285.562 1416.16 L281.874 1414.03 L284.562 1406.04 L286.9 1401.99 L313.422 1417.3 L317.241 1410.68 L320.649 1412.65 L310.696 1429.89 L307.288 1427.92 Z" fill="#000000" fill-rule="evenodd" fill-opacity="1" /><path clip-path="url(#clip380)" d="M 0 0 M292.664 1392 L303.775 1372.76 L305.499 1373.75 L327.432 1400.9 L324.99 1405.13 L304.371 1379.6 L296.072 1393.97 L292.664 1392 Z" fill="#000000" fill-rule="evenodd" fill-opacity="1" /><path clip-path="url(#clip380)" d="M 0 0 M524.128 1584.99 L532.287 1570.86 L535.695 1572.83 L524.723 1591.83 L521.315 1589.86 Q520.261 1586.18 518.543 1579.9 Q516.817 1573.58 516.244 1571.89 Q515.182 1568.68 514.118 1567.05 Q513.046 1565.39 511.583 1564.54 Q509.197 1563.17 506.721 1563.98 Q504.257 1564.78 502.706 1567.46 Q501.607 1569.37 501.042 1571.88 Q500.488 1574.36 500.442 1577.54 L496.353 1575.18 Q496.782 1572.17 497.508 1569.76 Q498.234 1567.34 499.252 1565.58 Q501.937 1560.93 505.86 1559.5 Q509.783 1558.08 513.672 1560.32 Q515.516 1561.39 516.775 1563.05 Q518.025 1564.68 519.217 1567.8 Q519.509 1568.64 520.745 1572.93 Q521.96 1577.22 524.128 1584.99 Z" fill="#000000" fill-rule="evenodd" fill-opacity="1" /><path clip-path="url(#clip380)" d="M 0 0 M515.966 1544.03 Q514.161 1547.16 516.334 1550.53 Q518.498 1553.86 524.673 1557.43 Q530.827 1560.98 534.817 1561.2 Q538.798 1561.39 540.604 1558.26 Q542.421 1555.11 540.257 1551.78 Q538.084 1548.41 531.929 1544.86 Q525.755 1541.29 521.774 1541.11 Q517.784 1540.89 515.966 1544.03 M512.759 1542.18 Q515.664 1537.15 521.181 1536.81 Q526.69 1536.43 534.267 1540.81 Q541.825 1545.17 544.275 1550.14 Q546.717 1555.08 543.811 1560.11 Q540.906 1565.14 535.398 1565.52 Q529.881 1565.86 522.323 1561.5 Q514.745 1557.12 512.304 1552.18 Q509.854 1547.21 512.759 1542.18 Z" fill="#000000" fill-rule="evenodd" fill-opacity="1" /><path clip-path="url(#clip380)" d="M 0 0 M550.343 1539.59 L558.503 1525.45 L561.911 1527.42 L550.938 1546.42 L547.53 1544.46 Q546.476 1540.77 544.758 1534.49 Q543.032 1528.17 542.46 1526.48 Q541.397 1523.27 540.333 1521.64 Q539.261 1519.98 537.798 1519.14 Q535.412 1517.76 532.937 1518.58 Q530.472 1519.37 528.921 1522.06 Q527.822 1523.96 527.257 1526.47 Q526.703 1528.96 526.657 1532.14 L522.568 1529.78 Q522.997 1526.76 523.723 1524.35 Q524.449 1521.94 525.467 1520.17 Q528.152 1515.52 532.075 1514.1 Q535.998 1512.67 539.887 1514.92 Q541.731 1515.98 542.99 1517.65 Q544.24 1519.28 545.432 1522.4 Q545.724 1523.23 546.96 1527.53 Q548.175 1531.81 550.343 1539.59 Z" fill="#000000" fill-rule="evenodd" fill-opacity="1" /><path clip-path="url(#clip380)" d="M 0 0 M561.442 1520.36 L565.262 1513.74 L542.429 1500.56 L539.717 1508.59 L536.028 1506.46 L538.717 1498.47 L541.055 1494.42 L567.577 1509.74 L571.396 1503.12 L574.804 1505.09 L564.85 1522.33 L561.442 1520.36 Z" fill="#000000" fill-rule="evenodd" fill-opacity="1" /><path clip-path="url(#clip380)" d="M 0 0 M563.071 1495.64 L569.31 1484.84 L572.597 1486.73 L566.359 1497.54 L563.071 1495.64 Z" fill="#000000" fill-rule="evenodd" fill-opacity="1" /><path clip-path="url(#clip380)" d="M 0 0 M562.471 1463.49 Q560.665 1466.61 562.838 1469.98 Q565.003 1473.31 571.177 1476.88 Q577.331 1480.43 581.321 1480.65 Q585.303 1480.84 587.108 1477.71 Q588.925 1474.56 586.761 1471.23 Q584.588 1467.86 578.434 1464.31 Q572.259 1460.75 568.278 1460.56 Q564.288 1460.34 562.471 1463.49 M559.263 1461.63 Q562.168 1456.6 567.686 1456.26 Q573.194 1455.89 580.772 1460.26 Q588.329 1464.62 590.779 1469.59 Q593.221 1474.53 590.316 1479.56 Q587.411 1484.59 581.902 1484.97 Q576.385 1485.31 568.827 1480.95 Q561.25 1476.57 558.808 1471.64 Q556.358 1466.67 559.263 1461.63 Z" fill="#000000" fill-rule="evenodd" fill-opacity="1" /><path clip-path="url(#clip380)" d="M 0 0 M596.847 1459.04 L605.007 1444.9 L608.415 1446.87 L597.443 1465.88 L594.035 1463.91 Q592.98 1460.23 591.263 1453.94 Q589.536 1447.63 588.964 1445.93 Q587.902 1442.73 586.838 1441.1 Q585.766 1439.43 584.302 1438.59 Q581.917 1437.21 579.441 1438.03 Q576.977 1438.82 575.426 1441.51 Q574.326 1443.42 573.761 1445.92 Q573.207 1448.41 573.162 1451.59 L569.072 1449.23 Q569.502 1446.22 570.227 1443.8 Q570.953 1441.39 571.972 1439.62 Q574.657 1434.97 578.579 1433.55 Q582.502 1432.12 586.391 1434.37 Q588.235 1435.43 589.494 1437.1 Q590.745 1438.73 591.937 1441.85 Q592.229 1442.69 593.464 1446.98 Q594.68 1451.26 596.847 1459.04 Z" fill="#000000" fill-rule="evenodd" fill-opacity="1" /><path clip-path="url(#clip380)" d="M 0 0 M596.682 1437.42 L602.921 1426.62 L606.208 1428.52 L599.97 1439.32 L596.682 1437.42 Z" fill="#000000" fill-rule="evenodd" fill-opacity="1" /><path clip-path="url(#clip380)" d="M 0 0 M616.951 1424.22 L625.111 1410.08 L628.519 1412.05 L617.547 1431.05 L614.139 1429.09 Q613.084 1425.4 611.367 1419.12 Q609.64 1412.8 609.068 1411.11 Q608.006 1407.9 606.942 1406.28 Q605.87 1404.61 604.406 1403.77 Q602.021 1402.39 599.545 1403.21 Q597.081 1404 595.53 1406.69 Q594.43 1408.59 593.865 1411.1 Q593.311 1413.59 593.266 1416.77 L589.176 1414.41 Q589.606 1411.39 590.331 1408.98 Q591.057 1406.57 592.076 1404.8 Q594.761 1400.15 598.683 1398.73 Q602.606 1397.3 606.495 1399.55 Q608.34 1400.61 609.598 1402.28 Q610.849 1403.91 612.041 1407.03 Q612.333 1407.86 613.568 1412.16 Q614.784 1416.44 616.951 1424.22 Z" fill="#000000" fill-rule="evenodd" fill-opacity="1" /><path clip-path="url(#clip380)" d="M 0 0 M629.66 1402.2 L637.819 1388.07 L641.227 1390.04 L630.255 1409.04 L626.847 1407.08 Q625.793 1403.39 624.075 1397.11 Q622.349 1390.79 621.776 1389.1 Q620.714 1385.89 619.65 1384.26 Q618.578 1382.6 617.115 1381.76 Q614.729 1380.38 612.253 1381.2 Q609.789 1381.99 608.238 1384.68 Q607.139 1386.58 606.573 1389.09 Q606.02 1391.58 605.974 1394.76 L601.884 1392.4 Q602.314 1389.38 603.04 1386.97 Q603.765 1384.55 604.784 1382.79 Q607.469 1378.14 611.392 1376.72 Q615.314 1375.29 619.203 1377.54 Q621.048 1378.6 622.307 1380.26 Q623.557 1381.9 624.749 1385.02 Q625.041 1385.85 626.276 1390.15 Q627.492 1394.43 629.66 1402.2 Z" fill="#000000" fill-rule="evenodd" fill-opacity="1" /><path clip-path="url(#clip380)" d="M 0 0 M831.349 1585.51 L839.509 1571.38 L842.917 1573.35 L831.945 1592.35 L828.537 1590.38 Q827.482 1586.7 825.764 1580.42 Q824.038 1574.1 823.466 1572.41 Q822.403 1569.2 821.34 1567.57 Q820.268 1565.91 818.804 1565.07 Q816.419 1563.69 813.943 1564.5 Q811.479 1565.3 809.928 1567.99 Q808.828 1569.89 808.263 1572.4 Q807.709 1574.88 807.663 1578.07 L803.574 1575.7 Q804.004 1572.69 804.729 1570.28 Q805.455 1567.86 806.474 1566.1 Q809.159 1561.45 813.081 1560.02 Q817.004 1558.6 820.893 1560.85 Q822.737 1561.91 823.996 1563.57 Q825.246 1565.2 826.438 1568.32 Q826.73 1569.16 827.966 1573.46 Q829.182 1577.74 831.349 1585.51 Z" fill="#000000" fill-rule="evenodd" fill-opacity="1" /><path clip-path="url(#clip380)" d="M 0 0 M823.188 1544.56 Q821.382 1547.68 823.555 1551.05 Q825.72 1554.38 831.894 1557.95 Q838.048 1561.5 842.038 1561.72 Q846.02 1561.91 847.825 1558.78 Q849.642 1555.63 847.478 1552.3 Q845.305 1548.93 839.151 1545.38 Q832.976 1541.81 828.995 1541.63 Q825.005 1541.41 823.188 1544.56 M819.98 1542.7 Q822.885 1537.67 828.403 1537.33 Q833.911 1536.95 841.489 1541.33 Q849.046 1545.69 851.496 1550.66 Q853.938 1555.6 851.033 1560.63 Q848.128 1565.66 842.619 1566.04 Q837.102 1566.38 829.544 1562.02 Q821.967 1557.64 819.525 1552.71 Q817.075 1547.74 819.98 1542.7 Z" fill="#000000" fill-rule="evenodd" fill-opacity="1" /><path clip-path="url(#clip380)" d="M 0 0 M857.564 1540.11 L865.724 1525.97 L869.132 1527.94 L858.16 1546.95 L854.752 1544.98 Q853.697 1541.29 851.98 1535.01 Q850.253 1528.7 849.681 1527 Q848.619 1523.8 847.555 1522.17 Q846.483 1520.5 845.019 1519.66 Q842.634 1518.28 840.158 1519.1 Q837.694 1519.89 836.143 1522.58 Q835.043 1524.48 834.478 1526.99 Q833.924 1529.48 833.879 1532.66 L829.789 1530.3 Q830.219 1527.29 830.944 1524.87 Q831.67 1522.46 832.689 1520.69 Q835.374 1516.04 839.296 1514.62 Q843.219 1513.19 847.108 1515.44 Q848.952 1516.5 850.211 1518.17 Q851.462 1519.8 852.654 1522.92 Q852.946 1523.75 854.181 1528.05 Q855.397 1532.33 857.564 1540.11 Z" fill="#000000" fill-rule="evenodd" fill-opacity="1" /><path clip-path="url(#clip380)" d="M 0 0 M868.664 1520.88 L872.483 1514.27 L849.65 1501.08 L846.938 1509.11 L843.25 1506.98 L845.938 1498.99 L848.276 1494.94 L874.798 1510.26 L878.617 1503.64 L882.025 1505.61 L872.072 1522.85 L868.664 1520.88 Z" fill="#000000" fill-rule="evenodd" fill-opacity="1" /><path clip-path="url(#clip380)" d="M 0 0 M870.293 1496.16 L876.531 1485.36 L879.819 1487.25 L873.58 1498.06 L870.293 1496.16 Z" fill="#000000" fill-rule="evenodd" fill-opacity="1" /><path clip-path="url(#clip380)" d="M 0 0 M869.692 1464.01 Q867.887 1467.14 870.06 1470.5 Q872.224 1473.84 878.398 1477.4 Q884.553 1480.95 888.543 1481.17 Q892.524 1481.36 894.33 1478.23 Q896.147 1475.08 893.982 1471.75 Q891.81 1468.38 885.655 1464.83 Q879.481 1461.27 875.499 1461.08 Q871.509 1460.86 869.692 1464.01 M866.485 1462.16 Q869.39 1457.12 874.907 1456.78 Q880.416 1456.41 887.993 1460.78 Q895.551 1465.15 898.001 1470.11 Q900.442 1475.05 897.537 1480.08 Q894.632 1485.12 889.124 1485.49 Q883.606 1485.83 876.049 1481.47 Q868.471 1477.09 866.03 1472.16 Q863.58 1467.19 866.485 1462.16 Z" fill="#000000" fill-rule="evenodd" fill-opacity="1" /><path clip-path="url(#clip380)" d="M 0 0 M904.069 1459.56 L912.228 1445.43 L915.636 1447.39 L904.664 1466.4 L901.256 1464.43 Q900.202 1460.75 898.484 1454.46 Q896.758 1448.15 896.185 1446.45 Q895.123 1443.25 894.059 1441.62 Q892.987 1439.96 891.524 1439.11 Q889.138 1437.73 886.662 1438.55 Q884.198 1439.35 882.647 1442.03 Q881.548 1443.94 880.982 1446.44 Q880.429 1448.93 880.383 1452.11 L876.293 1449.75 Q876.723 1446.74 877.449 1444.32 Q878.175 1441.91 879.193 1440.14 Q881.878 1435.49 885.801 1434.07 Q889.723 1432.65 893.613 1434.89 Q895.457 1435.96 896.716 1437.62 Q897.966 1439.25 899.158 1442.37 Q899.45 1443.21 900.686 1447.5 Q901.901 1451.78 904.069 1459.56 Z" fill="#000000" fill-rule="evenodd" fill-opacity="1" /><path clip-path="url(#clip380)" d="M 0 0 M903.904 1437.95 L910.142 1427.14 L913.43 1429.04 L907.191 1439.84 L903.904 1437.95 Z" fill="#000000" fill-rule="evenodd" fill-opacity="1" /><path clip-path="url(#clip380)" d="M 0 0 M924.173 1424.74 L932.332 1410.6 L935.74 1412.57 L924.768 1431.58 L921.36 1429.61 Q920.306 1425.93 918.588 1419.64 Q916.862 1413.33 916.289 1411.63 Q915.227 1408.43 914.163 1406.8 Q913.091 1405.13 911.628 1404.29 Q909.242 1402.91 906.766 1403.73 Q904.302 1404.52 902.751 1407.21 Q901.652 1409.12 901.087 1411.62 Q900.533 1414.11 900.487 1417.29 L896.398 1414.93 Q896.827 1411.92 897.553 1409.5 Q898.279 1407.09 899.297 1405.32 Q901.982 1400.67 905.905 1399.25 Q909.828 1397.82 913.717 1400.07 Q915.561 1401.13 916.82 1402.8 Q918.07 1404.43 919.262 1407.55 Q919.554 1408.39 920.79 1412.68 Q922.005 1416.96 924.173 1424.74 Z" fill="#000000" fill-rule="evenodd" fill-opacity="1" /><path clip-path="url(#clip380)" d="M 0 0 M908.368 1390.86 L917.547 1374.96 L920.955 1376.93 L913.918 1389.12 L921.255 1393.36 Q921.463 1392.3 921.832 1391.34 Q922.181 1390.36 922.69 1389.48 Q925.584 1384.47 930.02 1383.13 Q934.456 1381.79 939.147 1384.5 Q943.978 1387.28 944.929 1391.84 Q945.859 1396.39 942.699 1401.86 Q941.611 1403.75 940.156 1405.53 Q938.713 1407.28 936.867 1409 L932.798 1406.65 Q934.822 1405.41 936.414 1403.77 Q938.006 1402.12 939.245 1399.97 Q941.247 1396.51 940.592 1393.43 Q939.937 1390.35 936.809 1388.54 Q933.682 1386.74 930.689 1387.71 Q927.695 1388.68 925.693 1392.15 Q924.756 1393.77 924.179 1395.61 Q923.614 1397.42 923.403 1399.54 L908.368 1390.86 Z" fill="#000000" fill-rule="evenodd" fill-opacity="1" /><path clip-path="url(#clip380)" d="M 0 0 M1137.9 1587.2 L1146.06 1573.06 L1149.47 1575.03 L1138.49 1594.04 L1135.09 1592.07 Q1134.03 1588.38 1132.31 1582.1 Q1130.59 1575.79 1130.02 1574.09 Q1128.95 1570.89 1127.89 1569.26 Q1126.82 1567.59 1125.35 1566.75 Q1122.97 1565.37 1120.49 1566.19 Q1118.03 1566.98 1116.48 1569.67 Q1115.38 1571.57 1114.81 1574.08 Q1114.26 1576.57 1114.21 1579.75 L1110.12 1577.39 Q1110.55 1574.38 1111.28 1571.96 Q1112.01 1569.55 1113.02 1567.78 Q1115.71 1563.13 1119.63 1561.71 Q1123.55 1560.28 1127.44 1562.53 Q1129.29 1563.59 1130.55 1565.26 Q1131.8 1566.89 1132.99 1570.01 Q1133.28 1570.84 1134.52 1575.14 Q1135.73 1579.42 1137.9 1587.2 Z" fill="#000000" fill-rule="evenodd" fill-opacity="1" /><path clip-path="url(#clip380)" d="M 0 0 M1129.74 1546.24 Q1127.93 1549.37 1130.11 1552.73 Q1132.27 1556.07 1138.44 1559.63 Q1144.6 1563.19 1148.59 1563.4 Q1152.57 1563.59 1154.38 1560.46 Q1156.19 1557.32 1154.03 1553.98 Q1151.86 1550.62 1145.7 1547.06 Q1139.53 1543.5 1135.55 1543.31 Q1131.56 1543.09 1129.74 1546.24 M1126.53 1544.39 Q1129.44 1539.36 1134.95 1539.01 Q1140.46 1538.64 1148.04 1543.01 Q1155.6 1547.38 1158.05 1552.35 Q1160.49 1557.28 1157.58 1562.32 Q1154.68 1567.35 1149.17 1567.72 Q1143.65 1568.07 1136.09 1563.7 Q1128.52 1559.33 1126.08 1554.39 Q1123.63 1549.42 1126.53 1544.39 Z" fill="#000000" fill-rule="evenodd" fill-opacity="1" /><path clip-path="url(#clip380)" d="M 0 0 M1164.11 1541.79 L1172.27 1527.66 L1175.68 1529.62 L1164.71 1548.63 L1161.3 1546.66 Q1160.25 1542.98 1158.53 1536.69 Q1156.8 1530.38 1156.23 1528.69 Q1155.17 1525.48 1154.1 1523.85 Q1153.03 1522.19 1151.57 1521.34 Q1149.18 1519.97 1146.71 1520.78 Q1144.24 1521.58 1142.69 1524.26 Q1141.59 1526.17 1141.03 1528.68 Q1140.47 1531.16 1140.43 1534.34 L1136.34 1531.98 Q1136.77 1528.97 1137.49 1526.55 Q1138.22 1524.14 1139.24 1522.38 Q1141.92 1517.73 1145.85 1516.3 Q1149.77 1514.88 1153.66 1517.12 Q1155.5 1518.19 1156.76 1519.85 Q1158.01 1521.48 1159.2 1524.6 Q1159.5 1525.44 1160.73 1529.73 Q1161.95 1534.02 1164.11 1541.79 Z" fill="#000000" fill-rule="evenodd" fill-opacity="1" /><path clip-path="url(#clip380)" d="M 0 0 M1175.21 1522.57 L1179.03 1515.95 L1156.2 1502.77 L1153.49 1510.8 L1149.8 1508.67 L1152.49 1500.68 L1154.83 1496.63 L1181.35 1511.94 L1185.17 1505.33 L1188.58 1507.29 L1178.62 1524.53 L1175.21 1522.57 Z" fill="#000000" fill-rule="evenodd" fill-opacity="1" /><path clip-path="url(#clip380)" d="M 0 0 M1176.84 1497.85 L1183.08 1487.04 L1186.37 1488.94 L1180.13 1499.74 L1176.84 1497.85 Z" fill="#000000" fill-rule="evenodd" fill-opacity="1" /><path clip-path="url(#clip380)" d="M 0 0 M1176.24 1465.69 Q1174.44 1468.82 1176.61 1472.19 Q1178.77 1475.52 1184.95 1479.08 Q1191.1 1482.64 1195.09 1482.86 Q1199.07 1483.04 1200.88 1479.92 Q1202.7 1476.77 1200.53 1473.43 Q1198.36 1470.07 1192.21 1466.51 Q1186.03 1462.95 1182.05 1462.76 Q1178.06 1462.54 1176.24 1465.69 M1173.03 1463.84 Q1175.94 1458.81 1181.46 1458.47 Q1186.97 1458.09 1194.54 1462.47 Q1202.1 1466.83 1204.55 1471.8 Q1206.99 1476.74 1204.09 1481.77 Q1201.18 1486.8 1195.67 1487.17 Q1190.16 1487.52 1182.6 1483.15 Q1175.02 1478.78 1172.58 1473.84 Q1170.13 1468.87 1173.03 1463.84 Z" fill="#000000" fill-rule="evenodd" fill-opacity="1" /><path clip-path="url(#clip380)" d="M 0 0 M1202.96 1445.11 Q1205.26 1442.56 1208.16 1442.07 Q1211.07 1441.57 1213.96 1443.23 Q1218.39 1445.79 1219.06 1450.24 Q1219.72 1454.68 1216.48 1460.3 Q1215.4 1462.18 1213.86 1463.97 Q1212.35 1465.74 1210.38 1467.44 L1206.47 1465.18 Q1208.43 1464.07 1210.09 1462.35 Q1211.74 1460.64 1213.01 1458.45 Q1215.2 1454.64 1214.85 1451.79 Q1214.5 1448.92 1211.63 1447.26 Q1208.99 1445.73 1206.43 1446.74 Q1203.86 1447.72 1201.95 1451.03 L1199.94 1454.51 L1196.61 1452.59 L1198.72 1448.94 Q1200.44 1445.96 1200.17 1443.69 Q1199.88 1441.41 1197.64 1440.12 Q1195.33 1438.78 1193.16 1439.72 Q1190.98 1440.63 1189.22 1443.68 Q1188.26 1445.34 1187.52 1447.45 Q1186.78 1449.57 1186.22 1452.29 L1182.62 1450.21 Q1183.31 1447.53 1184.14 1445.34 Q1184.99 1443.13 1186.02 1441.35 Q1188.68 1436.74 1192.34 1435.27 Q1195.97 1433.78 1199.54 1435.84 Q1202.03 1437.28 1202.93 1439.7 Q1203.81 1442.1 1202.96 1445.11 Z" fill="#000000" fill-rule="evenodd" fill-opacity="1" /><path clip-path="url(#clip380)" d="M 0 0 M1210.93 1438.81 L1217.17 1428 L1220.45 1429.9 L1214.22 1440.71 L1210.93 1438.81 Z" fill="#000000" fill-rule="evenodd" fill-opacity="1" /><path clip-path="url(#clip380)" d="M 0 0 M1210.33 1406.65 Q1208.52 1409.78 1210.7 1413.15 Q1212.86 1416.48 1219.03 1420.05 Q1225.19 1423.6 1229.18 1423.82 Q1233.16 1424.01 1234.97 1420.88 Q1236.78 1417.73 1234.62 1414.4 Q1232.45 1411.03 1226.29 1407.48 Q1220.12 1403.91 1216.13 1403.73 Q1212.14 1403.51 1210.33 1406.65 M1207.12 1404.8 Q1210.03 1399.77 1215.54 1399.43 Q1221.05 1399.05 1228.63 1403.43 Q1236.19 1407.79 1238.64 1412.76 Q1241.08 1417.7 1238.17 1422.73 Q1235.27 1427.76 1229.76 1428.14 Q1224.24 1428.48 1216.68 1424.12 Q1209.11 1419.74 1206.67 1414.8 Q1204.22 1409.83 1207.12 1404.8 Z" fill="#000000" fill-rule="evenodd" fill-opacity="1" /><path clip-path="url(#clip380)" d="M 0 0 M1244.7 1402.2 L1252.86 1388.07 L1256.27 1390.04 L1245.3 1409.04 L1241.89 1407.08 Q1240.84 1403.39 1239.12 1397.11 Q1237.39 1390.79 1236.82 1389.1 Q1235.76 1385.89 1234.69 1384.26 Q1233.62 1382.6 1232.16 1381.76 Q1229.77 1380.38 1227.3 1381.2 Q1224.83 1381.99 1223.28 1384.68 Q1222.18 1386.58 1221.62 1389.09 Q1221.06 1391.58 1221.02 1394.76 L1216.93 1392.4 Q1217.36 1389.38 1218.08 1386.97 Q1218.81 1384.55 1219.83 1382.79 Q1222.51 1378.14 1226.44 1376.72 Q1230.36 1375.29 1234.25 1377.54 Q1236.09 1378.6 1237.35 1380.26 Q1238.6 1381.9 1239.79 1385.02 Q1240.09 1385.85 1241.32 1390.15 Q1242.54 1394.43 1244.7 1402.2 Z" fill="#000000" fill-rule="evenodd" fill-opacity="1" /><path clip-path="url(#clip380)" d="M 0 0 M1445.12 1587.72 L1453.28 1573.58 L1456.69 1575.55 L1445.72 1594.56 L1442.31 1592.59 Q1441.25 1588.91 1439.54 1582.62 Q1437.81 1576.31 1437.24 1574.61 Q1436.17 1571.41 1435.11 1569.78 Q1434.04 1568.12 1432.58 1567.27 Q1430.19 1565.89 1427.71 1566.71 Q1425.25 1567.5 1423.7 1570.19 Q1422.6 1572.1 1422.03 1574.6 Q1421.48 1577.09 1421.44 1580.27 L1417.35 1577.91 Q1417.78 1574.9 1418.5 1572.48 Q1419.23 1570.07 1420.25 1568.3 Q1422.93 1563.65 1426.85 1562.23 Q1430.78 1560.8 1434.66 1563.05 Q1436.51 1564.12 1437.77 1565.78 Q1439.02 1567.41 1440.21 1570.53 Q1440.5 1571.37 1441.74 1575.66 Q1442.95 1579.94 1445.12 1587.72 Z" fill="#000000" fill-rule="evenodd" fill-opacity="1" /><path clip-path="url(#clip380)" d="M 0 0 M1436.96 1546.76 Q1435.15 1549.89 1437.33 1553.25 Q1439.49 1556.59 1445.67 1560.15 Q1451.82 1563.71 1455.81 1563.93 Q1459.79 1564.11 1461.6 1560.99 Q1463.41 1557.84 1461.25 1554.5 Q1459.08 1551.14 1452.92 1547.58 Q1446.75 1544.02 1442.77 1543.83 Q1438.78 1543.61 1436.96 1546.76 M1433.75 1544.91 Q1436.66 1539.88 1442.17 1539.53 Q1447.68 1539.16 1455.26 1543.53 Q1462.82 1547.9 1465.27 1552.87 Q1467.71 1557.81 1464.8 1562.84 Q1461.9 1567.87 1456.39 1568.24 Q1450.87 1568.59 1443.32 1564.22 Q1435.74 1559.85 1433.3 1554.91 Q1430.85 1549.94 1433.75 1544.91 Z" fill="#000000" fill-rule="evenodd" fill-opacity="1" /><path clip-path="url(#clip380)" d="M 0 0 M1471.34 1542.31 L1479.5 1528.18 L1482.9 1530.15 L1471.93 1549.15 L1468.52 1547.18 Q1467.47 1543.5 1465.75 1537.22 Q1464.02 1530.9 1463.45 1529.21 Q1462.39 1526 1461.33 1524.37 Q1460.25 1522.71 1458.79 1521.86 Q1456.41 1520.49 1453.93 1521.3 Q1451.47 1522.1 1449.91 1524.79 Q1448.81 1526.69 1448.25 1529.2 Q1447.7 1531.68 1447.65 1534.86 L1443.56 1532.5 Q1443.99 1529.49 1444.72 1527.08 Q1445.44 1524.66 1446.46 1522.9 Q1449.15 1518.25 1453.07 1516.82 Q1456.99 1515.4 1460.88 1517.64 Q1462.72 1518.71 1463.98 1520.37 Q1465.23 1522 1466.43 1525.12 Q1466.72 1525.96 1467.95 1530.25 Q1469.17 1534.54 1471.34 1542.31 Z" fill="#000000" fill-rule="evenodd" fill-opacity="1" /><path clip-path="url(#clip380)" d="M 0 0 M1482.44 1523.09 L1486.25 1516.47 L1463.42 1503.29 L1460.71 1511.32 L1457.02 1509.19 L1459.71 1501.2 L1462.05 1497.15 L1488.57 1512.46 L1492.39 1505.85 L1495.8 1507.81 L1485.84 1525.05 L1482.44 1523.09 Z" fill="#000000" fill-rule="evenodd" fill-opacity="1" /><path clip-path="url(#clip380)" d="M 0 0 M1484.06 1498.37 L1490.3 1487.56 L1493.59 1489.46 L1487.35 1500.27 L1484.06 1498.37 Z" fill="#000000" fill-rule="evenodd" fill-opacity="1" /><path clip-path="url(#clip380)" d="M 0 0 M1483.46 1466.21 Q1481.66 1469.34 1483.83 1472.71 Q1486 1476.04 1492.17 1479.61 Q1498.32 1483.16 1502.31 1483.38 Q1506.3 1483.56 1508.1 1480.44 Q1509.92 1477.29 1507.75 1473.96 Q1505.58 1470.59 1499.43 1467.04 Q1493.25 1463.47 1489.27 1463.28 Q1485.28 1463.07 1483.46 1466.21 M1480.26 1464.36 Q1483.16 1459.33 1488.68 1458.99 Q1494.19 1458.61 1501.76 1462.99 Q1509.32 1467.35 1511.77 1472.32 Q1514.21 1477.26 1511.31 1482.29 Q1508.4 1487.32 1502.9 1487.7 Q1497.38 1488.04 1489.82 1483.68 Q1482.24 1479.3 1479.8 1474.36 Q1477.35 1469.39 1480.26 1464.36 Z" fill="#000000" fill-rule="evenodd" fill-opacity="1" /><path clip-path="url(#clip380)" d="M 0 0 M1510.18 1445.63 Q1512.48 1443.09 1515.38 1442.6 Q1518.3 1442.09 1521.18 1443.75 Q1525.61 1446.31 1526.28 1450.76 Q1526.95 1455.21 1523.7 1460.82 Q1522.62 1462.7 1521.08 1464.49 Q1519.57 1466.26 1517.6 1467.96 L1513.69 1465.7 Q1515.65 1464.59 1517.31 1462.87 Q1518.97 1461.16 1520.23 1458.97 Q1522.43 1455.16 1522.07 1452.31 Q1521.72 1449.44 1518.86 1447.78 Q1516.21 1446.25 1513.65 1447.26 Q1511.08 1448.24 1509.17 1451.55 L1507.16 1455.03 L1503.83 1453.11 L1505.94 1449.46 Q1507.66 1446.48 1507.39 1444.21 Q1507.1 1441.93 1504.86 1440.64 Q1502.55 1439.31 1500.38 1440.24 Q1498.2 1441.15 1496.44 1444.2 Q1495.48 1445.86 1494.74 1447.97 Q1494 1450.09 1493.45 1452.81 L1489.84 1450.73 Q1490.53 1448.05 1491.36 1445.86 Q1492.21 1443.65 1493.24 1441.87 Q1495.9 1437.26 1499.56 1435.79 Q1503.2 1434.3 1506.76 1436.36 Q1509.25 1437.8 1510.15 1440.22 Q1511.03 1442.63 1510.18 1445.63 Z" fill="#000000" fill-rule="evenodd" fill-opacity="1" /><path clip-path="url(#clip380)" d="M 0 0 M1518.15 1439.33 L1524.39 1428.52 L1527.68 1430.42 L1521.44 1441.23 L1518.15 1439.33 Z" fill="#000000" fill-rule="evenodd" fill-opacity="1" /><path clip-path="url(#clip380)" d="M 0 0 M1517.55 1407.18 Q1515.74 1410.3 1517.92 1413.67 Q1520.08 1417 1526.26 1420.57 Q1532.41 1424.12 1536.4 1424.34 Q1540.38 1424.53 1542.19 1421.4 Q1544 1418.25 1541.84 1414.92 Q1539.67 1411.55 1533.51 1408 Q1527.34 1404.43 1523.36 1404.25 Q1519.37 1404.03 1517.55 1407.18 M1514.34 1405.32 Q1517.25 1400.29 1522.76 1399.95 Q1528.27 1399.57 1535.85 1403.95 Q1543.41 1408.31 1545.86 1413.28 Q1548.3 1418.22 1545.39 1423.25 Q1542.49 1428.28 1536.98 1428.66 Q1531.46 1429 1523.91 1424.64 Q1516.33 1420.26 1513.89 1415.32 Q1511.44 1410.36 1514.34 1405.32 Z" fill="#000000" fill-rule="evenodd" fill-opacity="1" /><path clip-path="url(#clip380)" d="M 0 0 M1523.41 1390.86 L1532.59 1374.96 L1536 1376.93 L1528.96 1389.12 L1536.3 1393.36 Q1536.51 1392.3 1536.88 1391.34 Q1537.23 1390.36 1537.73 1389.48 Q1540.63 1384.47 1545.06 1383.13 Q1549.5 1381.79 1554.19 1384.5 Q1559.02 1387.28 1559.97 1391.84 Q1560.9 1396.39 1557.74 1401.86 Q1556.66 1403.75 1555.2 1405.53 Q1553.76 1407.28 1551.91 1409 L1547.84 1406.65 Q1549.87 1405.41 1551.46 1403.77 Q1553.05 1402.12 1554.29 1399.97 Q1556.29 1396.51 1555.64 1393.43 Q1554.98 1390.35 1551.85 1388.54 Q1548.73 1386.74 1545.73 1387.71 Q1542.74 1388.68 1540.74 1392.15 Q1539.8 1393.77 1539.22 1395.61 Q1538.66 1397.42 1538.45 1399.54 L1523.41 1390.86 Z" fill="#000000" fill-rule="evenodd" fill-opacity="1" /><path clip-path="url(#clip380)" d="M 0 0 M1752.76 1587.52 L1760.92 1573.38 L1764.33 1575.35 L1753.35 1594.36 L1749.95 1592.39 Q1748.89 1588.71 1747.17 1582.42 Q1745.45 1576.11 1744.88 1574.41 Q1743.81 1571.21 1742.75 1569.58 Q1741.68 1567.91 1740.21 1567.07 Q1737.83 1565.69 1735.35 1566.51 Q1732.89 1567.3 1731.34 1569.99 Q1730.24 1571.89 1729.67 1574.4 Q1729.12 1576.89 1729.07 1580.07 L1724.98 1577.71 Q1725.41 1574.7 1726.14 1572.28 Q1726.86 1569.87 1727.88 1568.1 Q1730.57 1563.45 1734.49 1562.03 Q1738.41 1560.6 1742.3 1562.85 Q1744.15 1563.91 1745.41 1565.58 Q1746.66 1567.21 1747.85 1570.33 Q1748.14 1571.16 1749.38 1575.46 Q1750.59 1579.74 1752.76 1587.52 Z" fill="#000000" fill-rule="evenodd" fill-opacity="1" /><path clip-path="url(#clip380)" d="M 0 0 M1744.6 1546.56 Q1742.79 1549.69 1744.96 1553.05 Q1747.13 1556.39 1753.3 1559.95 Q1759.46 1563.51 1763.45 1563.72 Q1767.43 1563.91 1769.24 1560.78 Q1771.05 1557.64 1768.89 1554.3 Q1766.71 1550.94 1760.56 1547.38 Q1754.39 1543.82 1750.4 1543.63 Q1746.41 1543.41 1744.6 1546.56 M1741.39 1544.71 Q1744.3 1539.68 1749.81 1539.33 Q1755.32 1538.96 1762.9 1543.33 Q1770.46 1547.7 1772.91 1552.67 Q1775.35 1557.6 1772.44 1562.64 Q1769.54 1567.67 1764.03 1568.04 Q1758.51 1568.39 1750.95 1564.02 Q1743.38 1559.65 1740.93 1554.71 Q1738.48 1549.74 1741.39 1544.71 Z" fill="#000000" fill-rule="evenodd" fill-opacity="1" /><path clip-path="url(#clip380)" d="M 0 0 M1778.97 1542.11 L1787.13 1527.98 L1790.54 1529.95 L1779.57 1548.95 L1776.16 1546.98 Q1775.11 1543.3 1773.39 1537.02 Q1771.66 1530.7 1771.09 1529.01 Q1770.03 1525.8 1768.96 1524.17 Q1767.89 1522.51 1766.43 1521.66 Q1764.04 1520.29 1761.57 1521.1 Q1759.1 1521.9 1757.55 1524.58 Q1756.45 1526.49 1755.89 1529 Q1755.33 1531.48 1755.29 1534.66 L1751.2 1532.3 Q1751.63 1529.29 1752.35 1526.88 Q1753.08 1524.46 1754.1 1522.7 Q1756.78 1518.05 1760.71 1516.62 Q1764.63 1515.2 1768.52 1517.44 Q1770.36 1518.51 1771.62 1520.17 Q1772.87 1521.8 1774.06 1524.92 Q1774.36 1525.76 1775.59 1530.05 Q1776.81 1534.34 1778.97 1542.11 Z" fill="#000000" fill-rule="evenodd" fill-opacity="1" /><path clip-path="url(#clip380)" d="M 0 0 M1790.07 1522.89 L1793.89 1516.27 L1771.06 1503.09 L1768.35 1511.12 L1764.66 1508.99 L1767.35 1501 L1769.69 1496.95 L1796.21 1512.26 L1800.03 1505.65 L1803.44 1507.61 L1793.48 1524.85 L1790.07 1522.89 Z" fill="#000000" fill-rule="evenodd" fill-opacity="1" /><path clip-path="url(#clip380)" d="M 0 0 M1791.7 1498.17 L1797.94 1487.36 L1801.23 1489.26 L1794.99 1500.06 L1791.7 1498.17 Z" fill="#000000" fill-rule="evenodd" fill-opacity="1" /><path clip-path="url(#clip380)" d="M 0 0 M1791.1 1466.01 Q1789.3 1469.14 1791.47 1472.51 Q1793.63 1475.84 1799.81 1479.41 Q1805.96 1482.96 1809.95 1483.18 Q1813.93 1483.36 1815.74 1480.24 Q1817.56 1477.09 1815.39 1473.76 Q1813.22 1470.39 1807.06 1466.84 Q1800.89 1463.27 1796.91 1463.08 Q1792.92 1462.87 1791.1 1466.01 M1787.89 1464.16 Q1790.8 1459.13 1796.32 1458.79 Q1801.83 1458.41 1809.4 1462.79 Q1816.96 1467.15 1819.41 1472.12 Q1821.85 1477.06 1818.95 1482.09 Q1816.04 1487.12 1810.53 1487.5 Q1805.02 1487.84 1797.46 1483.47 Q1789.88 1479.1 1787.44 1474.16 Q1784.99 1469.19 1787.89 1464.16 Z" fill="#000000" fill-rule="evenodd" fill-opacity="1" /><path clip-path="url(#clip380)" d="M 0 0 M1817.82 1445.43 Q1820.12 1442.88 1823.02 1442.4 Q1825.93 1441.89 1828.82 1443.55 Q1833.25 1446.11 1833.92 1450.56 Q1834.58 1455.01 1831.34 1460.62 Q1830.25 1462.5 1828.72 1464.29 Q1827.21 1466.06 1825.24 1467.76 L1821.33 1465.5 Q1823.29 1464.39 1824.95 1462.67 Q1826.6 1460.96 1827.87 1458.77 Q1830.06 1454.96 1829.71 1452.11 Q1829.36 1449.24 1826.49 1447.58 Q1823.85 1446.05 1821.29 1447.06 Q1818.72 1448.04 1816.81 1451.35 L1814.8 1454.83 L1811.47 1452.91 L1813.57 1449.26 Q1815.3 1446.28 1815.03 1444.01 Q1814.74 1441.73 1812.5 1440.44 Q1810.19 1439.11 1808.02 1440.04 Q1805.84 1440.95 1804.08 1444 Q1803.12 1445.66 1802.38 1447.77 Q1801.64 1449.89 1801.08 1452.61 L1797.48 1450.53 Q1798.17 1447.85 1799 1445.66 Q1799.85 1443.45 1800.88 1441.67 Q1803.54 1437.06 1807.2 1435.59 Q1810.83 1434.1 1814.4 1436.16 Q1816.89 1437.6 1817.79 1440.02 Q1818.67 1442.42 1817.82 1445.43 Z" fill="#000000" fill-rule="evenodd" fill-opacity="1" /><path clip-path="url(#clip380)" d="M 0 0 M1825.79 1439.13 L1832.03 1428.32 L1835.31 1430.22 L1829.08 1441.03 L1825.79 1439.13 Z" fill="#000000" fill-rule="evenodd" fill-opacity="1" /><path clip-path="url(#clip380)" d="M 0 0 M1844.45 1428.71 L1848.27 1422.09 L1825.43 1408.91 L1822.72 1416.94 L1819.03 1414.81 L1821.72 1406.82 L1824.06 1402.77 L1850.58 1418.08 L1854.4 1411.47 L1857.81 1413.43 L1847.86 1430.67 L1844.45 1428.71 Z" fill="#000000" fill-rule="evenodd" fill-opacity="1" /><path clip-path="url(#clip380)" d="M 0 0 M1838.08 1384.64 Q1836.28 1387.77 1838.45 1391.14 Q1840.61 1394.47 1846.79 1398.04 Q1852.94 1401.59 1856.93 1401.81 Q1860.91 1401.99 1862.72 1398.87 Q1864.54 1395.72 1862.37 1392.39 Q1860.2 1389.02 1854.04 1385.47 Q1847.87 1381.9 1843.89 1381.71 Q1839.9 1381.5 1838.08 1384.64 M1834.87 1382.79 Q1837.78 1377.76 1843.3 1377.42 Q1848.8 1377.04 1856.38 1381.42 Q1863.94 1385.78 1866.39 1390.75 Q1868.83 1395.69 1865.93 1400.72 Q1863.02 1405.75 1857.51 1406.13 Q1852 1406.47 1844.44 1402.1 Q1836.86 1397.73 1834.42 1392.79 Q1831.97 1387.82 1834.87 1382.79 Z" fill="#000000" fill-rule="evenodd" fill-opacity="1" /><path clip-path="url(#clip380)" d="M 0 0 M2060.78 1586.65 L2068.94 1572.52 L2072.35 1574.49 L2061.37 1593.49 L2057.97 1591.53 Q2056.91 1587.84 2055.19 1581.56 Q2053.47 1575.24 2052.9 1573.55 Q2051.83 1570.34 2050.77 1568.71 Q2049.7 1567.05 2048.23 1566.21 Q2045.85 1564.83 2043.37 1565.65 Q2040.91 1566.44 2039.36 1569.13 Q2038.26 1571.03 2037.69 1573.54 Q2037.14 1576.03 2037.09 1579.21 L2033 1576.85 Q2033.43 1573.83 2034.16 1571.42 Q2034.88 1569.01 2035.9 1567.24 Q2038.59 1562.59 2042.51 1561.17 Q2046.43 1559.74 2050.32 1561.99 Q2052.17 1563.05 2053.43 1564.71 Q2054.68 1566.35 2055.87 1569.47 Q2056.16 1570.3 2057.4 1574.6 Q2058.61 1578.88 2060.78 1586.65 Z" fill="#000000" fill-rule="evenodd" fill-opacity="1" /><path clip-path="url(#clip380)" d="M 0 0 M2052.62 1545.7 Q2050.81 1548.83 2052.98 1552.19 Q2055.15 1555.53 2061.32 1559.09 Q2067.48 1562.64 2071.47 1562.86 Q2075.45 1563.05 2077.26 1559.92 Q2079.07 1556.78 2076.91 1553.44 Q2074.73 1550.07 2068.58 1546.52 Q2062.41 1542.96 2058.42 1542.77 Q2054.43 1542.55 2052.62 1545.7 M2049.41 1543.85 Q2052.32 1538.81 2057.83 1538.47 Q2063.34 1538.1 2070.92 1542.47 Q2078.48 1546.84 2080.93 1551.81 Q2083.37 1556.74 2080.46 1561.77 Q2077.56 1566.81 2072.05 1567.18 Q2066.53 1567.52 2058.97 1563.16 Q2051.4 1558.79 2048.95 1553.85 Q2046.5 1548.88 2049.41 1543.85 Z" fill="#000000" fill-rule="evenodd" fill-opacity="1" /><path clip-path="url(#clip380)" d="M 0 0 M2086.99 1541.25 L2095.15 1527.12 L2098.56 1529.08 L2087.59 1548.09 L2084.18 1546.12 Q2083.13 1542.44 2081.41 1536.15 Q2079.68 1529.84 2079.11 1528.14 Q2078.05 1524.94 2076.98 1523.31 Q2075.91 1521.65 2074.45 1520.8 Q2072.06 1519.42 2069.59 1520.24 Q2067.12 1521.04 2065.57 1523.72 Q2064.47 1525.63 2063.91 1528.13 Q2063.35 1530.62 2063.31 1533.8 L2059.22 1531.44 Q2059.65 1528.43 2060.37 1526.01 Q2061.1 1523.6 2062.12 1521.84 Q2064.8 1517.18 2068.73 1515.76 Q2072.65 1514.34 2076.54 1516.58 Q2078.38 1517.65 2079.64 1519.31 Q2080.89 1520.94 2082.08 1524.06 Q2082.38 1524.9 2083.61 1529.19 Q2084.83 1533.48 2086.99 1541.25 Z" fill="#000000" fill-rule="evenodd" fill-opacity="1" /><path clip-path="url(#clip380)" d="M 0 0 M2098.09 1522.02 L2101.91 1515.41 L2079.08 1502.23 L2076.37 1510.26 L2072.68 1508.13 L2075.37 1500.14 L2077.71 1496.09 L2104.23 1511.4 L2108.05 1504.78 L2111.46 1506.75 L2101.5 1523.99 L2098.09 1522.02 Z" fill="#000000" fill-rule="evenodd" fill-opacity="1" /><path clip-path="url(#clip380)" d="M 0 0 M2099.72 1497.3 L2105.96 1486.5 L2109.25 1488.4 L2103.01 1499.2 L2099.72 1497.3 Z" fill="#000000" fill-rule="evenodd" fill-opacity="1" /><path clip-path="url(#clip380)" d="M 0 0 M2099.12 1465.15 Q2097.32 1468.28 2099.49 1471.64 Q2101.65 1474.98 2107.83 1478.54 Q2113.98 1482.1 2117.97 1482.32 Q2121.95 1482.5 2123.76 1479.37 Q2125.58 1476.23 2123.41 1472.89 Q2121.24 1469.53 2115.08 1465.97 Q2108.91 1462.41 2104.93 1462.22 Q2100.94 1462 2099.12 1465.15 M2095.91 1463.3 Q2098.82 1458.27 2104.34 1457.92 Q2109.85 1457.55 2117.42 1461.92 Q2124.98 1466.29 2127.43 1471.26 Q2129.87 1476.19 2126.97 1481.23 Q2124.06 1486.26 2118.55 1486.63 Q2113.04 1486.98 2105.48 1482.61 Q2097.9 1478.24 2095.46 1473.3 Q2093.01 1468.33 2095.91 1463.3 Z" fill="#000000" fill-rule="evenodd" fill-opacity="1" /><path clip-path="url(#clip380)" d="M 0 0 M2125.84 1444.57 Q2128.14 1442.02 2131.04 1441.53 Q2133.95 1441.02 2136.84 1442.69 Q2141.27 1445.25 2141.94 1449.7 Q2142.6 1454.14 2139.36 1459.76 Q2138.27 1461.64 2136.74 1463.43 Q2135.23 1465.2 2133.26 1466.9 L2129.35 1464.64 Q2131.31 1463.53 2132.97 1461.81 Q2134.62 1460.09 2135.89 1457.91 Q2138.08 1454.1 2137.73 1451.25 Q2137.38 1448.38 2134.51 1446.72 Q2131.87 1445.19 2129.31 1446.2 Q2126.74 1447.18 2124.83 1450.48 L2122.82 1453.97 L2119.49 1452.05 L2121.59 1448.4 Q2123.32 1445.42 2123.05 1443.15 Q2122.76 1440.87 2120.52 1439.57 Q2118.21 1438.24 2116.04 1439.18 Q2113.86 1440.09 2112.1 1443.13 Q2111.14 1444.8 2110.4 1446.91 Q2109.66 1449.02 2109.1 1451.75 L2105.5 1449.67 Q2106.19 1446.99 2107.02 1444.8 Q2107.87 1442.59 2108.9 1440.81 Q2111.56 1436.2 2115.22 1434.72 Q2118.85 1433.24 2122.42 1435.3 Q2124.91 1436.74 2125.81 1439.16 Q2126.69 1441.56 2125.84 1444.57 Z" fill="#000000" fill-rule="evenodd" fill-opacity="1" /><path clip-path="url(#clip380)" d="M 0 0 M2133.81 1438.27 L2140.05 1427.46 L2143.33 1429.36 L2137.1 1440.17 L2133.81 1438.27 Z" fill="#000000" fill-rule="evenodd" fill-opacity="1" /><path clip-path="url(#clip380)" d="M 0 0 M2152.47 1427.84 L2156.29 1421.23 L2133.45 1408.05 L2130.74 1416.08 L2127.05 1413.95 L2129.74 1405.96 L2132.08 1401.91 L2158.6 1417.22 L2162.42 1410.6 L2165.83 1412.57 L2155.88 1429.81 L2152.47 1427.84 Z" fill="#000000" fill-rule="evenodd" fill-opacity="1" /><path clip-path="url(#clip380)" d="M 0 0 M2138.46 1390.86 L2147.64 1374.96 L2151.04 1376.93 L2144.01 1389.12 L2151.34 1393.36 Q2151.55 1392.3 2151.92 1391.34 Q2152.27 1390.36 2152.78 1389.48 Q2155.67 1384.47 2160.11 1383.13 Q2164.55 1381.79 2169.24 1384.5 Q2174.07 1387.28 2175.02 1391.84 Q2175.95 1396.39 2172.79 1401.86 Q2171.7 1403.75 2170.25 1405.53 Q2168.8 1407.28 2166.96 1409 L2162.89 1406.65 Q2164.91 1405.41 2166.5 1403.77 Q2168.1 1402.12 2169.33 1399.97 Q2171.34 1396.51 2170.68 1393.43 Q2170.03 1390.35 2166.9 1388.54 Q2163.77 1386.74 2160.78 1387.71 Q2157.78 1388.68 2155.78 1392.15 Q2154.85 1393.77 2154.27 1395.61 Q2153.7 1397.42 2153.49 1399.54 L2138.46 1390.86 Z" fill="#000000" fill-rule="evenodd" fill-opacity="1" /><polyline clip-path="url(#clip382)" style="stroke:#000000; stroke-width:2; stroke-opacity:0.1; fill:none" points="
  190.464,1332.09 2352.76,1332.09 
  "/>
<polyline clip-path="url(#clip382)" style="stroke:#000000; stroke-width:2; stroke-opacity:0.1; fill:none" points="
  190.464,1145.35 2352.76,1145.35 
  "/>
<polyline clip-path="url(#clip382)" style="stroke:#000000; stroke-width:2; stroke-opacity:0.1; fill:none" points="
  190.464,958.613 2352.76,958.613 
  "/>
<polyline clip-path="url(#clip382)" style="stroke:#000000; stroke-width:2; stroke-opacity:0.1; fill:none" points="
  190.464,771.875 2352.76,771.875 
  "/>
<polyline clip-path="url(#clip382)" style="stroke:#000000; stroke-width:2; stroke-opacity:0.1; fill:none" points="
  190.464,585.136 2352.76,585.136 
  "/>
<polyline clip-path="url(#clip382)" style="stroke:#000000; stroke-width:2; stroke-opacity:0.1; fill:none" points="
  190.464,398.398 2352.76,398.398 
  "/>
<polyline clip-path="url(#clip382)" style="stroke:#000000; stroke-width:2; stroke-opacity:0.1; fill:none" points="
  190.464,211.659 2352.76,211.659 
  "/>
<polyline clip-path="url(#clip380)" style="stroke:#000000; stroke-width:4; stroke-opacity:1; fill:none" points="
  190.464,1350.1 190.464,47.2441 
  "/>
<polyline clip-path="url(#clip380)" style="stroke:#000000; stroke-width:4; stroke-opacity:1; fill:none" points="
  190.464,1332.09 216.411,1332.09 
  "/>
<polyline clip-path="url(#clip380)" style="stroke:#000000; stroke-width:4; stroke-opacity:1; fill:none" points="
  190.464,1145.35 216.411,1145.35 
  "/>
<polyline clip-path="url(#clip380)" style="stroke:#000000; stroke-width:4; stroke-opacity:1; fill:none" points="
  190.464,958.613 216.411,958.613 
  "/>
<polyline clip-path="url(#clip380)" style="stroke:#000000; stroke-width:4; stroke-opacity:1; fill:none" points="
  190.464,771.875 216.411,771.875 
  "/>
<polyline clip-path="url(#clip380)" style="stroke:#000000; stroke-width:4; stroke-opacity:1; fill:none" points="
  190.464,585.136 216.411,585.136 
  "/>
<polyline clip-path="url(#clip380)" style="stroke:#000000; stroke-width:4; stroke-opacity:1; fill:none" points="
  190.464,398.398 216.411,398.398 
  "/>
<polyline clip-path="url(#clip380)" style="stroke:#000000; stroke-width:4; stroke-opacity:1; fill:none" points="
  190.464,211.659 216.411,211.659 
  "/>
<path clip-path="url(#clip380)" d="M 0 0 M57.1032 1345.44 L73.4226 1345.44 L73.4226 1349.37 L51.4782 1349.37 L51.4782 1345.44 Q54.1403 1342.68 58.7236 1338.05 Q63.33 1333.4 64.5106 1332.06 Q66.7559 1329.53 67.6356 1327.8 Q68.5383 1326.04 68.5383 1324.35 Q68.5383 1321.59 66.5939 1319.86 Q64.6726 1318.12 61.5708 1318.12 Q59.3717 1318.12 56.918 1318.88 Q54.4875 1319.65 51.7097 1321.2 L51.7097 1316.48 Q54.5338 1315.34 56.9875 1314.76 Q59.4412 1314.19 61.4782 1314.19 Q66.8485 1314.19 70.0429 1316.87 Q73.2374 1319.56 73.2374 1324.05 Q73.2374 1326.18 72.4272 1328.1 Q71.6402 1330 69.5337 1332.59 Q68.955 1333.26 65.8532 1336.48 Q62.7513 1339.67 57.1032 1345.44 Z" fill="#000000" fill-rule="evenodd" fill-opacity="1" /><path clip-path="url(#clip380)" d="M 0 0 M88.4919 1317.89 Q84.8808 1317.89 83.0521 1321.45 Q81.2466 1325 81.2466 1332.13 Q81.2466 1339.23 83.0521 1342.8 Q84.8808 1346.34 88.4919 1346.34 Q92.1262 1346.34 93.9317 1342.8 Q95.7604 1339.23 95.7604 1332.13 Q95.7604 1325 93.9317 1321.45 Q92.1262 1317.89 88.4919 1317.89 M88.4919 1314.19 Q94.3021 1314.19 97.3576 1318.79 Q100.436 1323.38 100.436 1332.13 Q100.436 1340.85 97.3576 1345.46 Q94.3021 1350.04 88.4919 1350.04 Q82.6818 1350.04 79.6031 1345.46 Q76.5475 1340.85 76.5475 1332.13 Q76.5475 1323.38 79.6031 1318.79 Q82.6818 1314.19 88.4919 1314.19 Z" fill="#000000" fill-rule="evenodd" fill-opacity="1" /><path clip-path="url(#clip380)" d="M 0 0 M115.506 1317.89 Q111.895 1317.89 110.066 1321.45 Q108.26 1325 108.26 1332.13 Q108.26 1339.23 110.066 1342.8 Q111.895 1346.34 115.506 1346.34 Q119.14 1346.34 120.945 1342.8 Q122.774 1339.23 122.774 1332.13 Q122.774 1325 120.945 1321.45 Q119.14 1317.89 115.506 1317.89 M115.506 1314.19 Q121.316 1314.19 124.371 1318.79 Q127.45 1323.38 127.45 1332.13 Q127.45 1340.85 124.371 1345.46 Q121.316 1350.04 115.506 1350.04 Q109.696 1350.04 106.617 1345.46 Q103.561 1340.85 103.561 1332.13 Q103.561 1323.38 106.617 1318.79 Q109.696 1314.19 115.506 1314.19 Z" fill="#000000" fill-rule="evenodd" fill-opacity="1" /><path clip-path="url(#clip380)" d="M 0 0 M142.519 1317.89 Q138.908 1317.89 137.08 1321.45 Q135.274 1325 135.274 1332.13 Q135.274 1339.23 137.08 1342.8 Q138.908 1346.34 142.519 1346.34 Q146.154 1346.34 147.959 1342.8 Q149.788 1339.23 149.788 1332.13 Q149.788 1325 147.959 1321.45 Q146.154 1317.89 142.519 1317.89 M142.519 1314.19 Q148.33 1314.19 151.385 1318.79 Q154.464 1323.38 154.464 1332.13 Q154.464 1340.85 151.385 1345.46 Q148.33 1350.04 142.519 1350.04 Q136.709 1350.04 133.631 1345.46 Q130.575 1340.85 130.575 1332.13 Q130.575 1323.38 133.631 1318.79 Q136.709 1314.19 142.519 1314.19 Z" fill="#000000" fill-rule="evenodd" fill-opacity="1" /><path clip-path="url(#clip380)" d="M 0 0 M58.7004 1158.7 L75.0198 1158.7 L75.0198 1162.63 L53.0754 1162.63 L53.0754 1158.7 Q55.7375 1155.94 60.3208 1151.31 Q64.9272 1146.66 66.1078 1145.32 Q68.3531 1142.79 69.2328 1141.06 Q70.1355 1139.3 70.1355 1137.61 Q70.1355 1134.85 68.1911 1133.12 Q66.2698 1131.38 63.168 1131.38 Q60.9689 1131.38 58.5152 1132.15 Q56.0847 1132.91 53.3069 1134.46 L53.3069 1129.74 Q56.131 1128.6 58.5847 1128.03 Q61.0384 1127.45 63.0754 1127.45 Q68.4457 1127.45 71.6402 1130.13 Q74.8346 1132.82 74.8346 1137.31 Q74.8346 1139.44 74.0244 1141.36 Q73.2374 1143.26 71.1309 1145.85 Q70.5522 1146.52 67.4504 1149.74 Q64.3485 1152.93 58.7004 1158.7 Z" fill="#000000" fill-rule="evenodd" fill-opacity="1" /><path clip-path="url(#clip380)" d="M 0 0 M90.0891 1131.15 Q86.478 1131.15 84.6494 1134.72 Q82.8438 1138.26 82.8438 1145.39 Q82.8438 1152.49 84.6494 1156.06 Q86.478 1159.6 90.0891 1159.6 Q93.7234 1159.6 95.5289 1156.06 Q97.3576 1152.49 97.3576 1145.39 Q97.3576 1138.26 95.5289 1134.72 Q93.7234 1131.15 90.0891 1131.15 M90.0891 1127.45 Q95.8993 1127.45 98.9548 1132.05 Q102.034 1136.64 102.034 1145.39 Q102.034 1154.11 98.9548 1158.72 Q95.8993 1163.3 90.0891 1163.3 Q84.279 1163.3 81.2003 1158.72 Q78.1448 1154.11 78.1448 1145.39 Q78.1448 1136.64 81.2003 1132.05 Q84.279 1127.45 90.0891 1127.45 Z" fill="#000000" fill-rule="evenodd" fill-opacity="1" /><path clip-path="url(#clip380)" d="M 0 0 M111.131 1158.7 L127.45 1158.7 L127.45 1162.63 L105.506 1162.63 L105.506 1158.7 Q108.168 1155.94 112.751 1151.31 Q117.358 1146.66 118.538 1145.32 Q120.783 1142.79 121.663 1141.06 Q122.566 1139.3 122.566 1137.61 Q122.566 1134.85 120.621 1133.12 Q118.7 1131.38 115.598 1131.38 Q113.399 1131.38 110.946 1132.15 Q108.515 1132.91 105.737 1134.46 L105.737 1129.74 Q108.561 1128.6 111.015 1128.03 Q113.469 1127.45 115.506 1127.45 Q120.876 1127.45 124.07 1130.13 Q127.265 1132.82 127.265 1137.31 Q127.265 1139.44 126.455 1141.36 Q125.668 1143.26 123.561 1145.85 Q122.982 1146.52 119.881 1149.74 Q116.779 1152.93 111.131 1158.7 Z" fill="#000000" fill-rule="evenodd" fill-opacity="1" /><path clip-path="url(#clip380)" d="M 0 0 M142.519 1131.15 Q138.908 1131.15 137.08 1134.72 Q135.274 1138.26 135.274 1145.39 Q135.274 1152.49 137.08 1156.06 Q138.908 1159.6 142.519 1159.6 Q146.154 1159.6 147.959 1156.06 Q149.788 1152.49 149.788 1145.39 Q149.788 1138.26 147.959 1134.72 Q146.154 1131.15 142.519 1131.15 M142.519 1127.45 Q148.33 1127.45 151.385 1132.05 Q154.464 1136.64 154.464 1145.39 Q154.464 1154.11 151.385 1158.72 Q148.33 1163.3 142.519 1163.3 Q136.709 1163.3 133.631 1158.72 Q130.575 1154.11 130.575 1145.39 Q130.575 1136.64 133.631 1132.05 Q136.709 1127.45 142.519 1127.45 Z" fill="#000000" fill-rule="evenodd" fill-opacity="1" /><path clip-path="url(#clip380)" d="M 0 0 M56.6171 971.958 L72.9365 971.958 L72.9365 975.893 L50.9921 975.893 L50.9921 971.958 Q53.6541 969.204 58.2375 964.574 Q62.8439 959.921 64.0245 958.579 Q66.2698 956.055 67.1494 954.319 Q68.0522 952.56 68.0522 950.87 Q68.0522 948.116 66.1078 946.38 Q64.1865 944.644 61.0847 944.644 Q58.8856 944.644 56.4319 945.407 Q54.0014 946.171 51.2236 947.722 L51.2236 943 Q54.0477 941.866 56.5014 941.287 Q58.955 940.708 60.9921 940.708 Q66.3624 940.708 69.5568 943.394 Q72.7513 946.079 72.7513 950.569 Q72.7513 952.699 71.9411 954.62 Q71.1541 956.518 69.0476 959.111 Q68.4689 959.782 65.367 963 Q62.2652 966.194 56.6171 971.958 Z" fill="#000000" fill-rule="evenodd" fill-opacity="1" /><path clip-path="url(#clip380)" d="M 0 0 M88.0058 944.412 Q84.3947 944.412 82.566 947.977 Q80.7605 951.518 80.7605 958.648 Q80.7605 965.755 82.566 969.319 Q84.3947 972.861 88.0058 972.861 Q91.6401 972.861 93.4456 969.319 Q95.2743 965.755 95.2743 958.648 Q95.2743 951.518 93.4456 947.977 Q91.6401 944.412 88.0058 944.412 M88.0058 940.708 Q93.816 940.708 96.8715 945.315 Q99.9502 949.898 99.9502 958.648 Q99.9502 967.375 96.8715 971.981 Q93.816 976.565 88.0058 976.565 Q82.1957 976.565 79.117 971.981 Q76.0614 967.375 76.0614 958.648 Q76.0614 949.898 79.117 945.315 Q82.1957 940.708 88.0058 940.708 Z" fill="#000000" fill-rule="evenodd" fill-opacity="1" /><path clip-path="url(#clip380)" d="M 0 0 M117.867 945.407 L106.061 963.856 L117.867 963.856 L117.867 945.407 M116.64 941.333 L122.52 941.333 L122.52 963.856 L127.45 963.856 L127.45 967.745 L122.52 967.745 L122.52 975.893 L117.867 975.893 L117.867 967.745 L102.265 967.745 L102.265 963.231 L116.64 941.333 Z" fill="#000000" fill-rule="evenodd" fill-opacity="1" /><path clip-path="url(#clip380)" d="M 0 0 M142.519 944.412 Q138.908 944.412 137.08 947.977 Q135.274 951.518 135.274 958.648 Q135.274 965.755 137.08 969.319 Q138.908 972.861 142.519 972.861 Q146.154 972.861 147.959 969.319 Q149.788 965.755 149.788 958.648 Q149.788 951.518 147.959 947.977 Q146.154 944.412 142.519 944.412 M142.519 940.708 Q148.33 940.708 151.385 945.315 Q154.464 949.898 154.464 958.648 Q154.464 967.375 151.385 971.981 Q148.33 976.565 142.519 976.565 Q136.709 976.565 133.631 971.981 Q130.575 967.375 130.575 958.648 Q130.575 949.898 133.631 945.315 Q136.709 940.708 142.519 940.708 Z" fill="#000000" fill-rule="evenodd" fill-opacity="1" /><path clip-path="url(#clip380)" d="M 0 0 M56.9412 785.22 L73.2605 785.22 L73.2605 789.155 L51.3162 789.155 L51.3162 785.22 Q53.9782 782.465 58.5615 777.835 Q63.168 773.183 64.3485 771.84 Q66.5939 769.317 67.4735 767.581 Q68.3763 765.822 68.3763 764.132 Q68.3763 761.377 66.4319 759.641 Q64.5106 757.905 61.4087 757.905 Q59.2097 757.905 56.756 758.669 Q54.3254 759.433 51.5477 760.984 L51.5477 756.261 Q54.3717 755.127 56.8254 754.548 Q59.2791 753.97 61.3161 753.97 Q66.6865 753.97 69.8809 756.655 Q73.0753 759.34 73.0753 763.831 Q73.0753 765.96 72.2652 767.882 Q71.4781 769.78 69.3717 772.372 Q68.793 773.044 65.6911 776.261 Q62.5893 779.456 56.9412 785.22 Z" fill="#000000" fill-rule="evenodd" fill-opacity="1" /><path clip-path="url(#clip380)" d="M 0 0 M88.3299 757.673 Q84.7188 757.673 82.8901 761.238 Q81.0846 764.78 81.0846 771.91 Q81.0846 779.016 82.8901 782.581 Q84.7188 786.122 88.3299 786.122 Q91.9641 786.122 93.7697 782.581 Q95.5984 779.016 95.5984 771.91 Q95.5984 764.78 93.7697 761.238 Q91.9641 757.673 88.3299 757.673 M88.3299 753.97 Q94.14 753.97 97.1956 758.576 Q100.274 763.16 100.274 771.91 Q100.274 780.636 97.1956 785.243 Q94.14 789.826 88.3299 789.826 Q82.5197 789.826 79.441 785.243 Q76.3855 780.636 76.3855 771.91 Q76.3855 763.16 79.441 758.576 Q82.5197 753.97 88.3299 753.97 Z" fill="#000000" fill-rule="evenodd" fill-opacity="1" /><path clip-path="url(#clip380)" d="M 0 0 M115.922 770.011 Q112.774 770.011 110.922 772.164 Q109.094 774.317 109.094 778.067 Q109.094 781.794 110.922 783.97 Q112.774 786.122 115.922 786.122 Q119.07 786.122 120.899 783.97 Q122.751 781.794 122.751 778.067 Q122.751 774.317 120.899 772.164 Q119.07 770.011 115.922 770.011 M125.205 755.359 L125.205 759.618 Q123.445 758.785 121.64 758.345 Q119.857 757.905 118.098 757.905 Q113.469 757.905 111.015 761.03 Q108.584 764.155 108.237 770.474 Q109.603 768.46 111.663 767.396 Q113.723 766.308 116.2 766.308 Q121.408 766.308 124.418 769.479 Q127.45 772.627 127.45 778.067 Q127.45 783.391 124.302 786.608 Q121.154 789.826 115.922 789.826 Q109.927 789.826 106.756 785.243 Q103.584 780.636 103.584 771.91 Q103.584 763.715 107.473 758.854 Q111.362 753.97 117.913 753.97 Q119.672 753.97 121.455 754.317 Q123.26 754.664 125.205 755.359 Z" fill="#000000" fill-rule="evenodd" fill-opacity="1" /><path clip-path="url(#clip380)" d="M 0 0 M142.519 757.673 Q138.908 757.673 137.08 761.238 Q135.274 764.78 135.274 771.91 Q135.274 779.016 137.08 782.581 Q138.908 786.122 142.519 786.122 Q146.154 786.122 147.959 782.581 Q149.788 779.016 149.788 771.91 Q149.788 764.78 147.959 761.238 Q146.154 757.673 142.519 757.673 M142.519 753.97 Q148.33 753.97 151.385 758.576 Q154.464 763.16 154.464 771.91 Q154.464 780.636 151.385 785.243 Q148.33 789.826 142.519 789.826 Q136.709 789.826 133.631 785.243 Q130.575 780.636 130.575 771.91 Q130.575 763.16 133.631 758.576 Q136.709 753.97 142.519 753.97 Z" fill="#000000" fill-rule="evenodd" fill-opacity="1" /><path clip-path="url(#clip380)" d="M 0 0 M57.1958 598.481 L73.5152 598.481 L73.5152 602.416 L51.5708 602.416 L51.5708 598.481 Q54.2328 595.726 58.8162 591.097 Q63.4226 586.444 64.6032 585.101 Q66.8485 582.578 67.7281 580.842 Q68.6309 579.083 68.6309 577.393 Q68.6309 574.639 66.6865 572.902 Q64.7652 571.166 61.6634 571.166 Q59.4643 571.166 57.0106 571.93 Q54.5801 572.694 51.8023 574.245 L51.8023 569.523 Q54.6264 568.389 57.0801 567.81 Q59.5337 567.231 61.5708 567.231 Q66.9411 567.231 70.1355 569.916 Q73.33 572.602 73.33 577.092 Q73.33 579.222 72.5198 581.143 Q71.7328 583.041 69.6263 585.634 Q69.0476 586.305 65.9457 589.523 Q62.8439 592.717 57.1958 598.481 Z" fill="#000000" fill-rule="evenodd" fill-opacity="1" /><path clip-path="url(#clip380)" d="M 0 0 M88.5845 570.935 Q84.9734 570.935 83.1447 574.5 Q81.3392 578.041 81.3392 585.171 Q81.3392 592.277 83.1447 595.842 Q84.9734 599.384 88.5845 599.384 Q92.2188 599.384 94.0243 595.842 Q95.853 592.277 95.853 585.171 Q95.853 578.041 94.0243 574.5 Q92.2188 570.935 88.5845 570.935 M88.5845 567.231 Q94.3947 567.231 97.4502 571.838 Q100.529 576.421 100.529 585.171 Q100.529 593.898 97.4502 598.504 Q94.3947 603.088 88.5845 603.088 Q82.7744 603.088 79.6957 598.504 Q76.6401 593.898 76.6401 585.171 Q76.6401 576.421 79.6957 571.838 Q82.7744 567.231 88.5845 567.231 Z" fill="#000000" fill-rule="evenodd" fill-opacity="1" /><path clip-path="url(#clip380)" d="M 0 0 M115.598 586.004 Q112.265 586.004 110.344 587.787 Q108.446 589.569 108.446 592.694 Q108.446 595.819 110.344 597.601 Q112.265 599.384 115.598 599.384 Q118.932 599.384 120.853 597.601 Q122.774 595.796 122.774 592.694 Q122.774 589.569 120.853 587.787 Q118.955 586.004 115.598 586.004 M110.922 584.014 Q107.913 583.273 106.223 581.213 Q104.557 579.152 104.557 576.19 Q104.557 572.046 107.496 569.639 Q110.459 567.231 115.598 567.231 Q120.76 567.231 123.7 569.639 Q126.64 572.046 126.64 576.19 Q126.64 579.152 124.95 581.213 Q123.283 583.273 120.297 584.014 Q123.677 584.801 125.552 587.092 Q127.45 589.384 127.45 592.694 Q127.45 597.717 124.371 600.402 Q121.316 603.088 115.598 603.088 Q109.881 603.088 106.802 600.402 Q103.746 597.717 103.746 592.694 Q103.746 589.384 105.645 587.092 Q107.543 584.801 110.922 584.014 M109.209 576.629 Q109.209 579.314 110.876 580.819 Q112.566 582.324 115.598 582.324 Q118.608 582.324 120.297 580.819 Q122.01 579.314 122.01 576.629 Q122.01 573.944 120.297 572.44 Q118.608 570.935 115.598 570.935 Q112.566 570.935 110.876 572.44 Q109.209 573.944 109.209 576.629 Z" fill="#000000" fill-rule="evenodd" fill-opacity="1" /><path clip-path="url(#clip380)" d="M 0 0 M142.519 570.935 Q138.908 570.935 137.08 574.5 Q135.274 578.041 135.274 585.171 Q135.274 592.277 137.08 595.842 Q138.908 599.384 142.519 599.384 Q146.154 599.384 147.959 595.842 Q149.788 592.277 149.788 585.171 Q149.788 578.041 147.959 574.5 Q146.154 570.935 142.519 570.935 M142.519 567.231 Q148.33 567.231 151.385 571.838 Q154.464 576.421 154.464 585.171 Q154.464 593.898 151.385 598.504 Q148.33 603.088 142.519 603.088 Q136.709 603.088 133.631 598.504 Q130.575 593.898 130.575 585.171 Q130.575 576.421 133.631 571.838 Q136.709 567.231 142.519 567.231 Z" fill="#000000" fill-rule="evenodd" fill-opacity="1" /><path clip-path="url(#clip380)" d="M 0 0 M58.33 411.742 L74.6494 411.742 L74.6494 415.678 L52.7051 415.678 L52.7051 411.742 Q55.3671 408.988 59.9504 404.358 Q64.5569 399.706 65.7374 398.363 Q67.9828 395.84 68.8624 394.104 Q69.7652 392.344 69.7652 390.655 Q69.7652 387.9 67.8207 386.164 Q65.8995 384.428 62.7976 384.428 Q60.5986 384.428 58.1449 385.192 Q55.7143 385.956 52.9366 387.507 L52.9366 382.784 Q55.7606 381.65 58.2143 381.071 Q60.668 380.493 62.705 380.493 Q68.0754 380.493 71.2698 383.178 Q74.4642 385.863 74.4642 390.354 Q74.4642 392.483 73.654 394.405 Q72.867 396.303 70.7605 398.895 Q70.1818 399.567 67.08 402.784 Q63.9782 405.979 58.33 411.742 Z" fill="#000000" fill-rule="evenodd" fill-opacity="1" /><path clip-path="url(#clip380)" d="M 0 0 M80.529 411.742 L88.1679 411.742 L88.1679 385.377 L79.8577 387.044 L79.8577 382.784 L88.1216 381.118 L92.7975 381.118 L92.7975 411.742 L100.436 411.742 L100.436 415.678 L80.529 415.678 L80.529 411.742 Z" fill="#000000" fill-rule="evenodd" fill-opacity="1" /><path clip-path="url(#clip380)" d="M 0 0 M115.506 384.196 Q111.895 384.196 110.066 387.761 Q108.26 391.303 108.26 398.432 Q108.26 405.539 110.066 409.104 Q111.895 412.645 115.506 412.645 Q119.14 412.645 120.945 409.104 Q122.774 405.539 122.774 398.432 Q122.774 391.303 120.945 387.761 Q119.14 384.196 115.506 384.196 M115.506 380.493 Q121.316 380.493 124.371 385.099 Q127.45 389.682 127.45 398.432 Q127.45 407.159 124.371 411.766 Q121.316 416.349 115.506 416.349 Q109.696 416.349 106.617 411.766 Q103.561 407.159 103.561 398.432 Q103.561 389.682 106.617 385.099 Q109.696 380.493 115.506 380.493 Z" fill="#000000" fill-rule="evenodd" fill-opacity="1" /><path clip-path="url(#clip380)" d="M 0 0 M142.519 384.196 Q138.908 384.196 137.08 387.761 Q135.274 391.303 135.274 398.432 Q135.274 405.539 137.08 409.104 Q138.908 412.645 142.519 412.645 Q146.154 412.645 147.959 409.104 Q149.788 405.539 149.788 398.432 Q149.788 391.303 147.959 387.761 Q146.154 384.196 142.519 384.196 M142.519 380.493 Q148.33 380.493 151.385 385.099 Q154.464 389.682 154.464 398.432 Q154.464 407.159 151.385 411.766 Q148.33 416.349 142.519 416.349 Q136.709 416.349 133.631 411.766 Q130.575 407.159 130.575 398.432 Q130.575 389.682 133.631 385.099 Q136.709 380.493 142.519 380.493 Z" fill="#000000" fill-rule="evenodd" fill-opacity="1" /><path clip-path="url(#clip380)" d="M 0 0 M59.9273 225.004 L76.2466 225.004 L76.2466 228.939 L54.3023 228.939 L54.3023 225.004 Q56.9643 222.249 61.5476 217.62 Q66.1541 212.967 67.3346 211.624 Q69.58 209.101 70.4596 207.365 Q71.3624 205.606 71.3624 203.916 Q71.3624 201.161 69.418 199.425 Q67.4967 197.689 64.3948 197.689 Q62.1958 197.689 59.7421 198.453 Q57.3115 199.217 54.5338 200.768 L54.5338 196.046 Q57.3578 194.911 59.8115 194.333 Q62.2652 193.754 64.3022 193.754 Q69.6726 193.754 72.867 196.439 Q76.0614 199.124 76.0614 203.615 Q76.0614 205.745 75.2513 207.666 Q74.4642 209.564 72.3578 212.157 Q71.7791 212.828 68.6772 216.046 Q65.5754 219.24 59.9273 225.004 Z" fill="#000000" fill-rule="evenodd" fill-opacity="1" /><path clip-path="url(#clip380)" d="M 0 0 M82.1262 225.004 L89.7651 225.004 L89.7651 198.638 L81.4549 200.305 L81.4549 196.046 L89.7188 194.379 L94.3947 194.379 L94.3947 225.004 L102.034 225.004 L102.034 228.939 L82.1262 228.939 L82.1262 225.004 Z" fill="#000000" fill-rule="evenodd" fill-opacity="1" /><path clip-path="url(#clip380)" d="M 0 0 M111.131 225.004 L127.45 225.004 L127.45 228.939 L105.506 228.939 L105.506 225.004 Q108.168 222.249 112.751 217.62 Q117.358 212.967 118.538 211.624 Q120.783 209.101 121.663 207.365 Q122.566 205.606 122.566 203.916 Q122.566 201.161 120.621 199.425 Q118.7 197.689 115.598 197.689 Q113.399 197.689 110.946 198.453 Q108.515 199.217 105.737 200.768 L105.737 196.046 Q108.561 194.911 111.015 194.333 Q113.469 193.754 115.506 193.754 Q120.876 193.754 124.07 196.439 Q127.265 199.124 127.265 203.615 Q127.265 205.745 126.455 207.666 Q125.668 209.564 123.561 212.157 Q122.982 212.828 119.881 216.046 Q116.779 219.24 111.131 225.004 Z" fill="#000000" fill-rule="evenodd" fill-opacity="1" /><path clip-path="url(#clip380)" d="M 0 0 M142.519 197.458 Q138.908 197.458 137.08 201.023 Q135.274 204.564 135.274 211.694 Q135.274 218.8 137.08 222.365 Q138.908 225.907 142.519 225.907 Q146.154 225.907 147.959 222.365 Q149.788 218.8 149.788 211.694 Q149.788 204.564 147.959 201.023 Q146.154 197.458 142.519 197.458 M142.519 193.754 Q148.33 193.754 151.385 198.361 Q154.464 202.944 154.464 211.694 Q154.464 220.421 151.385 225.027 Q148.33 229.61 142.519 229.61 Q136.709 229.61 133.631 225.027 Q130.575 220.421 130.575 211.694 Q130.575 202.944 133.631 198.361 Q136.709 193.754 142.519 193.754 Z" fill="#000000" fill-rule="evenodd" fill-opacity="1" /><path clip-path="url(#clip382)" d="
M297.789 408.482 L297.789 398.398 L251.661 398.398 L251.661 134.069 L297.789 134.069 L297.789 84.1175 L297.789 134.069 L343.917 134.069 L343.917 398.398 L297.789 398.398 
  L297.789 408.482  Z
  " fill="#008000" fill-rule="evenodd" fill-opacity="1"/>
<polyline clip-path="url(#clip382)" style="stroke:#008000; stroke-width:2; stroke-opacity:1; fill:none" points="
  297.789,408.482 297.789,398.398 251.661,398.398 251.661,134.069 297.789,134.069 297.789,84.1175 297.789,134.069 343.917,134.069 343.917,398.398 297.789,398.398 
  297.789,408.482 
  "/>
<path clip-path="url(#clip382)" d="
M400.297 363.758 L400.297 301.388 L354.168 301.388 L354.168 237.803 L400.297 237.803 L400.297 92.7523 L400.297 237.803 L446.425 237.803 L446.425 301.388 L400.297 301.388 
  L400.297 363.758  Z
  " fill="#008000" fill-rule="evenodd" fill-opacity="1"/>
<polyline clip-path="url(#clip382)" style="stroke:#008000; stroke-width:2; stroke-opacity:1; fill:none" points="
  400.297,363.758 400.297,301.388 354.168,301.388 354.168,237.803 400.297,237.803 400.297,92.7523 400.297,237.803 446.425,237.803 446.425,301.388 400.297,301.388 
  400.297,363.758 
  "/>
<path clip-path="url(#clip382)" d="
M502.804 422.581 L502.804 387.755 L456.676 387.755 L456.676 218.475 L502.804 218.475 L502.804 113.341 L502.804 218.475 L548.932 218.475 L548.932 387.755 L502.804 387.755 
  L502.804 422.581  Z
  " fill="#ff0000" fill-rule="evenodd" fill-opacity="1"/>
<polyline clip-path="url(#clip382)" style="stroke:#ff0000; stroke-width:2; stroke-opacity:1; fill:none" points="
  502.804,422.581 502.804,387.755 456.676,387.755 456.676,218.475 502.804,218.475 502.804,113.341 502.804,218.475 548.932,218.475 548.932,387.755 502.804,387.755 
  502.804,422.581 
  "/>
<path clip-path="url(#clip382)" d="
M605.311 751.895 L605.311 726.312 L559.183 726.312 L559.183 706.516 L605.311 706.516 L605.311 478.509 L605.311 706.516 L651.44 706.516 L651.44 726.312 L605.311 726.312 
  L605.311 751.895  Z
  " fill="#ff0000" fill-rule="evenodd" fill-opacity="1"/>
<polyline clip-path="url(#clip382)" style="stroke:#ff0000; stroke-width:2; stroke-opacity:1; fill:none" points="
  605.311,751.895 605.311,726.312 559.183,726.312 559.183,706.516 605.311,706.516 605.311,478.509 605.311,706.516 651.44,706.516 651.44,726.312 605.311,726.312 
  605.311,751.895 
  "/>
<path clip-path="url(#clip382)" d="
M707.819 1313.23 L707.819 1098.57 L661.691 1098.57 L661.691 670.475 L707.819 670.475 L707.819 566.369 L707.819 670.475 L753.947 670.475 L753.947 1098.57 L707.819 1098.57 
  L707.819 1313.23  Z
  " fill="#008000" fill-rule="evenodd" fill-opacity="1"/>
<polyline clip-path="url(#clip382)" style="stroke:#008000; stroke-width:2; stroke-opacity:1; fill:none" points="
  707.819,1313.23 707.819,1098.57 661.691,1098.57 661.691,670.475 707.819,670.475 707.819,566.369 707.819,670.475 753.947,670.475 753.947,1098.57 707.819,1098.57 
  707.819,1313.23 
  "/>
<path clip-path="url(#clip382)" d="
M810.326 976.073 L810.326 941.527 L764.198 941.527 L764.198 443.496 L810.326 443.496 L810.326 391.115 L810.326 443.496 L856.455 443.496 L856.455 941.527 L810.326 941.527 
  L810.326 976.073  Z
  " fill="#008000" fill-rule="evenodd" fill-opacity="1"/>
<polyline clip-path="url(#clip382)" style="stroke:#008000; stroke-width:2; stroke-opacity:1; fill:none" points="
  810.326,976.073 810.326,941.527 764.198,941.527 764.198,443.496 810.326,443.496 810.326,391.115 810.326,443.496 856.455,443.496 856.455,941.527 810.326,941.527 
  810.326,976.073 
  "/>
<path clip-path="url(#clip382)" d="
M912.834 1133.31 L912.834 1039.28 L866.705 1039.28 L866.705 702.315 L912.834 702.315 L912.834 446.204 L912.834 702.315 L958.962 702.315 L958.962 1039.28 L912.834 1039.28 
  L912.834 1133.31  Z
  " fill="#ff0000" fill-rule="evenodd" fill-opacity="1"/>
<polyline clip-path="url(#clip382)" style="stroke:#ff0000; stroke-width:2; stroke-opacity:1; fill:none" points="
  912.834,1133.31 912.834,1039.28 866.705,1039.28 866.705,702.315 912.834,702.315 912.834,446.204 912.834,702.315 958.962,702.315 958.962,1039.28 912.834,1039.28 
  912.834,1133.31 
  "/>
<path clip-path="url(#clip382)" d="
M1015.34 1182.14 L1015.34 987.931 L969.213 987.931 L969.213 860.389 L1015.34 860.389 L1015.34 669.075 L1015.34 860.389 L1061.47 860.389 L1061.47 987.931 L1015.34 987.931 
  L1015.34 1182.14  Z
  " fill="#ff0000" fill-rule="evenodd" fill-opacity="1"/>
<polyline clip-path="url(#clip382)" style="stroke:#ff0000; stroke-width:2; stroke-opacity:1; fill:none" points="
  1015.34,1182.14 1015.34,987.931 969.213,987.931 969.213,860.389 1015.34,860.389 1015.34,669.075 1015.34,860.389 1061.47,860.389 1061.47,987.931 1015.34,987.931 
  1015.34,1182.14 
  "/>
<path clip-path="url(#clip382)" d="
M1117.85 901.658 L1117.85 804.367 L1071.72 804.367 L1071.72 571.037 L1117.85 571.037 L1117.85 524.259 L1117.85 571.037 L1163.98 571.037 L1163.98 804.367 L1117.85 804.367 
  L1117.85 901.658  Z
  " fill="#008000" fill-rule="evenodd" fill-opacity="1"/>
<polyline clip-path="url(#clip382)" style="stroke:#008000; stroke-width:2; stroke-opacity:1; fill:none" points="
  1117.85,901.658 1117.85,804.367 1071.72,804.367 1071.72,571.037 1117.85,571.037 1117.85,524.259 1117.85,571.037 1163.98,571.037 1163.98,804.367 1117.85,804.367 
  1117.85,901.658 
  "/>
<path clip-path="url(#clip382)" d="
M1220.36 666.741 L1220.36 623.977 L1174.23 623.977 L1174.23 620.71 L1220.36 620.71 L1220.36 357.594 L1220.36 620.71 L1266.48 620.71 L1266.48 623.977 L1220.36 623.977 
  L1220.36 666.741  Z
  " fill="#ff0000" fill-rule="evenodd" fill-opacity="1"/>
<polyline clip-path="url(#clip382)" style="stroke:#ff0000; stroke-width:2; stroke-opacity:1; fill:none" points="
  1220.36,666.741 1220.36,623.977 1174.23,623.977 1174.23,620.71 1220.36,620.71 1220.36,357.594 1220.36,620.71 1266.48,620.71 1266.48,623.977 1220.36,623.977 
  1220.36,666.741 
  "/>
<path clip-path="url(#clip382)" d="
M1322.86 1238.72 L1322.86 1082.7 L1276.74 1082.7 L1276.74 704.556 L1322.86 704.556 L1322.86 505.604 L1322.86 704.556 L1368.99 704.556 L1368.99 1082.7 L1322.86 1082.7 
  L1322.86 1238.72  Z
  " fill="#ff0000" fill-rule="evenodd" fill-opacity="1"/>
<polyline clip-path="url(#clip382)" style="stroke:#ff0000; stroke-width:2; stroke-opacity:1; fill:none" points="
  1322.86,1238.72 1322.86,1082.7 1276.74,1082.7 1276.74,704.556 1322.86,704.556 1322.86,505.604 1322.86,704.556 1368.99,704.556 1368.99,1082.7 1322.86,1082.7 
  1322.86,1238.72 
  "/>
<path clip-path="url(#clip382)" d="
M1425.37 1142.83 L1425.37 1113.89 L1379.24 1113.89 L1379.24 873.74 L1425.37 873.74 L1425.37 498.863 L1425.37 873.74 L1471.5 873.74 L1471.5 1113.89 L1425.37 1113.89 
  L1425.37 1142.83  Z
  " fill="#008000" fill-rule="evenodd" fill-opacity="1"/>
<polyline clip-path="url(#clip382)" style="stroke:#008000; stroke-width:2; stroke-opacity:1; fill:none" points="
  1425.37,1142.83 1425.37,1113.89 1379.24,1113.89 1379.24,873.74 1425.37,873.74 1425.37,498.863 1425.37,873.74 1471.5,873.74 1471.5,1113.89 1425.37,1113.89 
  1425.37,1142.83 
  "/>
<path clip-path="url(#clip382)" d="
M1527.88 898.717 L1527.88 649.373 L1481.75 649.373 L1481.75 318.66 L1527.88 318.66 L1527.88 229.305 L1527.88 318.66 L1574.01 318.66 L1574.01 649.373 L1527.88 649.373 
  L1527.88 898.717  Z
  " fill="#008000" fill-rule="evenodd" fill-opacity="1"/>
<polyline clip-path="url(#clip382)" style="stroke:#008000; stroke-width:2; stroke-opacity:1; fill:none" points="
  1527.88,898.717 1527.88,649.373 1481.75,649.373 1481.75,318.66 1527.88,318.66 1527.88,229.305 1527.88,318.66 1574.01,318.66 1574.01,649.373 1527.88,649.373 
  1527.88,898.717 
  "/>
<path clip-path="url(#clip382)" d="
M1630.39 1130.32 L1630.39 1106.42 L1584.26 1106.42 L1584.26 387.848 L1630.39 387.848 L1630.39 129.4 L1630.39 387.848 L1676.51 387.848 L1676.51 1106.42 L1630.39 1106.42 
  L1630.39 1130.32  Z
  " fill="#ff0000" fill-rule="evenodd" fill-opacity="1"/>
<polyline clip-path="url(#clip382)" style="stroke:#ff0000; stroke-width:2; stroke-opacity:1; fill:none" points="
  1630.39,1130.32 1630.39,1106.42 1584.26,1106.42 1584.26,387.848 1630.39,387.848 1630.39,129.4 1630.39,387.848 1676.51,387.848 1676.51,1106.42 1630.39,1106.42 
  1630.39,1130.32 
  "/>
<path clip-path="url(#clip382)" d="
M1732.89 885.506 L1732.89 840.035 L1686.77 840.035 L1686.77 678.505 L1732.89 678.505 L1732.89 603.436 L1732.89 678.505 L1779.02 678.505 L1779.02 840.035 L1732.89 840.035 
  L1732.89 885.506  Z
  " fill="#ff0000" fill-rule="evenodd" fill-opacity="1"/>
<polyline clip-path="url(#clip382)" style="stroke:#ff0000; stroke-width:2; stroke-opacity:1; fill:none" points="
  1732.89,885.506 1732.89,840.035 1686.77,840.035 1686.77,678.505 1732.89,678.505 1732.89,603.436 1732.89,678.505 1779.02,678.505 1779.02,840.035 1732.89,840.035 
  1732.89,885.506 
  "/>
<path clip-path="url(#clip382)" d="
M1835.4 1020.52 L1835.4 818.279 L1789.27 818.279 L1789.27 662.072 L1835.4 662.072 L1835.4 631.821 L1835.4 662.072 L1881.53 662.072 L1881.53 818.279 L1835.4 818.279 
  L1835.4 1020.52  Z
  " fill="#ff0000" fill-rule="evenodd" fill-opacity="1"/>
<polyline clip-path="url(#clip382)" style="stroke:#ff0000; stroke-width:2; stroke-opacity:1; fill:none" points="
  1835.4,1020.52 1835.4,818.279 1789.27,818.279 1789.27,662.072 1835.4,662.072 1835.4,631.821 1835.4,662.072 1881.53,662.072 1881.53,818.279 1835.4,818.279 
  1835.4,1020.52 
  "/>
<path clip-path="url(#clip382)" d="
M1937.91 656.285 L1937.91 640.597 L1891.78 640.597 L1891.78 260.491 L1937.91 260.491 L1937.91 158.439 L1937.91 260.491 L1984.04 260.491 L1984.04 640.597 L1937.91 640.597 
  L1937.91 656.285  Z
  " fill="#008000" fill-rule="evenodd" fill-opacity="1"/>
<polyline clip-path="url(#clip382)" style="stroke:#008000; stroke-width:2; stroke-opacity:1; fill:none" points="
  1937.91,656.285 1937.91,640.597 1891.78,640.597 1891.78,260.491 1937.91,260.491 1937.91,158.439 1937.91,260.491 1984.04,260.491 1984.04,640.597 1937.91,640.597 
  1937.91,656.285 
  "/>
<path clip-path="url(#clip382)" d="
M2040.42 888.119 L2040.42 753.949 L1994.29 753.949 L1994.29 538.452 L2040.42 538.452 L2040.42 489.339 L2040.42 538.452 L2086.54 538.452 L2086.54 753.949 L2040.42 753.949 
  L2040.42 888.119  Z
  " fill="#ff0000" fill-rule="evenodd" fill-opacity="1"/>
<polyline clip-path="url(#clip382)" style="stroke:#ff0000; stroke-width:2; stroke-opacity:1; fill:none" points="
  2040.42,888.119 2040.42,753.949 1994.29,753.949 1994.29,538.452 2040.42,538.452 2040.42,489.339 2040.42,538.452 2086.54,538.452 2086.54,753.949 2040.42,753.949 
  2040.42,888.119 
  "/>
<path clip-path="url(#clip382)" d="
M2142.92 925.841 L2142.92 750.399 L2096.79 750.399 L2096.79 711.278 L2142.92 711.278 L2142.92 705.956 L2142.92 711.278 L2189.05 711.278 L2189.05 750.399 L2142.92 750.399 
  L2142.92 925.841  Z
  " fill="#008000" fill-rule="evenodd" fill-opacity="1"/>
<polyline clip-path="url(#clip382)" style="stroke:#008000; stroke-width:2; stroke-opacity:1; fill:none" points="
  2142.92,925.841 2142.92,750.399 2096.79,750.399 2096.79,711.278 2142.92,711.278 2142.92,705.956 2142.92,711.278 2189.05,711.278 2189.05,750.399 2142.92,750.399 
  2142.92,925.841 
  "/>
<path clip-path="url(#clip382)" d="
M2245.43 678.505 L2245.43 594.567 L2199.3 594.567 L2199.3 468.238 L2245.43 468.238 L2245.43 178.419 L2245.43 468.238 L2291.56 468.238 L2291.56 594.567 L2245.43 594.567 
  L2245.43 678.505  Z
  " fill="#008000" fill-rule="evenodd" fill-opacity="1"/>
<polyline clip-path="url(#clip382)" style="stroke:#008000; stroke-width:2; stroke-opacity:1; fill:none" points="
  2245.43,678.505 2245.43,594.567 2199.3,594.567 2199.3,468.238 2245.43,468.238 2245.43,178.419 2245.43,468.238 2291.56,468.238 2291.56,594.567 2245.43,594.567 
  2245.43,678.505 
  "/>
<circle clip-path="url(#clip382)" cx="297.789" cy="266.233" r="3" fill="#008000" fill-rule="evenodd" fill-opacity="1" stroke="#000000" stroke-opacity="1" stroke-width="0"/>
<circle clip-path="url(#clip382)" cx="400.297" cy="269.595" r="3" fill="#008000" fill-rule="evenodd" fill-opacity="1" stroke="#000000" stroke-opacity="1" stroke-width="0"/>
<circle clip-path="url(#clip382)" cx="502.804" cy="303.115" r="3" fill="#ff0000" fill-rule="evenodd" fill-opacity="1" stroke="#000000" stroke-opacity="1" stroke-width="0"/>
<circle clip-path="url(#clip382)" cx="605.311" cy="716.414" r="3" fill="#ff0000" fill-rule="evenodd" fill-opacity="1" stroke="#000000" stroke-opacity="1" stroke-width="0"/>
<circle clip-path="url(#clip382)" cx="707.819" cy="884.524" r="3" fill="#008000" fill-rule="evenodd" fill-opacity="1" stroke="#000000" stroke-opacity="1" stroke-width="0"/>
<circle clip-path="url(#clip382)" cx="810.326" cy="692.511" r="3" fill="#008000" fill-rule="evenodd" fill-opacity="1" stroke="#000000" stroke-opacity="1" stroke-width="0"/>
<circle clip-path="url(#clip382)" cx="912.834" cy="870.8" r="3" fill="#ff0000" fill-rule="evenodd" fill-opacity="1" stroke="#000000" stroke-opacity="1" stroke-width="0"/>
<circle clip-path="url(#clip382)" cx="1015.34" cy="924.16" r="3" fill="#ff0000" fill-rule="evenodd" fill-opacity="1" stroke="#000000" stroke-opacity="1" stroke-width="0"/>
<circle clip-path="url(#clip382)" cx="1117.85" cy="687.702" r="3" fill="#008000" fill-rule="evenodd" fill-opacity="1" stroke="#000000" stroke-opacity="1" stroke-width="0"/>
<circle clip-path="url(#clip382)" cx="1220.36" cy="622.344" r="3" fill="#ff0000" fill-rule="evenodd" fill-opacity="1" stroke="#000000" stroke-opacity="1" stroke-width="0"/>
<circle clip-path="url(#clip382)" cx="1322.86" cy="893.629" r="3" fill="#ff0000" fill-rule="evenodd" fill-opacity="1" stroke="#000000" stroke-opacity="1" stroke-width="0"/>
<circle clip-path="url(#clip382)" cx="1425.37" cy="993.813" r="3" fill="#008000" fill-rule="evenodd" fill-opacity="1" stroke="#000000" stroke-opacity="1" stroke-width="0"/>
<circle clip-path="url(#clip382)" cx="1527.88" cy="484.017" r="3" fill="#008000" fill-rule="evenodd" fill-opacity="1" stroke="#000000" stroke-opacity="1" stroke-width="0"/>
<circle clip-path="url(#clip382)" cx="1630.39" cy="747.132" r="3" fill="#ff0000" fill-rule="evenodd" fill-opacity="1" stroke="#000000" stroke-opacity="1" stroke-width="0"/>
<circle clip-path="url(#clip382)" cx="1732.89" cy="759.27" r="3" fill="#ff0000" fill-rule="evenodd" fill-opacity="1" stroke="#000000" stroke-opacity="1" stroke-width="0"/>
<circle clip-path="url(#clip382)" cx="1835.4" cy="740.176" r="3" fill="#ff0000" fill-rule="evenodd" fill-opacity="1" stroke="#000000" stroke-opacity="1" stroke-width="0"/>
<circle clip-path="url(#clip382)" cx="1937.91" cy="450.544" r="3" fill="#008000" fill-rule="evenodd" fill-opacity="1" stroke="#000000" stroke-opacity="1" stroke-width="0"/>
<circle clip-path="url(#clip382)" cx="2040.42" cy="646.2" r="3" fill="#ff0000" fill-rule="evenodd" fill-opacity="1" stroke="#000000" stroke-opacity="1" stroke-width="0"/>
<circle clip-path="url(#clip382)" cx="2142.92" cy="730.839" r="3" fill="#008000" fill-rule="evenodd" fill-opacity="1" stroke="#000000" stroke-opacity="1" stroke-width="0"/>
<circle clip-path="url(#clip382)" cx="2245.43" cy="531.402" r="3" fill="#008000" fill-rule="evenodd" fill-opacity="1" stroke="#000000" stroke-opacity="1" stroke-width="0"/>
</svg>
