<?xml version="1.0" encoding="utf-8"?>
<svg xmlns="http://www.w3.org/2000/svg" xmlns:xlink="http://www.w3.org/1999/xlink" width="600" height="400" viewBox="0 0 2400 1600">
<defs>
  <clipPath id="clip320">
    <rect x="0" y="0" width="2400" height="1600"/>
  </clipPath>
</defs>
<path clip-path="url(#clip320)" d="
M0 1600 L2400 1600 L2400 0 L0 0  Z
  " fill="#ffffff" fill-rule="evenodd" fill-opacity="1"/>
<defs>
  <clipPath id="clip321">
    <rect x="480" y="0" width="1681" height="1600"/>
  </clipPath>
</defs>
<path clip-path="url(#clip320)" d="
M188.774 1348.61 L2352.76 1348.61 L2352.76 47.2441 L188.774 47.2441  Z
  " fill="#ffffff" fill-rule="evenodd" fill-opacity="1"/>
<defs>
  <clipPath id="clip322">
    <rect x="188" y="47" width="2165" height="1302"/>
  </clipPath>
</defs>
<polyline clip-path="url(#clip322)" style="stroke:#000000; stroke-width:2; stroke-opacity:0.1; fill:none" points="
  291.967,1348.61 291.967,47.2441 
  "/>
<polyline clip-path="url(#clip322)" style="stroke:#000000; stroke-width:2; stroke-opacity:0.1; fill:none" points="
  385.186,1348.61 385.186,47.2441 
  "/>
<polyline clip-path="url(#clip322)" style="stroke:#000000; stroke-width:2; stroke-opacity:0.1; fill:none" points="
  478.405,1348.61 478.405,47.2441 
  "/>
<polyline clip-path="url(#clip322)" style="stroke:#000000; stroke-width:2; stroke-opacity:0.1; fill:none" points="
  571.624,1348.61 571.624,47.2441 
  "/>
<polyline clip-path="url(#clip322)" style="stroke:#000000; stroke-width:2; stroke-opacity:0.1; fill:none" points="
  664.843,1348.61 664.843,47.2441 
  "/>
<polyline clip-path="url(#clip322)" style="stroke:#000000; stroke-width:2; stroke-opacity:0.1; fill:none" points="
  758.061,1348.61 758.061,47.2441 
  "/>
<polyline clip-path="url(#clip322)" style="stroke:#000000; stroke-width:2; stroke-opacity:0.1; fill:none" points="
  851.28,1348.61 851.28,47.2441 
  "/>
<polyline clip-path="url(#clip322)" style="stroke:#000000; stroke-width:2; stroke-opacity:0.1; fill:none" points="
  944.499,1348.61 944.499,47.2441 
  "/>
<polyline clip-path="url(#clip322)" style="stroke:#000000; stroke-width:2; stroke-opacity:0.1; fill:none" points="
  1037.72,1348.61 1037.72,47.2441 
  "/>
<polyline clip-path="url(#clip322)" style="stroke:#000000; stroke-width:2; stroke-opacity:0.1; fill:none" points="
  1130.94,1348.61 1130.94,47.2441 
  "/>
<polyline clip-path="url(#clip322)" style="stroke:#000000; stroke-width:2; stroke-opacity:0.1; fill:none" points="
  1224.16,1348.61 1224.16,47.2441 
  "/>
<polyline clip-path="url(#clip322)" style="stroke:#000000; stroke-width:2; stroke-opacity:0.1; fill:none" points="
  1317.37,1348.61 1317.37,47.2441 
  "/>
<polyline clip-path="url(#clip322)" style="stroke:#000000; stroke-width:2; stroke-opacity:0.1; fill:none" points="
  1410.59,1348.61 1410.59,47.2441 
  "/>
<polyline clip-path="url(#clip322)" style="stroke:#000000; stroke-width:2; stroke-opacity:0.1; fill:none" points="
  1503.81,1348.61 1503.81,47.2441 
  "/>
<polyline clip-path="url(#clip322)" style="stroke:#000000; stroke-width:2; stroke-opacity:0.1; fill:none" points="
  1597.03,1348.61 1597.03,47.2441 
  "/>
<polyline clip-path="url(#clip322)" style="stroke:#000000; stroke-width:2; stroke-opacity:0.1; fill:none" points="
  1690.25,1348.61 1690.25,47.2441 
  "/>
<polyline clip-path="url(#clip322)" style="stroke:#000000; stroke-width:2; stroke-opacity:0.1; fill:none" points="
  1783.47,1348.61 1783.47,47.2441 
  "/>
<polyline clip-path="url(#clip322)" style="stroke:#000000; stroke-width:2; stroke-opacity:0.1; fill:none" points="
  1876.69,1348.61 1876.69,47.2441 
  "/>
<polyline clip-path="url(#clip322)" style="stroke:#000000; stroke-width:2; stroke-opacity:0.1; fill:none" points="
  1969.91,1348.61 1969.91,47.2441 
  "/>
<polyline clip-path="url(#clip322)" style="stroke:#000000; stroke-width:2; stroke-opacity:0.1; fill:none" points="
  2063.13,1348.61 2063.13,47.2441 
  "/>
<polyline clip-path="url(#clip322)" style="stroke:#000000; stroke-width:2; stroke-opacity:0.1; fill:none" points="
  2156.34,1348.61 2156.34,47.2441 
  "/>
<polyline clip-path="url(#clip322)" style="stroke:#000000; stroke-width:2; stroke-opacity:0.1; fill:none" points="
  2249.56,1348.61 2249.56,47.2441 
  "/>
<polyline clip-path="url(#clip322)" style="stroke:#000000; stroke-width:2; stroke-opacity:0.1; fill:none" points="
  188.774,1238.74 2352.76,1238.74 
  "/>
<polyline clip-path="url(#clip322)" style="stroke:#000000; stroke-width:2; stroke-opacity:0.1; fill:none" points="
  188.774,991.146 2352.76,991.146 
  "/>
<polyline clip-path="url(#clip322)" style="stroke:#000000; stroke-width:2; stroke-opacity:0.1; fill:none" points="
  188.774,743.556 2352.76,743.556 
  "/>
<polyline clip-path="url(#clip322)" style="stroke:#000000; stroke-width:2; stroke-opacity:0.1; fill:none" points="
  188.774,495.966 2352.76,495.966 
  "/>
<polyline clip-path="url(#clip322)" style="stroke:#000000; stroke-width:2; stroke-opacity:0.1; fill:none" points="
  188.774,248.376 2352.76,248.376 
  "/>
<polyline clip-path="url(#clip320)" style="stroke:#000000; stroke-width:4; stroke-opacity:1; fill:none" points="
  188.774,1348.61 2352.76,1348.61 
  "/>
<polyline clip-path="url(#clip320)" style="stroke:#000000; stroke-width:4; stroke-opacity:1; fill:none" points="
  188.774,1348.61 188.774,47.2441 
  "/>
<polyline clip-path="url(#clip320)" style="stroke:#000000; stroke-width:4; stroke-opacity:1; fill:none" points="
  291.967,1348.61 291.967,1332.99 
  "/>
<polyline clip-path="url(#clip320)" style="stroke:#000000; stroke-width:4; stroke-opacity:1; fill:none" points="
  385.186,1348.61 385.186,1332.99 
  "/>
<polyline clip-path="url(#clip320)" style="stroke:#000000; stroke-width:4; stroke-opacity:1; fill:none" points="
  478.405,1348.61 478.405,1332.99 
  "/>
<polyline clip-path="url(#clip320)" style="stroke:#000000; stroke-width:4; stroke-opacity:1; fill:none" points="
  571.624,1348.61 571.624,1332.99 
  "/>
<polyline clip-path="url(#clip320)" style="stroke:#000000; stroke-width:4; stroke-opacity:1; fill:none" points="
  664.843,1348.61 664.843,1332.99 
  "/>
<polyline clip-path="url(#clip320)" style="stroke:#000000; stroke-width:4; stroke-opacity:1; fill:none" points="
  758.061,1348.61 758.061,1332.99 
  "/>
<polyline clip-path="url(#clip320)" style="stroke:#000000; stroke-width:4; stroke-opacity:1; fill:none" points="
  851.28,1348.61 851.28,1332.99 
  "/>
<polyline clip-path="url(#clip320)" style="stroke:#000000; stroke-width:4; stroke-opacity:1; fill:none" points="
  944.499,1348.61 944.499,1332.99 
  "/>
<polyline clip-path="url(#clip320)" style="stroke:#000000; stroke-width:4; stroke-opacity:1; fill:none" points="
  1037.72,1348.61 1037.72,1332.99 
  "/>
<polyline clip-path="url(#clip320)" style="stroke:#000000; stroke-width:4; stroke-opacity:1; fill:none" points="
  1130.94,1348.61 1130.94,1332.99 
  "/>
<polyline clip-path="url(#clip320)" style="stroke:#000000; stroke-width:4; stroke-opacity:1; fill:none" points="
  1224.16,1348.61 1224.16,1332.99 
  "/>
<polyline clip-path="url(#clip320)" style="stroke:#000000; stroke-width:4; stroke-opacity:1; fill:none" points="
  1317.37,1348.61 1317.37,1332.99 
  "/>
<polyline clip-path="url(#clip320)" style="stroke:#000000; stroke-width:4; stroke-opacity:1; fill:none" points="
  1410.59,1348.61 1410.59,1332.99 
  "/>
<polyline clip-path="url(#clip320)" style="stroke:#000000; stroke-width:4; stroke-opacity:1; fill:none" points="
  1503.81,1348.61 1503.81,1332.99 
  "/>
<polyline clip-path="url(#clip320)" style="stroke:#000000; stroke-width:4; stroke-opacity:1; fill:none" points="
  1597.03,1348.61 1597.03,1332.99 
  "/>
<polyline clip-path="url(#clip320)" style="stroke:#000000; stroke-width:4; stroke-opacity:1; fill:none" points="
  1690.25,1348.61 1690.25,1332.99 
  "/>
<polyline clip-path="url(#clip320)" style="stroke:#000000; stroke-width:4; stroke-opacity:1; fill:none" points="
  1783.47,1348.61 1783.47,1332.99 
  "/>
<polyline clip-path="url(#clip320)" style="stroke:#000000; stroke-width:4; stroke-opacity:1; fill:none" points="
  1876.69,1348.61 1876.69,1332.99 
  "/>
<polyline clip-path="url(#clip320)" style="stroke:#000000; stroke-width:4; stroke-opacity:1; fill:none" points="
  1969.91,1348.61 1969.91,1332.99 
  "/>
<polyline clip-path="url(#clip320)" style="stroke:#000000; stroke-width:4; stroke-opacity:1; fill:none" points="
  2063.13,1348.61 2063.13,1332.99 
  "/>
<polyline clip-path="url(#clip320)" style="stroke:#000000; stroke-width:4; stroke-opacity:1; fill:none" points="
  2156.34,1348.61 2156.34,1332.99 
  "/>
<polyline clip-path="url(#clip320)" style="stroke:#000000; stroke-width:4; stroke-opacity:1; fill:none" points="
  2249.56,1348.61 2249.56,1332.99 
  "/>
<polyline clip-path="url(#clip320)" style="stroke:#000000; stroke-width:4; stroke-opacity:1; fill:none" points="
  188.774,1238.74 214.742,1238.74 
  "/>
<polyline clip-path="url(#clip320)" style="stroke:#000000; stroke-width:4; stroke-opacity:1; fill:none" points="
  188.774,991.146 214.742,991.146 
  "/>
<polyline clip-path="url(#clip320)" style="stroke:#000000; stroke-width:4; stroke-opacity:1; fill:none" points="
  188.774,743.556 214.742,743.556 
  "/>
<polyline clip-path="url(#clip320)" style="stroke:#000000; stroke-width:4; stroke-opacity:1; fill:none" points="
  188.774,495.966 214.742,495.966 
  "/>
<polyline clip-path="url(#clip320)" style="stroke:#000000; stroke-width:4; stroke-opacity:1; fill:none" points="
  188.774,248.376 214.742,248.376 
  "/>
<path clip-path="url(#clip320)" d="M 0 0 M209.233 1578.98 L217.392 1564.85 L220.8 1566.82 L209.828 1585.82 L206.42 1583.85 Q205.366 1580.17 203.648 1573.89 Q201.922 1567.57 201.349 1565.88 Q200.287 1562.67 199.223 1561.04 Q198.151 1559.38 196.688 1558.53 Q194.302 1557.16 191.826 1557.97 Q189.362 1558.77 187.811 1561.45 Q186.712 1563.36 186.146 1565.87 Q185.593 1568.35 185.547 1571.53 L181.457 1569.17 Q181.887 1566.16 182.613 1563.75 Q183.338 1561.33 184.357 1559.57 Q187.042 1554.92 190.965 1553.49 Q194.887 1552.07 198.777 1554.31 Q200.621 1555.38 201.88 1557.04 Q203.13 1558.67 204.322 1561.79 Q204.614 1562.63 205.85 1566.92 Q207.065 1571.21 209.233 1578.98 Z" fill="#000000" fill-rule="evenodd" fill-opacity="1" /><path clip-path="url(#clip320)" d="M 0 0 M201.071 1538.02 Q199.266 1541.15 201.439 1544.52 Q203.603 1547.85 209.777 1551.42 Q215.932 1554.97 219.922 1555.19 Q223.903 1555.38 225.709 1552.25 Q227.526 1549.1 225.362 1545.77 Q223.189 1542.4 217.034 1538.85 Q210.86 1535.28 206.878 1535.1 Q202.888 1534.88 201.071 1538.02 M197.864 1536.17 Q200.769 1531.14 206.286 1530.8 Q211.795 1530.42 219.372 1534.8 Q226.93 1539.16 229.38 1544.13 Q231.821 1549.07 228.916 1554.1 Q226.011 1559.13 220.503 1559.51 Q214.986 1559.85 207.428 1555.49 Q199.85 1551.11 197.409 1546.17 Q194.959 1541.2 197.864 1536.17 Z" fill="#000000" fill-rule="evenodd" fill-opacity="1" /><path clip-path="url(#clip320)" d="M 0 0 M235.448 1533.57 L243.607 1519.44 L247.015 1521.41 L236.043 1540.41 L232.635 1538.45 Q231.581 1534.76 229.863 1528.48 Q228.137 1522.16 227.564 1520.47 Q226.502 1517.26 225.438 1515.63 Q224.366 1513.97 222.903 1513.13 Q220.517 1511.75 218.041 1512.57 Q215.577 1513.36 214.026 1516.05 Q212.927 1517.95 212.362 1520.46 Q211.808 1522.95 211.762 1526.13 L207.673 1523.77 Q208.102 1520.75 208.828 1518.34 Q209.554 1515.92 210.572 1514.16 Q213.257 1509.51 217.18 1508.09 Q221.103 1506.66 224.992 1508.91 Q226.836 1509.97 228.095 1511.63 Q229.345 1513.27 230.537 1516.39 Q230.829 1517.22 232.065 1521.52 Q233.28 1525.8 235.448 1533.57 Z" fill="#000000" fill-rule="evenodd" fill-opacity="1" /><path clip-path="url(#clip320)" d="M 0 0 M227.286 1492.62 Q225.481 1495.75 227.654 1499.11 Q229.818 1502.45 235.993 1506.01 Q242.147 1509.56 246.137 1509.78 Q250.118 1509.97 251.924 1506.84 Q253.741 1503.7 251.577 1500.36 Q249.404 1496.99 243.249 1493.44 Q237.075 1489.88 233.094 1489.69 Q229.104 1489.47 227.286 1492.62 M224.079 1490.77 Q226.984 1485.73 232.501 1485.39 Q238.01 1485.02 245.587 1489.39 Q253.145 1493.76 255.595 1498.72 Q258.037 1503.66 255.131 1508.69 Q252.226 1513.73 246.718 1514.1 Q241.201 1514.44 233.643 1510.08 Q226.065 1505.71 223.624 1500.77 Q221.174 1495.8 224.079 1490.77 Z" fill="#000000" fill-rule="evenodd" fill-opacity="1" /><path clip-path="url(#clip320)" d="M 0 0 M248.79 1488.57 L255.028 1477.76 L258.316 1479.66 L252.077 1490.47 L248.79 1488.57 Z" fill="#000000" fill-rule="evenodd" fill-opacity="1" /><path clip-path="url(#clip320)" d="M 0 0 M248.189 1456.41 Q246.384 1459.54 248.556 1462.91 Q250.721 1466.24 256.895 1469.81 Q263.05 1473.36 267.04 1473.58 Q271.021 1473.77 272.827 1470.64 Q274.644 1467.49 272.479 1464.16 Q270.307 1460.79 264.152 1457.24 Q257.978 1453.67 253.996 1453.48 Q250.006 1453.27 248.189 1456.41 M244.982 1454.56 Q247.887 1449.53 253.404 1449.19 Q258.912 1448.81 266.49 1453.19 Q274.048 1457.55 276.498 1462.52 Q278.939 1467.46 276.034 1472.49 Q273.129 1477.52 267.62 1477.9 Q262.103 1478.24 254.546 1473.88 Q246.968 1469.5 244.527 1464.56 Q242.077 1459.59 244.982 1454.56 Z" fill="#000000" fill-rule="evenodd" fill-opacity="1" /><path clip-path="url(#clip320)" d="M 0 0 M274.746 1440.55 Q273.08 1443.44 273.663 1446 Q274.257 1448.53 276.964 1450.09 Q279.67 1451.66 282.163 1450.9 Q284.667 1450.13 286.334 1447.24 Q288 1444.36 287.417 1441.8 Q286.814 1439.23 284.128 1437.68 Q281.422 1436.12 278.917 1436.89 Q276.425 1437.65 274.746 1440.55 M270.684 1443.61 Q268.538 1445.84 265.909 1446.28 Q263.292 1446.69 260.726 1445.21 Q257.137 1443.14 256.522 1439.39 Q255.919 1435.62 258.489 1431.17 Q261.07 1426.7 264.624 1425.35 Q268.179 1424.01 271.767 1426.08 Q274.333 1427.57 275.273 1430.06 Q276.224 1432.53 275.372 1435.49 Q277.743 1432.96 280.665 1432.48 Q283.599 1431.98 286.466 1433.63 Q290.816 1436.15 291.602 1440.15 Q292.4 1444.14 289.541 1449.1 Q286.682 1454.05 282.817 1455.37 Q278.964 1456.67 274.614 1454.16 Q271.747 1452.51 270.712 1449.72 Q269.676 1446.93 270.684 1443.61 M263.433 1441.4 Q265.759 1442.74 267.895 1442.05 Q270.043 1441.34 271.559 1438.71 Q273.064 1436.11 272.606 1433.89 Q272.159 1431.66 269.834 1430.31 Q267.508 1428.97 265.349 1429.7 Q263.201 1430.41 261.696 1433.02 Q260.18 1435.65 260.638 1437.86 Q261.108 1440.06 263.433 1441.4 Z" fill="#000000" fill-rule="evenodd" fill-opacity="1" /><path clip-path="url(#clip320)" d="M 0 0 M283.153 1429.05 L289.391 1418.24 L292.679 1420.14 L286.441 1430.95 L283.153 1429.05 Z" fill="#000000" fill-rule="evenodd" fill-opacity="1" /><path clip-path="url(#clip320)" d="M 0 0 M301.813 1418.63 L305.633 1412.01 L282.799 1398.83 L280.088 1406.86 L276.399 1404.73 L279.088 1396.74 L281.426 1392.69 L307.947 1408 L311.767 1401.39 L315.175 1403.35 L305.221 1420.59 L301.813 1418.63 Z" fill="#000000" fill-rule="evenodd" fill-opacity="1" /><path clip-path="url(#clip320)" d="M 0 0 M316.315 1393.51 L324.475 1379.37 L327.883 1381.34 L316.911 1400.35 L313.503 1398.38 Q312.448 1394.7 310.731 1388.41 Q309.004 1382.1 308.432 1380.4 Q307.37 1377.2 306.306 1375.57 Q305.234 1373.91 303.77 1373.06 Q301.385 1371.68 298.909 1372.5 Q296.445 1373.3 294.894 1375.98 Q293.794 1377.89 293.229 1380.39 Q292.675 1382.88 292.63 1386.06 L288.54 1383.7 Q288.97 1380.69 289.696 1378.27 Q290.421 1375.86 291.44 1374.09 Q294.125 1369.44 298.048 1368.02 Q301.97 1366.6 305.859 1368.84 Q307.704 1369.91 308.962 1371.57 Q310.213 1373.2 311.405 1376.32 Q311.697 1377.16 312.932 1381.45 Q314.148 1385.73 316.315 1393.51 Z" fill="#000000" fill-rule="evenodd" fill-opacity="1" /><path clip-path="url(#clip320)" d="M 0 0 M488.542 1579.58 L496.702 1565.45 L500.11 1567.42 L489.137 1586.42 L485.729 1584.45 Q484.675 1580.77 482.957 1574.49 Q481.231 1568.17 480.659 1566.48 Q479.596 1563.27 478.532 1561.64 Q477.46 1559.98 475.997 1559.13 Q473.611 1557.76 471.136 1558.57 Q468.671 1559.37 467.121 1562.06 Q466.021 1563.96 465.456 1566.47 Q464.902 1568.95 464.856 1572.13 L460.767 1569.77 Q461.196 1566.76 461.922 1564.35 Q462.648 1561.93 463.666 1560.17 Q466.351 1555.52 470.274 1554.09 Q474.197 1552.67 478.086 1554.91 Q479.93 1555.98 481.189 1557.64 Q482.439 1559.27 483.631 1562.39 Q483.923 1563.23 485.159 1567.52 Q486.374 1571.81 488.542 1579.58 Z" fill="#000000" fill-rule="evenodd" fill-opacity="1" /><path clip-path="url(#clip320)" d="M 0 0 M480.381 1538.63 Q478.575 1541.75 480.748 1545.12 Q482.912 1548.45 489.087 1552.02 Q495.241 1555.57 499.231 1555.79 Q503.213 1555.98 505.018 1552.85 Q506.835 1549.7 504.671 1546.37 Q502.498 1543 496.344 1539.45 Q490.169 1535.88 486.188 1535.7 Q482.198 1535.48 480.381 1538.63 M477.173 1536.77 Q480.078 1531.74 485.595 1531.4 Q491.104 1531.02 498.682 1535.4 Q506.239 1539.76 508.689 1544.73 Q511.131 1549.67 508.226 1554.7 Q505.321 1559.73 499.812 1560.11 Q494.295 1560.45 486.737 1556.09 Q479.16 1551.71 476.718 1546.77 Q474.268 1541.81 477.173 1536.77 Z" fill="#000000" fill-rule="evenodd" fill-opacity="1" /><path clip-path="url(#clip320)" d="M 0 0 M514.757 1534.18 L522.917 1520.04 L526.325 1522.01 L515.353 1541.01 L511.945 1539.05 Q510.89 1535.36 509.172 1529.08 Q507.446 1522.76 506.874 1521.07 Q505.811 1517.87 504.748 1516.24 Q503.675 1514.57 502.212 1513.73 Q499.826 1512.35 497.351 1513.17 Q494.887 1513.96 493.336 1516.65 Q492.236 1518.55 491.671 1521.06 Q491.117 1523.55 491.071 1526.73 L486.982 1524.37 Q487.412 1521.35 488.137 1518.94 Q488.863 1516.53 489.881 1514.76 Q492.567 1510.11 496.489 1508.69 Q500.412 1507.26 504.301 1509.51 Q506.145 1510.57 507.404 1512.24 Q508.654 1513.87 509.846 1516.99 Q510.138 1517.82 511.374 1522.12 Q512.589 1526.4 514.757 1534.18 Z" fill="#000000" fill-rule="evenodd" fill-opacity="1" /><path clip-path="url(#clip320)" d="M 0 0 M506.596 1493.22 Q504.79 1496.35 506.963 1499.71 Q509.127 1503.05 515.302 1506.61 Q521.456 1510.17 525.446 1510.38 Q529.428 1510.57 531.233 1507.44 Q533.05 1504.3 530.886 1500.96 Q528.713 1497.6 522.559 1494.04 Q516.384 1490.48 512.403 1490.29 Q508.413 1490.07 506.596 1493.22 M503.388 1491.37 Q506.293 1486.34 511.81 1485.99 Q517.319 1485.62 524.897 1489.99 Q532.454 1494.36 534.904 1499.33 Q537.346 1504.26 534.441 1509.3 Q531.536 1514.33 526.027 1514.7 Q520.51 1515.04 512.952 1510.68 Q505.375 1506.31 502.933 1501.37 Q500.483 1496.4 503.388 1491.37 Z" fill="#000000" fill-rule="evenodd" fill-opacity="1" /><path clip-path="url(#clip320)" d="M 0 0 M528.099 1489.17 L534.337 1478.36 L537.625 1480.26 L531.387 1491.07 L528.099 1489.17 Z" fill="#000000" fill-rule="evenodd" fill-opacity="1" /><path clip-path="url(#clip320)" d="M 0 0 M527.498 1457.01 Q525.693 1460.14 527.866 1463.51 Q530.03 1466.84 536.205 1470.41 Q542.359 1473.96 546.349 1474.18 Q550.33 1474.37 552.136 1471.24 Q553.953 1468.09 551.789 1464.76 Q549.616 1461.39 543.461 1457.84 Q537.287 1454.27 533.306 1454.09 Q529.316 1453.87 527.498 1457.01 M524.291 1455.16 Q527.196 1450.13 532.713 1449.79 Q538.222 1449.41 545.799 1453.79 Q553.357 1458.15 555.807 1463.12 Q558.248 1468.06 555.343 1473.09 Q552.438 1478.12 546.93 1478.5 Q541.413 1478.84 533.855 1474.48 Q526.277 1470.1 523.836 1465.16 Q521.386 1460.19 524.291 1455.16 Z" fill="#000000" fill-rule="evenodd" fill-opacity="1" /><path clip-path="url(#clip320)" d="M 0 0 M554.056 1441.15 Q552.389 1444.04 552.972 1446.6 Q553.567 1449.13 556.273 1450.69 Q558.979 1452.26 561.472 1451.5 Q563.976 1450.73 565.643 1447.84 Q567.309 1444.96 566.726 1442.4 Q566.123 1439.84 563.437 1438.29 Q560.731 1436.72 558.227 1437.5 Q555.734 1438.25 554.056 1441.15 M549.994 1444.21 Q547.848 1446.44 545.219 1446.88 Q542.601 1447.29 540.035 1445.81 Q536.447 1443.74 535.832 1439.99 Q535.228 1436.22 537.798 1431.77 Q540.379 1427.3 543.934 1425.96 Q547.488 1424.61 551.077 1426.69 Q553.643 1428.17 554.582 1430.66 Q555.533 1433.13 554.681 1436.09 Q557.053 1433.56 559.975 1433.08 Q562.908 1432.58 565.775 1434.24 Q570.125 1436.75 570.911 1440.76 Q571.709 1444.75 568.85 1449.7 Q565.991 1454.65 562.127 1455.97 Q558.274 1457.28 553.923 1454.76 Q551.057 1453.11 550.021 1450.32 Q548.986 1447.53 549.994 1444.21 M542.742 1442 Q545.068 1443.34 547.204 1442.65 Q549.352 1441.94 550.868 1439.31 Q552.373 1436.71 551.915 1434.49 Q551.468 1432.26 549.143 1430.91 Q546.817 1429.57 544.658 1430.3 Q542.51 1431.01 541.005 1433.62 Q539.489 1436.25 539.947 1438.46 Q540.417 1440.66 542.742 1442 Z" fill="#000000" fill-rule="evenodd" fill-opacity="1" /><path clip-path="url(#clip320)" d="M 0 0 M562.462 1429.65 L568.701 1418.85 L571.988 1420.74 L565.75 1431.55 L562.462 1429.65 Z" fill="#000000" fill-rule="evenodd" fill-opacity="1" /><path clip-path="url(#clip320)" d="M 0 0 M581.122 1419.23 L584.942 1412.61 L562.109 1399.43 L559.397 1407.46 L555.708 1405.33 L558.397 1397.34 L560.735 1393.29 L587.257 1408.6 L591.076 1401.99 L594.484 1403.96 L584.53 1421.2 L581.122 1419.23 Z" fill="#000000" fill-rule="evenodd" fill-opacity="1" /><path clip-path="url(#clip320)" d="M 0 0 M566.499 1383.31 L577.61 1364.06 L579.334 1365.06 L601.266 1392.21 L598.824 1396.44 L578.205 1370.9 L569.907 1385.27 L566.499 1383.31 Z" fill="#000000" fill-rule="evenodd" fill-opacity="1" /><path clip-path="url(#clip320)" d="M 0 0 M767.932 1580.04 L776.092 1565.91 L779.5 1567.88 L768.528 1586.88 L765.12 1584.91 Q764.065 1581.23 762.347 1574.95 Q760.621 1568.63 760.049 1566.94 Q758.986 1563.73 757.923 1562.1 Q756.851 1560.44 755.387 1559.6 Q753.002 1558.22 750.526 1559.03 Q748.062 1559.83 746.511 1562.52 Q745.411 1564.42 744.846 1566.93 Q744.292 1569.41 744.246 1572.6 L740.157 1570.23 Q740.587 1567.22 741.312 1564.81 Q742.038 1562.39 743.057 1560.63 Q745.742 1555.98 749.664 1554.55 Q753.587 1553.13 757.476 1555.38 Q759.32 1556.44 760.579 1558.1 Q761.829 1559.73 763.021 1562.85 Q763.313 1563.69 764.549 1567.99 Q765.765 1572.27 767.932 1580.04 Z" fill="#000000" fill-rule="evenodd" fill-opacity="1" /><path clip-path="url(#clip320)" d="M 0 0 M759.771 1539.09 Q757.965 1542.21 760.138 1545.58 Q762.303 1548.91 768.477 1552.48 Q774.631 1556.03 778.621 1556.25 Q782.603 1556.44 784.408 1553.31 Q786.226 1550.16 784.061 1546.83 Q781.888 1543.46 775.734 1539.91 Q769.56 1536.34 765.578 1536.16 Q761.588 1535.94 759.771 1539.09 M756.563 1537.23 Q759.468 1532.2 764.986 1531.86 Q770.494 1531.49 778.072 1535.86 Q785.629 1540.22 788.079 1545.19 Q790.521 1550.13 787.616 1555.16 Q784.711 1560.19 779.202 1560.57 Q773.685 1560.91 766.127 1556.55 Q758.55 1552.17 756.108 1547.24 Q753.658 1542.27 756.563 1537.23 Z" fill="#000000" fill-rule="evenodd" fill-opacity="1" /><path clip-path="url(#clip320)" d="M 0 0 M794.147 1534.64 L802.307 1520.5 L805.715 1522.47 L794.743 1541.48 L791.335 1539.51 Q790.28 1535.83 788.563 1529.54 Q786.836 1523.23 786.264 1521.53 Q785.202 1518.33 784.138 1516.7 Q783.066 1515.03 781.602 1514.19 Q779.217 1512.81 776.741 1513.63 Q774.277 1514.42 772.726 1517.11 Q771.626 1519.02 771.061 1521.52 Q770.507 1524.01 770.462 1527.19 L766.372 1524.83 Q766.802 1521.82 767.527 1519.4 Q768.253 1516.99 769.272 1515.22 Q771.957 1510.57 775.879 1509.15 Q779.802 1507.72 783.691 1509.97 Q785.536 1511.03 786.794 1512.7 Q788.045 1514.33 789.237 1517.45 Q789.529 1518.29 790.764 1522.58 Q791.98 1526.86 794.147 1534.64 Z" fill="#000000" fill-rule="evenodd" fill-opacity="1" /><path clip-path="url(#clip320)" d="M 0 0 M785.986 1493.68 Q784.18 1496.81 786.353 1500.17 Q788.518 1503.51 794.692 1507.07 Q800.847 1510.63 804.836 1510.85 Q808.818 1511.03 810.624 1507.9 Q812.441 1504.76 810.276 1501.42 Q808.103 1498.06 801.949 1494.5 Q795.775 1490.94 791.793 1490.75 Q787.803 1490.53 785.986 1493.68 M782.779 1491.83 Q785.684 1486.8 791.201 1486.45 Q796.709 1486.08 804.287 1490.45 Q811.845 1494.82 814.295 1499.79 Q816.736 1504.72 813.831 1509.76 Q810.926 1514.79 805.417 1515.16 Q799.9 1515.51 792.343 1511.14 Q784.765 1506.77 782.323 1501.83 Q779.873 1496.86 782.779 1491.83 Z" fill="#000000" fill-rule="evenodd" fill-opacity="1" /><path clip-path="url(#clip320)" d="M 0 0 M807.489 1489.63 L813.728 1478.82 L817.015 1480.72 L810.777 1491.53 L807.489 1489.63 Z" fill="#000000" fill-rule="evenodd" fill-opacity="1" /><path clip-path="url(#clip320)" d="M 0 0 M806.889 1457.48 Q805.083 1460.6 807.256 1463.97 Q809.42 1467.3 815.595 1470.87 Q821.749 1474.42 825.739 1474.64 Q829.721 1474.83 831.526 1471.7 Q833.343 1468.55 831.179 1465.22 Q829.006 1461.85 822.852 1458.3 Q816.677 1454.73 812.696 1454.55 Q808.706 1454.33 806.889 1457.48 M803.681 1455.62 Q806.586 1450.59 812.103 1450.25 Q817.612 1449.87 825.19 1454.25 Q832.747 1458.61 835.197 1463.58 Q837.639 1468.52 834.734 1473.55 Q831.829 1478.58 826.32 1478.96 Q820.803 1479.3 813.245 1474.94 Q805.668 1470.56 803.226 1465.63 Q800.776 1460.66 803.681 1455.62 Z" fill="#000000" fill-rule="evenodd" fill-opacity="1" /><path clip-path="url(#clip320)" d="M 0 0 M833.446 1441.62 Q831.779 1444.5 832.362 1447.06 Q832.957 1449.59 835.663 1451.16 Q838.369 1452.72 840.862 1451.97 Q843.366 1451.19 845.033 1448.31 Q846.7 1445.42 846.117 1442.86 Q845.514 1440.3 842.827 1438.75 Q840.121 1437.18 837.617 1437.96 Q835.124 1438.71 833.446 1441.62 M829.384 1444.67 Q827.238 1446.91 824.609 1447.34 Q821.991 1447.75 819.425 1446.27 Q815.837 1444.2 815.222 1440.45 Q814.619 1436.68 817.188 1432.23 Q819.769 1427.76 823.324 1426.42 Q826.879 1425.07 830.467 1427.15 Q833.033 1428.63 833.972 1431.12 Q834.923 1433.59 834.072 1436.55 Q836.443 1434.02 839.365 1433.54 Q842.299 1433.04 845.165 1434.7 Q849.516 1437.21 850.302 1441.22 Q851.099 1445.21 848.241 1450.16 Q845.382 1455.11 841.517 1456.43 Q837.664 1457.74 833.314 1455.22 Q830.447 1453.57 829.411 1450.78 Q828.376 1447.99 829.384 1444.67 M822.133 1442.46 Q824.458 1443.8 826.594 1443.11 Q828.742 1442.4 830.259 1439.78 Q831.763 1437.17 831.305 1434.95 Q830.859 1432.72 828.533 1431.38 Q826.208 1430.03 824.048 1430.76 Q821.9 1431.48 820.396 1434.08 Q818.879 1436.71 819.338 1438.92 Q819.807 1441.12 822.133 1442.46 Z" fill="#000000" fill-rule="evenodd" fill-opacity="1" /><path clip-path="url(#clip320)" d="M 0 0 M841.852 1430.11 L848.091 1419.31 L851.378 1421.2 L845.14 1432.01 L841.852 1430.11 Z" fill="#000000" fill-rule="evenodd" fill-opacity="1" /><path clip-path="url(#clip320)" d="M 0 0 M862.122 1416.9 L870.281 1402.77 L873.689 1404.74 L862.717 1423.74 L859.309 1421.77 Q858.254 1418.09 856.537 1411.81 Q854.811 1405.49 854.238 1403.8 Q853.176 1400.59 852.112 1398.96 Q851.04 1397.3 849.576 1396.46 Q847.191 1395.08 844.715 1395.89 Q842.251 1396.69 840.7 1399.38 Q839.601 1401.28 839.035 1403.79 Q838.482 1406.27 838.436 1409.46 L834.346 1407.09 Q834.776 1404.08 835.502 1401.67 Q836.227 1399.25 837.246 1397.49 Q839.931 1392.84 843.854 1391.41 Q847.776 1389.99 851.665 1392.24 Q853.51 1393.3 854.768 1394.96 Q856.019 1396.59 857.211 1399.71 Q857.503 1400.55 858.738 1404.85 Q859.954 1409.13 862.122 1416.9 Z" fill="#000000" fill-rule="evenodd" fill-opacity="1" /><path clip-path="url(#clip320)" d="M 0 0 M853.96 1375.95 Q852.155 1379.07 854.328 1382.44 Q856.492 1385.77 862.666 1389.34 Q868.821 1392.89 872.811 1393.11 Q876.792 1393.3 878.598 1390.17 Q880.415 1387.02 878.25 1383.69 Q876.078 1380.32 869.923 1376.77 Q863.749 1373.2 859.767 1373.02 Q855.777 1372.8 853.96 1375.95 M850.753 1374.09 Q853.658 1369.06 859.175 1368.72 Q864.683 1368.34 872.261 1372.72 Q879.819 1377.08 882.269 1382.05 Q884.71 1386.99 881.805 1392.02 Q878.9 1397.05 873.392 1397.43 Q867.874 1397.77 860.317 1393.41 Q852.739 1389.03 850.298 1384.1 Q847.848 1379.13 850.753 1374.09 Z" fill="#000000" fill-rule="evenodd" fill-opacity="1" /><path clip-path="url(#clip320)" d="M 0 0 M1048.09 1579.18 L1056.25 1565.05 L1059.65 1567.02 L1048.68 1586.02 L1045.27 1584.05 Q1044.22 1580.37 1042.5 1574.09 Q1040.78 1567.77 1040.2 1566.08 Q1039.14 1562.87 1038.08 1561.24 Q1037 1559.58 1035.54 1558.73 Q1033.16 1557.36 1030.68 1558.17 Q1028.22 1558.97 1026.66 1561.65 Q1025.57 1563.56 1025 1566.07 Q1024.45 1568.55 1024.4 1571.73 L1020.31 1569.37 Q1020.74 1566.36 1021.47 1563.95 Q1022.19 1561.53 1023.21 1559.77 Q1025.9 1555.12 1029.82 1553.69 Q1033.74 1552.27 1037.63 1554.51 Q1039.47 1555.58 1040.73 1557.24 Q1041.98 1558.87 1043.18 1561.99 Q1043.47 1562.83 1044.7 1567.12 Q1045.92 1571.41 1048.09 1579.18 Z" fill="#000000" fill-rule="evenodd" fill-opacity="1" /><path clip-path="url(#clip320)" d="M 0 0 M1039.93 1538.22 Q1038.12 1541.35 1040.29 1544.72 Q1042.46 1548.05 1048.63 1551.62 Q1054.79 1555.17 1058.78 1555.39 Q1062.76 1555.58 1064.56 1552.45 Q1066.38 1549.3 1064.22 1545.97 Q1062.04 1542.6 1055.89 1539.05 Q1049.71 1535.48 1045.73 1535.3 Q1041.74 1535.08 1039.93 1538.22 M1036.72 1536.37 Q1039.62 1531.34 1045.14 1531 Q1050.65 1530.62 1058.23 1535 Q1065.78 1539.36 1068.23 1544.33 Q1070.68 1549.27 1067.77 1554.3 Q1064.86 1559.33 1059.36 1559.71 Q1053.84 1560.05 1046.28 1555.69 Q1038.7 1551.31 1036.26 1546.37 Q1033.81 1541.4 1036.72 1536.37 Z" fill="#000000" fill-rule="evenodd" fill-opacity="1" /><path clip-path="url(#clip320)" d="M 0 0 M1074.3 1533.77 L1082.46 1519.64 L1085.87 1521.61 L1074.9 1540.61 L1071.49 1538.65 Q1070.43 1534.96 1068.72 1528.68 Q1066.99 1522.36 1066.42 1520.67 Q1065.36 1517.46 1064.29 1515.83 Q1063.22 1514.17 1061.76 1513.33 Q1059.37 1511.95 1056.9 1512.77 Q1054.43 1513.56 1052.88 1516.25 Q1051.78 1518.15 1051.22 1520.66 Q1050.66 1523.15 1050.62 1526.33 L1046.53 1523.97 Q1046.96 1520.95 1047.68 1518.54 Q1048.41 1516.13 1049.43 1514.36 Q1052.11 1509.71 1056.03 1508.29 Q1059.96 1506.86 1063.85 1509.11 Q1065.69 1510.17 1066.95 1511.84 Q1068.2 1513.47 1069.39 1516.59 Q1069.68 1517.42 1070.92 1521.72 Q1072.13 1526 1074.3 1533.77 Z" fill="#000000" fill-rule="evenodd" fill-opacity="1" /><path clip-path="url(#clip320)" d="M 0 0 M1066.14 1492.82 Q1064.33 1495.95 1066.51 1499.31 Q1068.67 1502.65 1074.85 1506.21 Q1081 1509.76 1084.99 1509.98 Q1088.97 1510.17 1090.78 1507.04 Q1092.59 1503.9 1090.43 1500.56 Q1088.26 1497.19 1082.1 1493.64 Q1075.93 1490.08 1071.95 1489.89 Q1067.96 1489.67 1066.14 1492.82 M1062.93 1490.97 Q1065.84 1485.93 1071.35 1485.59 Q1076.86 1485.22 1084.44 1489.59 Q1092 1493.96 1094.45 1498.93 Q1096.89 1503.86 1093.99 1508.89 Q1091.08 1513.93 1085.57 1514.3 Q1080.05 1514.64 1072.5 1510.28 Q1064.92 1505.91 1062.48 1500.97 Q1060.03 1496 1062.93 1490.97 Z" fill="#000000" fill-rule="evenodd" fill-opacity="1" /><path clip-path="url(#clip320)" d="M 0 0 M1087.64 1488.77 L1093.88 1477.96 L1097.17 1479.86 L1090.93 1490.67 L1087.64 1488.77 Z" fill="#000000" fill-rule="evenodd" fill-opacity="1" /><path clip-path="url(#clip320)" d="M 0 0 M1087.04 1456.61 Q1085.24 1459.74 1087.41 1463.11 Q1089.57 1466.44 1095.75 1470.01 Q1101.9 1473.56 1105.89 1473.78 Q1109.87 1473.97 1111.68 1470.84 Q1113.5 1467.69 1111.33 1464.36 Q1109.16 1460.99 1103.01 1457.44 Q1096.83 1453.87 1092.85 1453.69 Q1088.86 1453.47 1087.04 1456.61 M1083.84 1454.76 Q1086.74 1449.73 1092.26 1449.39 Q1097.77 1449.01 1105.34 1453.39 Q1112.9 1457.75 1115.35 1462.72 Q1117.79 1467.66 1114.89 1472.69 Q1111.98 1477.72 1106.47 1478.1 Q1100.96 1478.44 1093.4 1474.08 Q1085.82 1469.7 1083.38 1464.76 Q1080.93 1459.79 1083.84 1454.76 Z" fill="#000000" fill-rule="evenodd" fill-opacity="1" /><path clip-path="url(#clip320)" d="M 0 0 M1113.6 1440.75 Q1111.93 1443.64 1112.52 1446.2 Q1113.11 1448.73 1115.82 1450.29 Q1118.52 1451.86 1121.02 1451.1 Q1123.52 1450.33 1125.19 1447.44 Q1126.85 1444.56 1126.27 1442 Q1125.67 1439.44 1122.98 1437.88 Q1120.28 1436.32 1117.77 1437.09 Q1115.28 1437.85 1113.6 1440.75 M1109.54 1443.81 Q1107.39 1446.04 1104.76 1446.48 Q1102.15 1446.89 1099.58 1445.41 Q1095.99 1443.34 1095.38 1439.59 Q1094.77 1435.82 1097.34 1431.37 Q1099.92 1426.9 1103.48 1425.55 Q1107.03 1424.21 1110.62 1426.28 Q1113.19 1427.77 1114.13 1430.26 Q1115.08 1432.73 1114.23 1435.69 Q1116.6 1433.16 1119.52 1432.68 Q1122.45 1432.18 1125.32 1433.83 Q1129.67 1436.35 1130.46 1440.36 Q1131.25 1444.34 1128.39 1449.3 Q1125.54 1454.25 1121.67 1455.57 Q1117.82 1456.87 1113.47 1454.36 Q1110.6 1452.71 1109.57 1449.92 Q1108.53 1447.13 1109.54 1443.81 M1102.29 1441.6 Q1104.61 1442.94 1106.75 1442.25 Q1108.9 1441.54 1110.41 1438.91 Q1111.92 1436.31 1111.46 1434.09 Q1111.01 1431.86 1108.69 1430.51 Q1106.36 1429.17 1104.2 1429.9 Q1102.05 1430.61 1100.55 1433.22 Q1099.03 1435.85 1099.49 1438.06 Q1099.96 1440.26 1102.29 1441.6 Z" fill="#000000" fill-rule="evenodd" fill-opacity="1" /><path clip-path="url(#clip320)" d="M 0 0 M1122.01 1429.25 L1128.24 1418.44 L1131.53 1420.34 L1125.29 1431.15 L1122.01 1429.25 Z" fill="#000000" fill-rule="evenodd" fill-opacity="1" /><path clip-path="url(#clip320)" d="M 0 0 M1142.28 1416.04 L1150.44 1401.91 L1153.84 1403.87 L1142.87 1422.88 L1139.46 1420.91 Q1138.41 1417.23 1136.69 1410.94 Q1134.96 1404.63 1134.39 1402.94 Q1133.33 1399.73 1132.27 1398.1 Q1131.19 1396.44 1129.73 1395.59 Q1127.35 1394.22 1124.87 1395.03 Q1122.41 1395.83 1120.85 1398.51 Q1119.75 1400.42 1119.19 1402.93 Q1118.64 1405.41 1118.59 1408.59 L1114.5 1406.23 Q1114.93 1403.22 1115.66 1400.8 Q1116.38 1398.39 1117.4 1396.63 Q1120.09 1391.98 1124.01 1390.55 Q1127.93 1389.13 1131.82 1391.37 Q1133.66 1392.44 1134.92 1394.1 Q1136.17 1395.73 1137.36 1398.85 Q1137.66 1399.69 1138.89 1403.98 Q1140.11 1408.27 1142.28 1416.04 Z" fill="#000000" fill-rule="evenodd" fill-opacity="1" /><path clip-path="url(#clip320)" d="M 0 0 M1126.47 1382.16 L1135.65 1366.27 L1139.06 1368.23 L1132.02 1380.42 L1139.36 1384.66 Q1139.57 1383.6 1139.94 1382.64 Q1140.28 1381.67 1140.79 1380.78 Q1143.69 1375.77 1148.12 1374.43 Q1152.56 1373.09 1157.25 1375.8 Q1162.08 1378.59 1163.03 1383.15 Q1163.96 1387.69 1160.8 1393.16 Q1159.71 1395.05 1158.26 1396.83 Q1156.82 1398.59 1154.97 1400.3 L1150.9 1397.95 Q1152.92 1396.72 1154.52 1395.07 Q1156.11 1393.42 1157.35 1391.28 Q1159.35 1387.81 1158.69 1384.73 Q1158.04 1381.65 1154.91 1379.85 Q1151.78 1378.04 1148.79 1379.01 Q1145.8 1379.99 1143.8 1383.45 Q1142.86 1385.08 1142.28 1386.91 Q1141.72 1388.72 1141.51 1390.84 L1126.47 1382.16 Z" fill="#000000" fill-rule="evenodd" fill-opacity="1" /><path clip-path="url(#clip320)" d="M 0 0 M1327.29 1579.96 L1335.45 1565.83 L1338.86 1567.8 L1327.89 1586.8 L1324.48 1584.83 Q1323.42 1581.15 1321.71 1574.87 Q1319.98 1568.55 1319.41 1566.86 Q1318.35 1563.65 1317.28 1562.02 Q1316.21 1560.36 1314.75 1559.52 Q1312.36 1558.14 1309.89 1558.95 Q1307.42 1559.75 1305.87 1562.44 Q1304.77 1564.34 1304.21 1566.85 Q1303.65 1569.33 1303.61 1572.52 L1299.52 1570.15 Q1299.95 1567.14 1300.67 1564.73 Q1301.4 1562.31 1302.42 1560.55 Q1305.1 1555.9 1309.02 1554.47 Q1312.95 1553.05 1316.84 1555.3 Q1318.68 1556.36 1319.94 1558.02 Q1321.19 1559.65 1322.38 1562.77 Q1322.67 1563.61 1323.91 1567.91 Q1325.12 1572.19 1327.29 1579.96 Z" fill="#000000" fill-rule="evenodd" fill-opacity="1" /><path clip-path="url(#clip320)" d="M 0 0 M1319.13 1539.01 Q1317.32 1542.13 1319.5 1545.5 Q1321.66 1548.83 1327.84 1552.4 Q1333.99 1555.95 1337.98 1556.17 Q1341.96 1556.36 1343.77 1553.23 Q1345.58 1550.08 1343.42 1546.75 Q1341.25 1543.38 1335.09 1539.83 Q1328.92 1536.26 1324.94 1536.08 Q1320.95 1535.86 1319.13 1539.01 M1315.92 1537.15 Q1318.83 1532.12 1324.34 1531.78 Q1329.85 1531.41 1337.43 1535.78 Q1344.99 1540.14 1347.44 1545.11 Q1349.88 1550.05 1346.98 1555.08 Q1344.07 1560.11 1338.56 1560.49 Q1333.04 1560.83 1325.49 1556.47 Q1317.91 1552.09 1315.47 1547.16 Q1313.02 1542.19 1315.92 1537.15 Z" fill="#000000" fill-rule="evenodd" fill-opacity="1" /><path clip-path="url(#clip320)" d="M 0 0 M1353.51 1534.56 L1361.67 1520.42 L1365.07 1522.39 L1354.1 1541.4 L1350.69 1539.43 Q1349.64 1535.75 1347.92 1529.46 Q1346.2 1523.15 1345.62 1521.45 Q1344.56 1518.25 1343.5 1516.62 Q1342.42 1514.95 1340.96 1514.11 Q1338.58 1512.73 1336.1 1513.55 Q1333.64 1514.34 1332.09 1517.03 Q1330.99 1518.93 1330.42 1521.44 Q1329.87 1523.93 1329.82 1527.11 L1325.73 1524.75 Q1326.16 1521.74 1326.89 1519.32 Q1327.61 1516.91 1328.63 1515.14 Q1331.32 1510.49 1335.24 1509.07 Q1339.16 1507.64 1343.05 1509.89 Q1344.89 1510.95 1346.15 1512.62 Q1347.4 1514.25 1348.6 1517.37 Q1348.89 1518.2 1350.12 1522.5 Q1351.34 1526.78 1353.51 1534.56 Z" fill="#000000" fill-rule="evenodd" fill-opacity="1" /><path clip-path="url(#clip320)" d="M 0 0 M1345.35 1493.6 Q1343.54 1496.73 1345.71 1500.09 Q1347.88 1503.43 1354.05 1506.99 Q1360.21 1510.55 1364.2 1510.76 Q1368.18 1510.95 1369.98 1507.82 Q1371.8 1504.68 1369.64 1501.34 Q1367.46 1497.98 1361.31 1494.42 Q1355.13 1490.86 1351.15 1490.67 Q1347.16 1490.45 1345.35 1493.6 M1342.14 1491.75 Q1345.04 1486.72 1350.56 1486.37 Q1356.07 1486 1363.65 1490.37 Q1371.2 1494.74 1373.65 1499.71 Q1376.1 1504.64 1373.19 1509.68 Q1370.29 1514.71 1364.78 1515.08 Q1359.26 1515.43 1351.7 1511.06 Q1344.12 1506.69 1341.68 1501.75 Q1339.23 1496.78 1342.14 1491.75 Z" fill="#000000" fill-rule="evenodd" fill-opacity="1" /><path clip-path="url(#clip320)" d="M 0 0 M1366.85 1489.55 L1373.09 1478.74 L1376.37 1480.64 L1370.14 1491.45 L1366.85 1489.55 Z" fill="#000000" fill-rule="evenodd" fill-opacity="1" /><path clip-path="url(#clip320)" d="M 0 0 M1366.25 1457.4 Q1364.44 1460.52 1366.62 1463.89 Q1368.78 1467.22 1374.95 1470.79 Q1381.11 1474.34 1385.1 1474.56 Q1389.08 1474.75 1390.89 1471.62 Q1392.7 1468.47 1390.54 1465.14 Q1388.37 1461.77 1382.21 1458.22 Q1376.04 1454.65 1372.06 1454.47 Q1368.07 1454.25 1366.25 1457.4 M1363.04 1455.54 Q1365.95 1450.51 1371.46 1450.17 Q1376.97 1449.79 1384.55 1454.17 Q1392.11 1458.53 1394.56 1463.5 Q1397 1468.44 1394.09 1473.47 Q1391.19 1478.5 1385.68 1478.88 Q1380.16 1479.22 1372.6 1474.86 Q1365.03 1470.48 1362.59 1465.55 Q1360.14 1460.58 1363.04 1455.54 Z" fill="#000000" fill-rule="evenodd" fill-opacity="1" /><path clip-path="url(#clip320)" d="M 0 0 M1392.81 1441.54 Q1391.14 1444.42 1391.72 1446.98 Q1392.32 1449.51 1395.02 1451.08 Q1397.73 1452.64 1400.22 1451.89 Q1402.73 1451.11 1404.39 1448.23 Q1406.06 1445.34 1405.48 1442.78 Q1404.87 1440.22 1402.19 1438.67 Q1399.48 1437.1 1396.98 1437.88 Q1394.48 1438.63 1392.81 1441.54 M1388.74 1444.59 Q1386.6 1446.83 1383.97 1447.26 Q1381.35 1447.67 1378.78 1446.19 Q1375.2 1444.12 1374.58 1440.37 Q1373.98 1436.6 1376.55 1432.15 Q1379.13 1427.68 1382.68 1426.34 Q1386.24 1424.99 1389.83 1427.07 Q1392.39 1428.55 1393.33 1431.04 Q1394.28 1433.51 1393.43 1436.47 Q1395.8 1433.94 1398.72 1433.46 Q1401.66 1432.96 1404.52 1434.62 Q1408.87 1437.13 1409.66 1441.14 Q1410.46 1445.13 1407.6 1450.08 Q1404.74 1455.03 1400.88 1456.35 Q1397.02 1457.66 1392.67 1455.14 Q1389.81 1453.49 1388.77 1450.7 Q1387.74 1447.91 1388.74 1444.59 M1381.49 1442.38 Q1383.82 1443.72 1385.95 1443.03 Q1388.1 1442.32 1389.62 1439.7 Q1391.12 1437.09 1390.66 1434.87 Q1390.22 1432.64 1387.89 1431.3 Q1385.57 1429.95 1383.41 1430.68 Q1381.26 1431.4 1379.75 1434 Q1378.24 1436.63 1378.7 1438.84 Q1379.17 1441.04 1381.49 1442.38 Z" fill="#000000" fill-rule="evenodd" fill-opacity="1" /><path clip-path="url(#clip320)" d="M 0 0 M1401.21 1430.03 L1407.45 1419.23 L1410.74 1421.12 L1404.5 1431.93 L1401.21 1430.03 Z" fill="#000000" fill-rule="evenodd" fill-opacity="1" /><path clip-path="url(#clip320)" d="M 0 0 M1421.48 1416.82 L1429.64 1402.69 L1433.05 1404.66 L1422.08 1423.66 L1418.67 1421.69 Q1417.61 1418.01 1415.9 1411.73 Q1414.17 1405.41 1413.6 1403.72 Q1412.54 1400.51 1411.47 1398.88 Q1410.4 1397.22 1408.94 1396.38 Q1406.55 1395 1404.07 1395.81 Q1401.61 1396.61 1400.06 1399.3 Q1398.96 1401.2 1398.39 1403.71 Q1397.84 1406.19 1397.8 1409.37 L1393.71 1407.01 Q1394.14 1404 1394.86 1401.59 Q1395.59 1399.17 1396.61 1397.41 Q1399.29 1392.76 1403.21 1391.33 Q1407.14 1389.91 1411.02 1392.16 Q1412.87 1393.22 1414.13 1394.88 Q1415.38 1396.51 1416.57 1399.63 Q1416.86 1400.47 1418.1 1404.77 Q1419.31 1409.05 1421.48 1416.82 Z" fill="#000000" fill-rule="evenodd" fill-opacity="1" /><path clip-path="url(#clip320)" d="M 0 0 M1426.37 1383.4 Q1424.7 1386.29 1425.29 1388.84 Q1425.88 1391.38 1428.59 1392.94 Q1431.29 1394.5 1433.79 1393.75 Q1436.29 1392.98 1437.96 1390.09 Q1439.62 1387.2 1439.04 1384.65 Q1438.44 1382.08 1435.75 1380.53 Q1433.05 1378.97 1430.54 1379.74 Q1428.05 1380.49 1426.37 1383.4 M1422.31 1386.45 Q1420.16 1388.69 1417.53 1389.12 Q1414.92 1389.54 1412.35 1388.06 Q1408.76 1385.98 1408.15 1382.23 Q1407.54 1378.46 1410.11 1374.01 Q1412.69 1369.54 1416.25 1368.2 Q1419.8 1366.86 1423.39 1368.93 Q1425.96 1370.41 1426.9 1372.91 Q1427.85 1375.38 1427 1378.34 Q1429.37 1375.8 1432.29 1375.32 Q1435.22 1374.83 1438.09 1376.48 Q1442.44 1378.99 1443.23 1383 Q1444.02 1386.99 1441.16 1391.94 Q1438.31 1396.89 1434.44 1398.22 Q1430.59 1399.52 1426.24 1397.01 Q1423.37 1395.35 1422.34 1392.56 Q1421.3 1389.77 1422.31 1386.45 M1415.06 1384.25 Q1417.38 1385.59 1419.52 1384.9 Q1421.67 1384.19 1423.18 1381.56 Q1424.69 1378.95 1424.23 1376.74 Q1423.78 1374.5 1421.46 1373.16 Q1419.13 1371.82 1416.97 1372.55 Q1414.82 1373.26 1413.32 1375.87 Q1411.8 1378.49 1412.26 1380.71 Q1412.73 1382.9 1415.06 1384.25 Z" fill="#000000" fill-rule="evenodd" fill-opacity="1" /><path clip-path="url(#clip320)" d="M 0 0 M1606.95 1579.96 L1615.11 1565.83 L1618.52 1567.8 L1607.54 1586.8 L1604.14 1584.83 Q1603.08 1581.15 1601.36 1574.87 Q1599.64 1568.55 1599.06 1566.86 Q1598 1563.65 1596.94 1562.02 Q1595.87 1560.36 1594.4 1559.52 Q1592.02 1558.14 1589.54 1558.95 Q1587.08 1559.75 1585.53 1562.44 Q1584.43 1564.34 1583.86 1566.85 Q1583.31 1569.33 1583.26 1572.52 L1579.17 1570.15 Q1579.6 1567.14 1580.33 1564.73 Q1581.05 1562.31 1582.07 1560.55 Q1584.76 1555.9 1588.68 1554.47 Q1592.6 1553.05 1596.49 1555.3 Q1598.34 1556.36 1599.59 1558.02 Q1600.85 1559.65 1602.04 1562.77 Q1602.33 1563.61 1603.56 1567.91 Q1604.78 1572.19 1606.95 1579.96 Z" fill="#000000" fill-rule="evenodd" fill-opacity="1" /><path clip-path="url(#clip320)" d="M 0 0 M1598.79 1539.01 Q1596.98 1542.13 1599.15 1545.5 Q1601.32 1548.83 1607.49 1552.4 Q1613.65 1555.95 1617.64 1556.17 Q1621.62 1556.36 1623.42 1553.23 Q1625.24 1550.08 1623.08 1546.75 Q1620.9 1543.38 1614.75 1539.83 Q1608.58 1536.26 1604.59 1536.08 Q1600.6 1535.86 1598.79 1539.01 M1595.58 1537.15 Q1598.48 1532.12 1604 1531.78 Q1609.51 1531.41 1617.09 1535.78 Q1624.65 1540.14 1627.1 1545.11 Q1629.54 1550.05 1626.63 1555.08 Q1623.73 1560.11 1618.22 1560.49 Q1612.7 1560.83 1605.14 1556.47 Q1597.57 1552.09 1595.12 1547.16 Q1592.67 1542.19 1595.58 1537.15 Z" fill="#000000" fill-rule="evenodd" fill-opacity="1" /><path clip-path="url(#clip320)" d="M 0 0 M1633.16 1534.56 L1641.32 1520.42 L1644.73 1522.39 L1633.76 1541.4 L1630.35 1539.43 Q1629.3 1535.75 1627.58 1529.46 Q1625.85 1523.15 1625.28 1521.45 Q1624.22 1518.25 1623.15 1516.62 Q1622.08 1514.95 1620.62 1514.11 Q1618.23 1512.73 1615.76 1513.55 Q1613.29 1514.34 1611.74 1517.03 Q1610.64 1518.93 1610.08 1521.44 Q1609.52 1523.93 1609.48 1527.11 L1605.39 1524.75 Q1605.82 1521.74 1606.54 1519.32 Q1607.27 1516.91 1608.29 1515.14 Q1610.97 1510.49 1614.9 1509.07 Q1618.82 1507.64 1622.71 1509.89 Q1624.55 1510.95 1625.81 1512.62 Q1627.06 1514.25 1628.25 1517.37 Q1628.54 1518.2 1629.78 1522.5 Q1631 1526.78 1633.16 1534.56 Z" fill="#000000" fill-rule="evenodd" fill-opacity="1" /><path clip-path="url(#clip320)" d="M 0 0 M1625 1493.6 Q1623.2 1496.73 1625.37 1500.09 Q1627.53 1503.43 1633.71 1506.99 Q1639.86 1510.55 1643.85 1510.76 Q1647.83 1510.95 1649.64 1507.82 Q1651.46 1504.68 1649.29 1501.34 Q1647.12 1497.98 1640.96 1494.42 Q1634.79 1490.86 1630.81 1490.67 Q1626.82 1490.45 1625 1493.6 M1621.79 1491.75 Q1624.7 1486.72 1630.22 1486.37 Q1635.73 1486 1643.3 1490.37 Q1650.86 1494.74 1653.31 1499.71 Q1655.75 1504.64 1652.85 1509.68 Q1649.94 1514.71 1644.43 1515.08 Q1638.92 1515.43 1631.36 1511.06 Q1623.78 1506.69 1621.34 1501.75 Q1618.89 1496.78 1621.79 1491.75 Z" fill="#000000" fill-rule="evenodd" fill-opacity="1" /><path clip-path="url(#clip320)" d="M 0 0 M1646.5 1489.55 L1652.74 1478.74 L1656.03 1480.64 L1649.79 1491.45 L1646.5 1489.55 Z" fill="#000000" fill-rule="evenodd" fill-opacity="1" /><path clip-path="url(#clip320)" d="M 0 0 M1645.9 1457.4 Q1644.1 1460.52 1646.27 1463.89 Q1648.44 1467.22 1654.61 1470.79 Q1660.76 1474.34 1664.75 1474.56 Q1668.74 1474.75 1670.54 1471.62 Q1672.36 1468.47 1670.19 1465.14 Q1668.02 1461.77 1661.87 1458.22 Q1655.69 1454.65 1651.71 1454.47 Q1647.72 1454.25 1645.9 1457.4 M1642.7 1455.54 Q1645.6 1450.51 1651.12 1450.17 Q1656.63 1449.79 1664.21 1454.17 Q1671.76 1458.53 1674.21 1463.5 Q1676.65 1468.44 1673.75 1473.47 Q1670.84 1478.5 1665.34 1478.88 Q1659.82 1479.22 1652.26 1474.86 Q1644.68 1470.48 1642.24 1465.55 Q1639.79 1460.58 1642.7 1455.54 Z" fill="#000000" fill-rule="evenodd" fill-opacity="1" /><path clip-path="url(#clip320)" d="M 0 0 M1681.12 1457.92 L1677.43 1455.79 Q1679.04 1454.69 1680.32 1453.34 Q1681.6 1452 1682.47 1450.5 Q1684.79 1446.49 1683.31 1442.83 Q1681.84 1439.14 1676.52 1435.67 Q1677.57 1437.83 1677.46 1440.15 Q1677.35 1442.46 1676.1 1444.63 Q1673.51 1449.12 1669.29 1450.18 Q1665.06 1451.21 1660.35 1448.49 Q1655.74 1445.83 1654.52 1441.5 Q1653.31 1437.16 1655.93 1432.63 Q1658.92 1427.44 1664.49 1427.02 Q1670.04 1426.56 1677.62 1430.94 Q1684.7 1435.02 1686.98 1440.83 Q1689.26 1446.61 1685.98 1452.28 Q1685.1 1453.81 1683.9 1455.2 Q1682.7 1456.59 1681.12 1457.92 M1673.09 1442.54 Q1674.66 1439.81 1673.71 1437.15 Q1672.77 1434.47 1669.52 1432.6 Q1666.3 1430.73 1663.51 1431.26 Q1660.71 1431.76 1659.13 1434.48 Q1657.56 1437.21 1658.52 1439.9 Q1659.47 1442.56 1662.7 1444.42 Q1665.94 1446.3 1668.72 1445.79 Q1671.51 1445.26 1673.09 1442.54 Z" fill="#000000" fill-rule="evenodd" fill-opacity="1" /><path clip-path="url(#clip320)" d="M 0 0 M1680.82 1430.11 L1687.06 1419.31 L1690.35 1421.2 L1684.11 1432.01 L1680.82 1430.11 Z" fill="#000000" fill-rule="evenodd" fill-opacity="1" /><path clip-path="url(#clip320)" d="M 0 0 M1680.22 1397.96 Q1678.42 1401.08 1680.59 1404.45 Q1682.75 1407.78 1688.93 1411.35 Q1695.08 1414.9 1699.07 1415.12 Q1703.05 1415.31 1704.86 1412.18 Q1706.68 1409.03 1704.51 1405.7 Q1702.34 1402.33 1696.18 1398.78 Q1690.01 1395.22 1686.03 1395.03 Q1682.04 1394.81 1680.22 1397.96 M1677.01 1396.11 Q1679.92 1391.07 1685.44 1390.73 Q1690.94 1390.36 1698.52 1394.73 Q1706.08 1399.09 1708.53 1404.06 Q1710.97 1409 1708.07 1414.03 Q1705.16 1419.07 1699.65 1419.44 Q1694.14 1419.78 1686.58 1415.42 Q1679 1411.04 1676.56 1406.11 Q1674.11 1401.14 1677.01 1396.11 Z" fill="#000000" fill-rule="evenodd" fill-opacity="1" /><path clip-path="url(#clip320)" d="M 0 0 M1714.6 1393.51 L1722.76 1379.37 L1726.17 1381.34 L1715.19 1400.35 L1711.79 1398.38 Q1710.73 1394.7 1709.01 1388.41 Q1707.29 1382.1 1706.71 1380.4 Q1705.65 1377.2 1704.59 1375.57 Q1703.52 1373.91 1702.05 1373.06 Q1699.67 1371.68 1697.19 1372.5 Q1694.73 1373.3 1693.18 1375.98 Q1692.08 1377.89 1691.51 1380.39 Q1690.96 1382.88 1690.91 1386.06 L1686.82 1383.7 Q1687.25 1380.69 1687.98 1378.27 Q1688.7 1375.86 1689.72 1374.09 Q1692.41 1369.44 1696.33 1368.02 Q1700.25 1366.6 1704.14 1368.84 Q1705.99 1369.91 1707.24 1371.57 Q1708.5 1373.2 1709.69 1376.32 Q1709.98 1377.16 1711.21 1381.45 Q1712.43 1385.73 1714.6 1393.51 Z" fill="#000000" fill-rule="evenodd" fill-opacity="1" /><path clip-path="url(#clip320)" d="M 0 0 M1885.85 1581.27 L1894.01 1567.13 L1897.42 1569.1 L1886.45 1588.1 L1883.04 1586.14 Q1881.99 1582.45 1880.27 1576.17 Q1878.54 1569.85 1877.97 1568.16 Q1876.91 1564.95 1875.84 1563.33 Q1874.77 1561.66 1873.31 1560.82 Q1870.92 1559.44 1868.45 1560.26 Q1865.98 1561.05 1864.43 1563.74 Q1863.33 1565.64 1862.77 1568.15 Q1862.21 1570.64 1862.17 1573.82 L1858.08 1571.46 Q1858.51 1568.44 1859.23 1566.03 Q1859.96 1563.62 1860.98 1561.85 Q1863.66 1557.2 1867.58 1555.78 Q1871.51 1554.35 1875.4 1556.6 Q1877.24 1557.66 1878.5 1559.33 Q1879.75 1560.96 1880.94 1564.08 Q1881.23 1564.91 1882.47 1569.21 Q1883.68 1573.49 1885.85 1581.27 Z" fill="#000000" fill-rule="evenodd" fill-opacity="1" /><path clip-path="url(#clip320)" d="M 0 0 M1877.69 1540.31 Q1875.89 1543.44 1878.06 1546.8 Q1880.22 1550.14 1886.4 1553.7 Q1892.55 1557.26 1896.54 1557.47 Q1900.52 1557.66 1902.33 1554.53 Q1904.15 1551.39 1901.98 1548.05 Q1899.81 1544.69 1893.65 1541.13 Q1887.48 1537.57 1883.5 1537.38 Q1879.51 1537.16 1877.69 1540.31 M1874.48 1538.46 Q1877.39 1533.43 1882.91 1533.08 Q1888.41 1532.71 1895.99 1537.08 Q1903.55 1541.45 1906 1546.42 Q1908.44 1551.35 1905.54 1556.39 Q1902.63 1561.42 1897.12 1561.79 Q1891.61 1562.13 1884.05 1557.77 Q1876.47 1553.4 1874.03 1548.46 Q1871.58 1543.49 1874.48 1538.46 Z" fill="#000000" fill-rule="evenodd" fill-opacity="1" /><path clip-path="url(#clip320)" d="M 0 0 M1912.07 1535.86 L1920.23 1521.73 L1923.63 1523.69 L1912.66 1542.7 L1909.25 1540.73 Q1908.2 1537.05 1906.48 1530.76 Q1904.76 1524.45 1904.18 1522.76 Q1903.12 1519.55 1902.06 1517.92 Q1900.99 1516.26 1899.52 1515.41 Q1897.14 1514.04 1894.66 1514.85 Q1892.2 1515.65 1890.65 1518.33 Q1889.55 1520.24 1888.98 1522.74 Q1888.43 1525.23 1888.38 1528.41 L1884.29 1526.05 Q1884.72 1523.04 1885.45 1520.62 Q1886.17 1518.21 1887.19 1516.45 Q1889.88 1511.8 1893.8 1510.37 Q1897.72 1508.95 1901.61 1511.19 Q1903.46 1512.26 1904.71 1513.92 Q1905.96 1515.55 1907.16 1518.67 Q1907.45 1519.51 1908.68 1523.8 Q1909.9 1528.09 1912.07 1535.86 Z" fill="#000000" fill-rule="evenodd" fill-opacity="1" /><path clip-path="url(#clip320)" d="M 0 0 M1903.91 1494.9 Q1902.1 1498.03 1904.27 1501.4 Q1906.44 1504.73 1912.61 1508.3 Q1918.77 1511.85 1922.76 1512.07 Q1926.74 1512.26 1928.54 1509.13 Q1930.36 1505.98 1928.2 1502.65 Q1926.02 1499.28 1919.87 1495.73 Q1913.69 1492.16 1909.71 1491.97 Q1905.72 1491.76 1903.91 1494.9 M1900.7 1493.05 Q1903.6 1488.02 1909.12 1487.68 Q1914.63 1487.3 1922.21 1491.68 Q1929.76 1496.04 1932.21 1501.01 Q1934.66 1505.95 1931.75 1510.98 Q1928.85 1516.01 1923.34 1516.39 Q1917.82 1516.73 1910.26 1512.37 Q1902.68 1507.99 1900.24 1503.05 Q1897.79 1498.08 1900.7 1493.05 Z" fill="#000000" fill-rule="evenodd" fill-opacity="1" /><path clip-path="url(#clip320)" d="M 0 0 M1925.41 1490.85 L1931.65 1480.05 L1934.94 1481.95 L1928.7 1492.75 L1925.41 1490.85 Z" fill="#000000" fill-rule="evenodd" fill-opacity="1" /><path clip-path="url(#clip320)" d="M 0 0 M1924.81 1458.7 Q1923 1461.83 1925.18 1465.19 Q1927.34 1468.53 1933.51 1472.09 Q1939.67 1475.64 1943.66 1475.86 Q1947.64 1476.05 1949.45 1472.92 Q1951.26 1469.78 1949.1 1466.44 Q1946.93 1463.08 1940.77 1459.52 Q1934.6 1455.96 1930.62 1455.77 Q1926.63 1455.55 1924.81 1458.7 M1921.6 1456.85 Q1924.51 1451.82 1930.02 1451.47 Q1935.53 1451.1 1943.11 1455.47 Q1950.67 1459.84 1953.12 1464.81 Q1955.56 1469.74 1952.65 1474.78 Q1949.75 1479.81 1944.24 1480.18 Q1938.72 1480.52 1931.17 1476.16 Q1923.59 1471.79 1921.15 1466.85 Q1918.7 1461.88 1921.6 1456.85 Z" fill="#000000" fill-rule="evenodd" fill-opacity="1" /><path clip-path="url(#clip320)" d="M 0 0 M1960.03 1459.23 L1956.34 1457.1 Q1957.94 1455.99 1959.22 1454.65 Q1960.51 1453.3 1961.38 1451.8 Q1963.69 1447.79 1962.22 1444.13 Q1960.74 1440.45 1955.42 1436.97 Q1956.47 1439.13 1956.37 1441.45 Q1956.26 1443.77 1955.01 1445.93 Q1952.41 1450.42 1948.19 1451.48 Q1943.96 1452.52 1939.25 1449.8 Q1934.64 1447.13 1933.43 1442.8 Q1932.21 1438.46 1934.83 1433.93 Q1937.83 1428.74 1943.39 1428.32 Q1948.95 1427.86 1956.52 1432.24 Q1963.6 1436.32 1965.89 1442.13 Q1968.16 1447.91 1964.89 1453.59 Q1964.01 1455.11 1962.8 1456.5 Q1961.6 1457.89 1960.03 1459.23 M1951.99 1443.84 Q1953.56 1441.11 1952.61 1438.45 Q1951.68 1435.77 1948.43 1433.9 Q1945.2 1432.04 1942.41 1432.56 Q1939.61 1433.06 1938.04 1435.79 Q1936.46 1438.51 1937.42 1441.2 Q1938.37 1443.86 1941.6 1445.73 Q1944.85 1447.6 1947.63 1447.09 Q1950.42 1446.57 1951.99 1443.84 Z" fill="#000000" fill-rule="evenodd" fill-opacity="1" /><path clip-path="url(#clip320)" d="M 0 0 M1959.73 1431.41 L1965.96 1420.61 L1969.25 1422.51 L1963.01 1433.31 L1959.73 1431.41 Z" fill="#000000" fill-rule="evenodd" fill-opacity="1" /><path clip-path="url(#clip320)" d="M 0 0 M1959.13 1399.26 Q1957.32 1402.39 1959.49 1405.75 Q1961.66 1409.09 1967.83 1412.65 Q1973.99 1416.21 1977.98 1416.42 Q1981.96 1416.61 1983.76 1413.48 Q1985.58 1410.34 1983.42 1407 Q1981.24 1403.64 1975.09 1400.08 Q1968.91 1396.52 1964.93 1396.33 Q1960.94 1396.11 1959.13 1399.26 M1955.92 1397.41 Q1958.82 1392.38 1964.34 1392.03 Q1969.85 1391.66 1977.43 1396.03 Q1984.98 1400.4 1987.43 1405.37 Q1989.88 1410.3 1986.97 1415.34 Q1984.07 1420.37 1978.56 1420.74 Q1973.04 1421.09 1965.48 1416.72 Q1957.9 1412.35 1955.46 1407.41 Q1953.01 1402.44 1955.92 1397.41 Z" fill="#000000" fill-rule="evenodd" fill-opacity="1" /><path clip-path="url(#clip320)" d="M 0 0 M1985.68 1383.4 Q1984.02 1386.29 1984.6 1388.84 Q1985.19 1391.38 1987.9 1392.94 Q1990.61 1394.5 1993.1 1393.75 Q1995.6 1392.98 1997.27 1390.09 Q1998.94 1387.2 1998.35 1384.65 Q1997.75 1382.08 1995.06 1380.53 Q1992.36 1378.97 1989.85 1379.74 Q1987.36 1380.49 1985.68 1383.4 M1981.62 1386.45 Q1979.47 1388.69 1976.85 1389.12 Q1974.23 1389.54 1971.66 1388.06 Q1968.07 1385.98 1967.46 1382.23 Q1966.86 1378.46 1969.42 1374.01 Q1972.01 1369.54 1975.56 1368.2 Q1979.12 1366.86 1982.7 1368.93 Q1985.27 1370.41 1986.21 1372.91 Q1987.16 1375.38 1986.31 1378.34 Q1988.68 1375.8 1991.6 1375.32 Q1994.54 1374.83 1997.4 1376.48 Q2001.75 1378.99 2002.54 1383 Q2003.34 1386.99 2000.48 1391.94 Q1997.62 1396.89 1993.75 1398.22 Q1989.9 1399.52 1985.55 1397.01 Q1982.68 1395.35 1981.65 1392.56 Q1980.61 1389.77 1981.62 1386.45 M1974.37 1384.25 Q1976.69 1385.59 1978.83 1384.9 Q1980.98 1384.19 1982.5 1381.56 Q1984 1378.95 1983.54 1376.74 Q1983.1 1374.5 1980.77 1373.16 Q1978.44 1371.82 1976.29 1372.55 Q1974.14 1373.26 1972.63 1375.87 Q1971.12 1378.49 1971.57 1380.71 Q1972.04 1382.9 1974.37 1384.25 Z" fill="#000000" fill-rule="evenodd" fill-opacity="1" /><path clip-path="url(#clip320)" d="M 0 0 M2166.69 1579.22 L2174.85 1565.09 L2178.26 1567.06 L2167.28 1586.06 L2163.88 1584.09 Q2162.82 1580.41 2161.1 1574.13 Q2159.38 1567.81 2158.81 1566.12 Q2157.74 1562.91 2156.68 1561.28 Q2155.61 1559.62 2154.14 1558.77 Q2151.76 1557.4 2149.28 1558.21 Q2146.82 1559.01 2145.27 1561.69 Q2144.17 1563.6 2143.6 1566.11 Q2143.05 1568.59 2143 1571.77 L2138.91 1569.41 Q2139.34 1566.4 2140.07 1563.99 Q2140.8 1561.57 2141.81 1559.81 Q2144.5 1555.16 2148.42 1553.73 Q2152.34 1552.31 2156.23 1554.55 Q2158.08 1555.62 2159.34 1557.28 Q2160.59 1558.91 2161.78 1562.03 Q2162.07 1562.87 2163.31 1567.16 Q2164.52 1571.45 2166.69 1579.22 Z" fill="#000000" fill-rule="evenodd" fill-opacity="1" /><path clip-path="url(#clip320)" d="M 0 0 M2158.53 1538.26 Q2156.72 1541.39 2158.9 1544.76 Q2161.06 1548.09 2167.23 1551.66 Q2173.39 1555.21 2177.38 1555.43 Q2181.36 1555.62 2183.17 1552.49 Q2184.98 1549.34 2182.82 1546.01 Q2180.65 1542.64 2174.49 1539.09 Q2168.32 1535.52 2164.33 1535.34 Q2160.35 1535.12 2158.53 1538.26 M2155.32 1536.41 Q2158.23 1531.38 2163.74 1531.04 Q2169.25 1530.66 2176.83 1535.04 Q2184.39 1539.4 2186.84 1544.37 Q2189.28 1549.31 2186.37 1554.34 Q2183.47 1559.37 2177.96 1559.75 Q2172.44 1560.09 2164.88 1555.73 Q2157.31 1551.35 2154.87 1546.41 Q2152.42 1541.44 2155.32 1536.41 Z" fill="#000000" fill-rule="evenodd" fill-opacity="1" /><path clip-path="url(#clip320)" d="M 0 0 M2192.9 1533.82 L2201.06 1519.68 L2204.47 1521.65 L2193.5 1540.65 L2190.09 1538.69 Q2189.04 1535 2187.32 1528.72 Q2185.59 1522.4 2185.02 1520.71 Q2183.96 1517.5 2182.89 1515.87 Q2181.82 1514.21 2180.36 1513.37 Q2177.97 1511.99 2175.5 1512.81 Q2173.03 1513.6 2171.48 1516.29 Q2170.38 1518.19 2169.82 1520.7 Q2169.26 1523.19 2169.22 1526.37 L2165.13 1524.01 Q2165.56 1520.99 2166.28 1518.58 Q2167.01 1516.17 2168.03 1514.4 Q2170.71 1509.75 2174.64 1508.33 Q2178.56 1506.9 2182.45 1509.15 Q2184.29 1510.21 2185.55 1511.88 Q2186.8 1513.51 2187.99 1516.63 Q2188.29 1517.46 2189.52 1521.76 Q2190.74 1526.04 2192.9 1533.82 Z" fill="#000000" fill-rule="evenodd" fill-opacity="1" /><path clip-path="url(#clip320)" d="M 0 0 M2184.74 1492.86 Q2182.94 1495.99 2185.11 1499.35 Q2187.27 1502.69 2193.45 1506.25 Q2199.6 1509.8 2203.59 1510.02 Q2207.57 1510.21 2209.38 1507.08 Q2211.2 1503.94 2209.03 1500.6 Q2206.86 1497.24 2200.71 1493.68 Q2194.53 1490.12 2190.55 1489.93 Q2186.56 1489.71 2184.74 1492.86 M2181.54 1491.01 Q2184.44 1485.97 2189.96 1485.63 Q2195.47 1485.26 2203.04 1489.63 Q2210.6 1494 2213.05 1498.97 Q2215.49 1503.9 2212.59 1508.93 Q2209.68 1513.97 2204.17 1514.34 Q2198.66 1514.68 2191.1 1510.32 Q2183.52 1505.95 2181.08 1501.01 Q2178.63 1496.04 2181.54 1491.01 Z" fill="#000000" fill-rule="evenodd" fill-opacity="1" /><path clip-path="url(#clip320)" d="M 0 0 M2206.25 1488.81 L2212.48 1478 L2215.77 1479.9 L2209.53 1490.71 L2206.25 1488.81 Z" fill="#000000" fill-rule="evenodd" fill-opacity="1" /><path clip-path="url(#clip320)" d="M 0 0 M2205.65 1456.65 Q2203.84 1459.78 2206.01 1463.15 Q2208.18 1466.48 2214.35 1470.05 Q2220.51 1473.6 2224.5 1473.82 Q2228.48 1474.01 2230.28 1470.88 Q2232.1 1467.73 2229.94 1464.4 Q2227.76 1461.03 2221.61 1457.48 Q2215.43 1453.91 2211.45 1453.73 Q2207.46 1453.51 2205.65 1456.65 M2202.44 1454.8 Q2205.34 1449.77 2210.86 1449.43 Q2216.37 1449.05 2223.95 1453.43 Q2231.5 1457.79 2233.95 1462.76 Q2236.4 1467.7 2233.49 1472.73 Q2230.59 1477.76 2225.08 1478.14 Q2219.56 1478.48 2212 1474.12 Q2204.42 1469.74 2201.98 1464.8 Q2199.53 1459.83 2202.44 1454.8 Z" fill="#000000" fill-rule="evenodd" fill-opacity="1" /><path clip-path="url(#clip320)" d="M 0 0 M2240.86 1457.18 L2237.18 1455.05 Q2238.78 1453.94 2240.06 1452.6 Q2241.34 1451.26 2242.21 1449.75 Q2244.53 1445.74 2243.06 1442.09 Q2241.58 1438.4 2236.26 1434.93 Q2237.31 1437.09 2237.2 1439.4 Q2237.09 1441.72 2235.84 1443.89 Q2233.25 1448.38 2229.03 1449.44 Q2224.8 1450.47 2220.09 1447.75 Q2215.48 1445.09 2214.26 1440.75 Q2213.05 1436.42 2215.67 1431.89 Q2218.66 1426.7 2224.23 1426.27 Q2229.78 1425.82 2237.36 1430.19 Q2244.44 1434.28 2246.72 1440.09 Q2249 1445.87 2245.72 1451.54 Q2244.84 1453.06 2243.64 1454.45 Q2242.44 1455.84 2240.86 1457.18 M2232.83 1441.8 Q2234.4 1439.07 2233.45 1436.41 Q2232.51 1433.73 2229.27 1431.85 Q2226.04 1429.99 2223.25 1430.52 Q2220.45 1431.01 2218.87 1433.74 Q2217.3 1436.47 2218.26 1439.16 Q2219.21 1441.82 2222.44 1443.68 Q2225.68 1445.56 2228.46 1445.05 Q2231.25 1444.52 2232.83 1441.8 Z" fill="#000000" fill-rule="evenodd" fill-opacity="1" /><path clip-path="url(#clip320)" d="M 0 0 M2240.56 1429.37 L2246.8 1418.56 L2250.09 1420.46 L2243.85 1431.27 L2240.56 1429.37 Z" fill="#000000" fill-rule="evenodd" fill-opacity="1" /><path clip-path="url(#clip320)" d="M 0 0 M2259.22 1418.95 L2263.04 1412.33 L2240.21 1399.15 L2237.5 1407.18 L2233.81 1405.05 L2236.5 1397.06 L2238.84 1393.01 L2265.36 1408.32 L2269.18 1401.71 L2272.59 1403.67 L2262.63 1420.91 L2259.22 1418.95 Z" fill="#000000" fill-rule="evenodd" fill-opacity="1" /><path clip-path="url(#clip320)" d="M 0 0 M2272.12 1396.61 L2275.94 1390 L2253.1 1376.82 L2250.39 1384.85 L2246.7 1382.72 L2249.39 1374.73 L2251.73 1370.68 L2278.25 1385.99 L2282.07 1379.37 L2285.48 1381.34 L2275.52 1398.58 L2272.12 1396.61 Z" fill="#000000" fill-rule="evenodd" fill-opacity="1" /><path clip-path="url(#clip320)" d="M 0 0 M64.8208 1252.08 L72.4597 1252.08 L72.4597 1225.72 L64.1495 1227.38 L64.1495 1223.12 L72.4134 1221.46 L77.0893 1221.46 L77.0893 1252.08 L84.7281 1252.08 L84.7281 1256.02 L64.8208 1256.02 L64.8208 1252.08 Z" fill="#000000" fill-rule="evenodd" fill-opacity="1" /><path clip-path="url(#clip320)" d="M 0 0 M89.8438 1221.46 L108.2 1221.46 L108.2 1225.39 L94.1262 1225.39 L94.1262 1233.86 Q95.1447 1233.52 96.1632 1233.35 Q97.1818 1233.17 98.2003 1233.17 Q103.987 1233.17 107.367 1236.34 Q110.746 1239.51 110.746 1244.93 Q110.746 1250.51 107.274 1253.61 Q103.802 1256.69 97.4827 1256.69 Q95.3068 1256.69 93.0383 1256.32 Q90.7929 1255.95 88.3855 1255.21 L88.3855 1250.51 Q90.4688 1251.64 92.691 1252.2 Q94.9133 1252.75 97.3901 1252.75 Q101.395 1252.75 103.733 1250.65 Q106.071 1248.54 106.071 1244.93 Q106.071 1241.32 103.733 1239.21 Q101.395 1237.1 97.3901 1237.1 Q95.5151 1237.1 93.6401 1237.52 Q91.7883 1237.94 89.8438 1238.82 L89.8438 1221.46 Z" fill="#000000" fill-rule="evenodd" fill-opacity="1" /><path clip-path="url(#clip320)" d="M 0 0 M125.816 1224.53 Q122.205 1224.53 120.376 1228.1 Q118.571 1231.64 118.571 1238.77 Q118.571 1245.88 120.376 1249.44 Q122.205 1252.98 125.816 1252.98 Q129.45 1252.98 131.256 1249.44 Q133.084 1245.88 133.084 1238.77 Q133.084 1231.64 131.256 1228.1 Q129.45 1224.53 125.816 1224.53 M125.816 1220.83 Q131.626 1220.83 134.682 1225.44 Q137.76 1230.02 137.76 1238.77 Q137.76 1247.5 134.682 1252.1 Q131.626 1256.69 125.816 1256.69 Q120.006 1256.69 116.927 1252.1 Q113.871 1247.5 113.871 1238.77 Q113.871 1230.02 116.927 1225.44 Q120.006 1220.83 125.816 1220.83 Z" fill="#000000" fill-rule="evenodd" fill-opacity="1" /><path clip-path="url(#clip320)" d="M 0 0 M152.83 1224.53 Q149.219 1224.53 147.39 1228.1 Q145.584 1231.64 145.584 1238.77 Q145.584 1245.88 147.39 1249.44 Q149.219 1252.98 152.83 1252.98 Q156.464 1252.98 158.269 1249.44 Q160.098 1245.88 160.098 1238.77 Q160.098 1231.64 158.269 1228.1 Q156.464 1224.53 152.83 1224.53 M152.83 1220.83 Q158.64 1220.83 161.695 1225.44 Q164.774 1230.02 164.774 1238.77 Q164.774 1247.5 161.695 1252.1 Q158.64 1256.69 152.83 1256.69 Q147.019 1256.69 143.941 1252.1 Q140.885 1247.5 140.885 1238.77 Q140.885 1230.02 143.941 1225.44 Q147.019 1220.83 152.83 1220.83 Z" fill="#000000" fill-rule="evenodd" fill-opacity="1" /><path clip-path="url(#clip320)" d="M 0 0 M65.8162 1004.49 L73.455 1004.49 L73.455 978.125 L65.1449 979.792 L65.1449 975.533 L73.4087 973.866 L78.0846 973.866 L78.0846 1004.49 L85.7235 1004.49 L85.7235 1008.43 L65.8162 1008.43 L65.8162 1004.49 Z" fill="#000000" fill-rule="evenodd" fill-opacity="1" /><path clip-path="url(#clip320)" d="M 0 0 M90.8392 973.866 L109.196 973.866 L109.196 977.801 L95.1216 977.801 L95.1216 986.273 Q96.1401 985.926 97.1586 985.764 Q98.1771 985.579 99.1956 985.579 Q104.983 985.579 108.362 988.75 Q111.742 991.922 111.742 997.338 Q111.742 1002.92 108.27 1006.02 Q104.797 1009.1 98.478 1009.1 Q96.3021 1009.1 94.0336 1008.73 Q91.7883 1008.36 89.3809 1007.62 L89.3809 1002.92 Q91.4642 1004.05 93.6864 1004.61 Q95.9086 1005.16 98.3855 1005.16 Q102.39 1005.16 104.728 1003.06 Q107.066 1000.95 107.066 997.338 Q107.066 993.727 104.728 991.621 Q102.39 989.514 98.3855 989.514 Q96.5105 989.514 94.6355 989.931 Q92.7836 990.348 90.8392 991.227 L90.8392 973.866 Z" fill="#000000" fill-rule="evenodd" fill-opacity="1" /><path clip-path="url(#clip320)" d="M 0 0 M116.858 973.866 L135.214 973.866 L135.214 977.801 L121.14 977.801 L121.14 986.273 Q122.158 985.926 123.177 985.764 Q124.196 985.579 125.214 985.579 Q131.001 985.579 134.381 988.75 Q137.76 991.922 137.76 997.338 Q137.76 1002.92 134.288 1006.02 Q130.816 1009.1 124.496 1009.1 Q122.321 1009.1 120.052 1008.73 Q117.807 1008.36 115.399 1007.62 L115.399 1002.92 Q117.483 1004.05 119.705 1004.61 Q121.927 1005.16 124.404 1005.16 Q128.408 1005.16 130.746 1003.06 Q133.084 1000.95 133.084 997.338 Q133.084 993.727 130.746 991.621 Q128.408 989.514 124.404 989.514 Q122.529 989.514 120.654 989.931 Q118.802 990.348 116.858 991.227 L116.858 973.866 Z" fill="#000000" fill-rule="evenodd" fill-opacity="1" /><path clip-path="url(#clip320)" d="M 0 0 M152.83 976.945 Q149.219 976.945 147.39 980.51 Q145.584 984.051 145.584 991.181 Q145.584 998.287 147.39 1001.85 Q149.219 1005.39 152.83 1005.39 Q156.464 1005.39 158.269 1001.85 Q160.098 998.287 160.098 991.181 Q160.098 984.051 158.269 980.51 Q156.464 976.945 152.83 976.945 M152.83 973.241 Q158.64 973.241 161.695 977.848 Q164.774 982.431 164.774 991.181 Q164.774 999.908 161.695 1004.51 Q158.64 1009.1 152.83 1009.1 Q147.019 1009.1 143.941 1004.51 Q140.885 999.908 140.885 991.181 Q140.885 982.431 143.941 977.848 Q147.019 973.241 152.83 973.241 Z" fill="#000000" fill-rule="evenodd" fill-opacity="1" /><path clip-path="url(#clip320)" d="M 0 0 M63.6634 756.901 L71.3023 756.901 L71.3023 730.535 L62.9921 732.202 L62.9921 727.943 L71.256 726.276 L75.9319 726.276 L75.9319 756.901 L83.5707 756.901 L83.5707 760.836 L63.6634 760.836 L63.6634 756.901 Z" fill="#000000" fill-rule="evenodd" fill-opacity="1" /><path clip-path="url(#clip320)" d="M 0 0 M99.2188 741.693 Q96.0707 741.693 94.2188 743.845 Q92.3901 745.998 92.3901 749.748 Q92.3901 753.475 94.2188 755.651 Q96.0707 757.804 99.2188 757.804 Q102.367 757.804 104.196 755.651 Q106.047 753.475 106.047 749.748 Q106.047 745.998 104.196 743.845 Q102.367 741.693 99.2188 741.693 M108.501 727.04 L108.501 731.299 Q106.742 730.466 104.936 730.026 Q103.154 729.586 101.395 729.586 Q96.7651 729.586 94.3114 732.711 Q91.8809 735.836 91.5336 742.156 Q92.8994 740.142 94.9595 739.077 Q97.0197 737.989 99.4966 737.989 Q104.705 737.989 107.714 741.16 Q110.746 744.308 110.746 749.748 Q110.746 755.072 107.598 758.29 Q104.45 761.507 99.2188 761.507 Q93.2234 761.507 90.0522 756.924 Q86.8809 752.318 86.8809 743.591 Q86.8809 735.396 90.7698 730.535 Q94.6586 725.651 101.21 725.651 Q102.969 725.651 104.751 725.998 Q106.557 726.346 108.501 727.04 Z" fill="#000000" fill-rule="evenodd" fill-opacity="1" /><path clip-path="url(#clip320)" d="M 0 0 M125.816 729.355 Q122.205 729.355 120.376 732.92 Q118.571 736.461 118.571 743.591 Q118.571 750.697 120.376 754.262 Q122.205 757.804 125.816 757.804 Q129.45 757.804 131.256 754.262 Q133.084 750.697 133.084 743.591 Q133.084 736.461 131.256 732.92 Q129.45 729.355 125.816 729.355 M125.816 725.651 Q131.626 725.651 134.682 730.258 Q137.76 734.841 137.76 743.591 Q137.76 752.318 134.682 756.924 Q131.626 761.507 125.816 761.507 Q120.006 761.507 116.927 756.924 Q113.871 752.318 113.871 743.591 Q113.871 734.841 116.927 730.258 Q120.006 725.651 125.816 725.651 Z" fill="#000000" fill-rule="evenodd" fill-opacity="1" /><path clip-path="url(#clip320)" d="M 0 0 M152.83 729.355 Q149.219 729.355 147.39 732.92 Q145.584 736.461 145.584 743.591 Q145.584 750.697 147.39 754.262 Q149.219 757.804 152.83 757.804 Q156.464 757.804 158.269 754.262 Q160.098 750.697 160.098 743.591 Q160.098 736.461 158.269 732.92 Q156.464 729.355 152.83 729.355 M152.83 725.651 Q158.64 725.651 161.695 730.258 Q164.774 734.841 164.774 743.591 Q164.774 752.318 161.695 756.924 Q158.64 761.507 152.83 761.507 Q147.019 761.507 143.941 756.924 Q140.885 752.318 140.885 743.591 Q140.885 734.841 143.941 730.258 Q147.019 725.651 152.83 725.651 Z" fill="#000000" fill-rule="evenodd" fill-opacity="1" /><path clip-path="url(#clip320)" d="M 0 0 M64.6588 509.311 L72.2976 509.311 L72.2976 482.945 L63.9875 484.612 L63.9875 480.353 L72.2513 478.686 L76.9272 478.686 L76.9272 509.311 L84.5661 509.311 L84.5661 513.246 L64.6588 513.246 L64.6588 509.311 Z" fill="#000000" fill-rule="evenodd" fill-opacity="1" /><path clip-path="url(#clip320)" d="M 0 0 M100.214 494.103 Q97.066 494.103 95.2142 496.255 Q93.3855 498.408 93.3855 502.158 Q93.3855 505.885 95.2142 508.061 Q97.066 510.214 100.214 510.214 Q103.362 510.214 105.191 508.061 Q107.043 505.885 107.043 502.158 Q107.043 498.408 105.191 496.255 Q103.362 494.103 100.214 494.103 M109.497 479.45 L109.497 483.709 Q107.737 482.876 105.932 482.436 Q104.149 481.996 102.39 481.996 Q97.7605 481.996 95.3068 485.121 Q92.8762 488.246 92.529 494.566 Q93.8947 492.552 95.9549 491.487 Q98.0151 490.399 100.492 490.399 Q105.7 490.399 108.709 493.57 Q111.742 496.718 111.742 502.158 Q111.742 507.482 108.594 510.7 Q105.446 513.917 100.214 513.917 Q94.2188 513.917 91.0475 509.334 Q87.8763 504.728 87.8763 496.001 Q87.8763 487.806 91.7651 482.945 Q95.654 478.061 102.205 478.061 Q103.964 478.061 105.747 478.408 Q107.552 478.756 109.497 479.45 Z" fill="#000000" fill-rule="evenodd" fill-opacity="1" /><path clip-path="url(#clip320)" d="M 0 0 M116.858 478.686 L135.214 478.686 L135.214 482.621 L121.14 482.621 L121.14 491.093 Q122.158 490.746 123.177 490.584 Q124.196 490.399 125.214 490.399 Q131.001 490.399 134.381 493.57 Q137.76 496.742 137.76 502.158 Q137.76 507.737 134.288 510.839 Q130.816 513.917 124.496 513.917 Q122.321 513.917 120.052 513.547 Q117.807 513.177 115.399 512.436 L115.399 507.737 Q117.483 508.871 119.705 509.427 Q121.927 509.982 124.404 509.982 Q128.408 509.982 130.746 507.876 Q133.084 505.769 133.084 502.158 Q133.084 498.547 130.746 496.441 Q128.408 494.334 124.404 494.334 Q122.529 494.334 120.654 494.751 Q118.802 495.168 116.858 496.047 L116.858 478.686 Z" fill="#000000" fill-rule="evenodd" fill-opacity="1" /><path clip-path="url(#clip320)" d="M 0 0 M152.83 481.765 Q149.219 481.765 147.39 485.33 Q145.584 488.871 145.584 496.001 Q145.584 503.107 147.39 506.672 Q149.219 510.214 152.83 510.214 Q156.464 510.214 158.269 506.672 Q160.098 503.107 160.098 496.001 Q160.098 488.871 158.269 485.33 Q156.464 481.765 152.83 481.765 M152.83 478.061 Q158.64 478.061 161.695 482.668 Q164.774 487.251 164.774 496.001 Q164.774 504.728 161.695 509.334 Q158.64 513.917 152.83 513.917 Q147.019 513.917 143.941 509.334 Q140.885 504.728 140.885 496.001 Q140.885 487.251 143.941 482.668 Q147.019 478.061 152.83 478.061 Z" fill="#000000" fill-rule="evenodd" fill-opacity="1" /><path clip-path="url(#clip320)" d="M 0 0 M64.7282 261.721 L72.3671 261.721 L72.3671 235.355 L64.0569 237.022 L64.0569 232.763 L72.3208 231.096 L76.9967 231.096 L76.9967 261.721 L84.6355 261.721 L84.6355 265.656 L64.7282 265.656 L64.7282 261.721 Z" fill="#000000" fill-rule="evenodd" fill-opacity="1" /><path clip-path="url(#clip320)" d="M 0 0 M88.5244 231.096 L110.746 231.096 L110.746 233.087 L98.2003 265.656 L93.316 265.656 L105.122 235.031 L88.5244 235.031 L88.5244 231.096 Z" fill="#000000" fill-rule="evenodd" fill-opacity="1" /><path clip-path="url(#clip320)" d="M 0 0 M125.816 234.175 Q122.205 234.175 120.376 237.74 Q118.571 241.281 118.571 248.411 Q118.571 255.517 120.376 259.082 Q122.205 262.624 125.816 262.624 Q129.45 262.624 131.256 259.082 Q133.084 255.517 133.084 248.411 Q133.084 241.281 131.256 237.74 Q129.45 234.175 125.816 234.175 M125.816 230.471 Q131.626 230.471 134.682 235.078 Q137.76 239.661 137.76 248.411 Q137.76 257.138 134.682 261.744 Q131.626 266.327 125.816 266.327 Q120.006 266.327 116.927 261.744 Q113.871 257.138 113.871 248.411 Q113.871 239.661 116.927 235.078 Q120.006 230.471 125.816 230.471 Z" fill="#000000" fill-rule="evenodd" fill-opacity="1" /><path clip-path="url(#clip320)" d="M 0 0 M152.83 234.175 Q149.219 234.175 147.39 237.74 Q145.584 241.281 145.584 248.411 Q145.584 255.517 147.39 259.082 Q149.219 262.624 152.83 262.624 Q156.464 262.624 158.269 259.082 Q160.098 255.517 160.098 248.411 Q160.098 241.281 158.269 237.74 Q156.464 234.175 152.83 234.175 M152.83 230.471 Q158.64 230.471 161.695 235.078 Q164.774 239.661 164.774 248.411 Q164.774 257.138 161.695 261.744 Q158.64 266.327 152.83 266.327 Q147.019 266.327 143.941 261.744 Q140.885 257.138 140.885 248.411 Q140.885 239.661 143.941 235.078 Q147.019 230.471 152.83 230.471 Z" fill="#000000" fill-rule="evenodd" fill-opacity="1" /><path clip-path="url(#clip322)" d="
M291.967 1311.78 L291.967 1310.14 L250.019 1310.14 L250.019 1205.96 L291.967 1205.96 L291.967 1177.4 L291.967 1205.96 L333.916 1205.96 L333.916 1310.14 L291.967 1310.14 
  L291.967 1311.78  Z
  " fill="#008000" fill-rule="evenodd" fill-opacity="1"/>
<polyline clip-path="url(#clip322)" style="stroke:#008000; stroke-width:2; stroke-opacity:1; fill:none" points="
  291.967,1311.78 291.967,1310.14 250.019,1310.14 250.019,1205.96 291.967,1205.96 291.967,1177.4 291.967,1205.96 333.916,1205.96 333.916,1310.14 291.967,1310.14 
  291.967,1311.78 
  "/>
<path clip-path="url(#clip322)" d="
M385.186 1199.1 L385.186 1187.53 L343.238 1187.53 L343.238 1147.38 L385.186 1147.38 L385.186 1054.28 L385.186 1147.38 L427.135 1147.38 L427.135 1187.53 L385.186 1187.53 
  L385.186 1199.1  Z
  " fill="#008000" fill-rule="evenodd" fill-opacity="1"/>
<polyline clip-path="url(#clip322)" style="stroke:#008000; stroke-width:2; stroke-opacity:1; fill:none" points="
  385.186,1199.1 385.186,1187.53 343.238,1187.53 343.238,1147.38 385.186,1147.38 385.186,1054.28 385.186,1147.38 427.135,1147.38 427.135,1187.53 385.186,1187.53 
  385.186,1199.1 
  "/>
<path clip-path="url(#clip322)" d="
M478.405 1224.47 L478.405 1200.46 L436.456 1200.46 L436.456 1161.19 L478.405 1161.19 L478.405 1130.29 L478.405 1161.19 L520.353 1161.19 L520.353 1200.46 L478.405 1200.46 
  L478.405 1224.47  Z
  " fill="#ff0000" fill-rule="evenodd" fill-opacity="1"/>
<polyline clip-path="url(#clip322)" style="stroke:#ff0000; stroke-width:2; stroke-opacity:1; fill:none" points="
  478.405,1224.47 478.405,1200.46 436.456,1200.46 436.456,1161.19 478.405,1161.19 478.405,1130.29 478.405,1161.19 520.353,1161.19 520.353,1200.46 478.405,1200.46 
  478.405,1224.47 
  "/>
<path clip-path="url(#clip322)" d="
M571.624 1199.27 L571.624 1166.09 L529.675 1166.09 L529.675 1149.7 L571.624 1149.7 L571.624 1111.92 L571.624 1149.7 L613.572 1149.7 L613.572 1166.09 L571.624 1166.09 
  L571.624 1199.27  Z
  " fill="#008000" fill-rule="evenodd" fill-opacity="1"/>
<polyline clip-path="url(#clip322)" style="stroke:#008000; stroke-width:2; stroke-opacity:1; fill:none" points="
  571.624,1199.27 571.624,1166.09 529.675,1166.09 529.675,1149.7 571.624,1149.7 571.624,1111.92 571.624,1149.7 613.572,1149.7 613.572,1166.09 571.624,1166.09 
  571.624,1199.27 
  "/>
<path clip-path="url(#clip322)" d="
M664.843 1121.33 L664.843 1109.1 L622.894 1109.1 L622.894 948.561 L664.843 948.561 L664.843 929.397 L664.843 948.561 L706.791 948.561 L706.791 1109.1 L664.843 1109.1 
  L664.843 1121.33  Z
  " fill="#008000" fill-rule="evenodd" fill-opacity="1"/>
<polyline clip-path="url(#clip322)" style="stroke:#008000; stroke-width:2; stroke-opacity:1; fill:none" points="
  664.843,1121.33 664.843,1109.1 622.894,1109.1 622.894,948.561 664.843,948.561 664.843,929.397 664.843,948.561 706.791,948.561 706.791,1109.1 664.843,1109.1 
  664.843,1121.33 
  "/>
<path clip-path="url(#clip322)" d="
M758.061 1021.1 L758.061 1003.38 L716.113 1003.38 L716.113 974.755 L758.061 974.755 L758.061 873.887 L758.061 974.755 L800.01 974.755 L800.01 1003.38 L758.061 1003.38 
  L758.061 1021.1  Z
  " fill="#ff0000" fill-rule="evenodd" fill-opacity="1"/>
<polyline clip-path="url(#clip322)" style="stroke:#ff0000; stroke-width:2; stroke-opacity:1; fill:none" points="
  758.061,1021.1 758.061,1003.38 716.113,1003.38 716.113,974.755 758.061,974.755 758.061,873.887 758.061,974.755 800.01,974.755 800.01,1003.38 758.061,1003.38 
  758.061,1021.1 
  "/>
<path clip-path="url(#clip322)" d="
M851.28 1049.58 L851.28 1023.58 L809.332 1023.58 L809.332 833.926 L851.28 833.926 L851.28 813.525 L851.28 833.926 L893.229 833.926 L893.229 1023.58 L851.28 1023.58 
  L851.28 1049.58  Z
  " fill="#008000" fill-rule="evenodd" fill-opacity="1"/>
<polyline clip-path="url(#clip322)" style="stroke:#008000; stroke-width:2; stroke-opacity:1; fill:none" points="
  851.28,1049.58 851.28,1023.58 809.332,1023.58 809.332,833.926 851.28,833.926 851.28,813.525 851.28,833.926 893.229,833.926 893.229,1023.58 851.28,1023.58 
  851.28,1049.58 
  "/>
<path clip-path="url(#clip322)" d="
M944.499 901.989 L944.499 857.299 L902.551 857.299 L902.551 840.512 L944.499 840.512 L944.499 754.846 L944.499 840.512 L986.448 840.512 L986.448 857.299 L944.499 857.299 
  L944.499 901.989  Z
  " fill="#008000" fill-rule="evenodd" fill-opacity="1"/>
<polyline clip-path="url(#clip322)" style="stroke:#008000; stroke-width:2; stroke-opacity:1; fill:none" points="
  944.499,901.989 944.499,857.299 902.551,857.299 902.551,840.512 944.499,840.512 944.499,754.846 944.499,840.512 986.448,840.512 986.448,857.299 944.499,857.299 
  944.499,901.989 
  "/>
<path clip-path="url(#clip322)" d="
M1037.72 839.77 L1037.72 801.988 L995.769 801.988 L995.769 773.366 L1037.72 773.366 L1037.72 673.389 L1037.72 773.366 L1079.67 773.366 L1079.67 801.988 L1037.72 801.988 
  L1037.72 839.77  Z
  " fill="#ff0000" fill-rule="evenodd" fill-opacity="1"/>
<polyline clip-path="url(#clip322)" style="stroke:#ff0000; stroke-width:2; stroke-opacity:1; fill:none" points="
  1037.72,839.77 1037.72,801.988 995.769,801.988 995.769,773.366 1037.72,773.366 1037.72,673.389 1037.72,773.366 1079.67,773.366 1079.67,801.988 1037.72,801.988 
  1037.72,839.77 
  "/>
<path clip-path="url(#clip322)" d="
M1130.94 832.342 L1130.94 832.342 L1088.99 832.342 L1088.99 702.852 L1130.94 702.852 L1130.94 686.016 L1130.94 702.852 L1172.89 702.852 L1172.89 832.342 L1130.94 832.342 
  L1130.94 832.342  Z
  " fill="#008000" fill-rule="evenodd" fill-opacity="1"/>
<polyline clip-path="url(#clip322)" style="stroke:#008000; stroke-width:2; stroke-opacity:1; fill:none" points="
  1130.94,832.342 1130.94,832.342 1088.99,832.342 1088.99,702.852 1130.94,702.852 1130.94,686.016 1130.94,702.852 1172.89,702.852 1172.89,832.342 1130.94,832.342 
  
  "/>
<path clip-path="url(#clip322)" d="
M1224.16 725.73 L1224.16 703.942 L1182.21 703.942 L1182.21 484.181 L1224.16 484.181 L1224.16 450.311 L1224.16 484.181 L1266.1 484.181 L1266.1 703.942 L1224.16 703.942 
  L1224.16 725.73  Z
  " fill="#008000" fill-rule="evenodd" fill-opacity="1"/>
<polyline clip-path="url(#clip322)" style="stroke:#008000; stroke-width:2; stroke-opacity:1; fill:none" points="
  1224.16,725.73 1224.16,703.942 1182.21,703.942 1182.21,484.181 1224.16,484.181 1224.16,450.311 1224.16,484.181 1266.1,484.181 1266.1,703.942 1224.16,703.942 
  1224.16,725.73 
  "/>
<path clip-path="url(#clip322)" d="
M1317.37 616.047 L1317.37 573.561 L1275.43 573.561 L1275.43 477.743 L1317.37 477.743 L1317.37 471.207 L1317.37 477.743 L1359.32 477.743 L1359.32 573.561 L1317.37 573.561 
  L1317.37 616.047  Z
  " fill="#ff0000" fill-rule="evenodd" fill-opacity="1"/>
<polyline clip-path="url(#clip322)" style="stroke:#ff0000; stroke-width:2; stroke-opacity:1; fill:none" points="
  1317.37,616.047 1317.37,573.561 1275.43,573.561 1275.43,477.743 1317.37,477.743 1317.37,471.207 1317.37,477.743 1359.32,477.743 1359.32,573.561 1317.37,573.561 
  1317.37,616.047 
  "/>
<path clip-path="url(#clip322)" d="
M1410.59 591.288 L1410.59 577.72 L1368.64 577.72 L1368.64 523.647 L1410.59 523.647 L1410.59 509.979 L1410.59 523.647 L1452.54 523.647 L1452.54 577.72 L1410.59 577.72 
  L1410.59 591.288  Z
  " fill="#008000" fill-rule="evenodd" fill-opacity="1"/>
<polyline clip-path="url(#clip322)" style="stroke:#008000; stroke-width:2; stroke-opacity:1; fill:none" points="
  1410.59,591.288 1410.59,577.72 1368.64,577.72 1368.64,523.647 1410.59,523.647 1410.59,509.979 1410.59,523.647 1452.54,523.647 1452.54,577.72 1410.59,577.72 
  1410.59,591.288 
  "/>
<path clip-path="url(#clip322)" d="
M1503.81 593.467 L1503.81 574.303 L1461.86 574.303 L1461.86 506.414 L1503.81 506.414 L1503.81 506.043 L1503.81 506.414 L1545.76 506.414 L1545.76 574.303 L1503.81 574.303 
  L1503.81 593.467  Z
  " fill="#ff0000" fill-rule="evenodd" fill-opacity="1"/>
<polyline clip-path="url(#clip322)" style="stroke:#ff0000; stroke-width:2; stroke-opacity:1; fill:none" points="
  1503.81,593.467 1503.81,574.303 1461.86,574.303 1461.86,506.414 1503.81,506.414 1503.81,506.043 1503.81,506.414 1545.76,506.414 1545.76,574.303 1503.81,574.303 
  1503.81,593.467 
  "/>
<path clip-path="url(#clip322)" d="
M1597.03 584.009 L1597.03 562.172 L1555.08 562.172 L1555.08 442.933 L1597.03 442.933 L1597.03 418.074 L1597.03 442.933 L1638.98 442.933 L1638.98 562.172 L1597.03 562.172 
  L1597.03 584.009  Z
  " fill="#008000" fill-rule="evenodd" fill-opacity="1"/>
<polyline clip-path="url(#clip322)" style="stroke:#008000; stroke-width:2; stroke-opacity:1; fill:none" points="
  1597.03,584.009 1597.03,562.172 1555.08,562.172 1555.08,442.933 1597.03,442.933 1597.03,418.074 1597.03,442.933 1638.98,442.933 1638.98,562.172 1597.03,562.172 
  1597.03,584.009 
  "/>
<path clip-path="url(#clip322)" d="
M1690.25 415.103 L1690.25 378.237 L1648.3 378.237 L1648.3 108.339 L1690.25 108.339 L1690.25 84.0751 L1690.25 108.339 L1732.2 108.339 L1732.2 378.237 L1690.25 378.237 
  L1690.25 415.103  Z
  " fill="#008000" fill-rule="evenodd" fill-opacity="1"/>
<polyline clip-path="url(#clip322)" style="stroke:#008000; stroke-width:2; stroke-opacity:1; fill:none" points="
  1690.25,415.103 1690.25,378.237 1648.3,378.237 1648.3,108.339 1690.25,108.339 1690.25,84.0751 1690.25,108.339 1732.2,108.339 1732.2,378.237 1690.25,378.237 
  1690.25,415.103 
  "/>
<path clip-path="url(#clip322)" d="
M1783.47 668.982 L1783.47 536.373 L1741.52 536.373 L1741.52 200.274 L1783.47 200.274 L1783.47 200.274 L1783.47 200.274 L1825.42 200.274 L1825.42 536.373 L1783.47 536.373 
  L1783.47 668.982  Z
  " fill="#ff0000" fill-rule="evenodd" fill-opacity="1"/>
<polyline clip-path="url(#clip322)" style="stroke:#ff0000; stroke-width:2; stroke-opacity:1; fill:none" points="
  1783.47,668.982 1783.47,536.373 1741.52,536.373 1741.52,200.274 1783.47,200.274 1825.42,200.274 1825.42,536.373 1783.47,536.373 
  1783.47,668.982 
  "/>
<path clip-path="url(#clip322)" d="
M1876.69 1002.97 L1876.69 787.924 L1834.74 787.924 L1834.74 623.425 L1876.69 623.425 L1876.69 520.18 L1876.69 623.425 L1918.64 623.425 L1918.64 787.924 L1876.69 787.924 
  L1876.69 1002.97  Z
  " fill="#ff0000" fill-rule="evenodd" fill-opacity="1"/>
<polyline clip-path="url(#clip322)" style="stroke:#ff0000; stroke-width:2; stroke-opacity:1; fill:none" points="
  1876.69,1002.97 1876.69,787.924 1834.74,787.924 1834.74,623.425 1876.69,623.425 1876.69,520.18 1876.69,623.425 1918.64,623.425 1918.64,787.924 1876.69,787.924 
  1876.69,1002.97 
  "/>
<path clip-path="url(#clip322)" d="
M1969.91 1100.04 L1969.91 1078.35 L1927.96 1078.35 L1927.96 1072.8 L1969.91 1072.8 L1969.91 922.489 L1969.91 1072.8 L2011.85 1072.8 L2011.85 1078.35 L1969.91 1078.35 
  L1969.91 1100.04  Z
  " fill="#ff0000" fill-rule="evenodd" fill-opacity="1"/>
<polyline clip-path="url(#clip322)" style="stroke:#ff0000; stroke-width:2; stroke-opacity:1; fill:none" points="
  1969.91,1100.04 1969.91,1078.35 1927.96,1078.35 1927.96,1072.8 1969.91,1072.8 1969.91,922.489 1969.91,1072.8 2011.85,1072.8 2011.85,1078.35 1969.91,1078.35 
  1969.91,1100.04 
  "/>
<path clip-path="url(#clip322)" d="
M2063.13 1060.22 L2063.13 956.682 L2021.18 956.682 L2021.18 953.859 L2063.13 953.859 L2063.13 897.062 L2063.13 953.859 L2105.07 953.859 L2105.07 956.682 L2063.13 956.682 
  L2063.13 1060.22  Z
  " fill="#ff0000" fill-rule="evenodd" fill-opacity="1"/>
<polyline clip-path="url(#clip322)" style="stroke:#ff0000; stroke-width:2; stroke-opacity:1; fill:none" points="
  2063.13,1060.22 2063.13,956.682 2021.18,956.682 2021.18,953.859 2063.13,953.859 2063.13,897.062 2063.13,953.859 2105.07,953.859 2105.07,956.682 2063.13,956.682 
  2063.13,1060.22 
  "/>
<path clip-path="url(#clip322)" d="
M2156.34 1110.95 L2156.34 1080.18 L2114.4 1080.18 L2114.4 938.459 L2156.34 938.459 L2156.34 822.384 L2156.34 938.459 L2198.29 938.459 L2198.29 1080.18 L2156.34 1080.18 
  L2156.34 1110.95  Z
  " fill="#ff0000" fill-rule="evenodd" fill-opacity="1"/>
<polyline clip-path="url(#clip322)" style="stroke:#ff0000; stroke-width:2; stroke-opacity:1; fill:none" points="
  2156.34,1110.95 2156.34,1080.18 2114.4,1080.18 2114.4,938.459 2156.34,938.459 2156.34,822.384 2156.34,938.459 2198.29,938.459 2198.29,1080.18 2156.34,1080.18 
  2156.34,1110.95 
  "/>
<path clip-path="url(#clip322)" d="
M2249.56 1251.81 L2249.56 1136.14 L2207.61 1136.14 L2207.61 1060.47 L2249.56 1060.47 L2249.56 866.361 L2249.56 1060.47 L2291.51 1060.47 L2291.51 1136.14 L2249.56 1136.14 
  L2249.56 1251.81  Z
  " fill="#ff0000" fill-rule="evenodd" fill-opacity="1"/>
<polyline clip-path="url(#clip322)" style="stroke:#ff0000; stroke-width:2; stroke-opacity:1; fill:none" points="
  2249.56,1251.81 2249.56,1136.14 2207.61,1136.14 2207.61,1060.47 2249.56,1060.47 2249.56,866.361 2249.56,1060.47 2291.51,1060.47 2291.51,1136.14 2249.56,1136.14 
  2249.56,1251.81 
  "/>
<circle clip-path="url(#clip322)" cx="291.967" cy="1258.05" r="3" fill="#008000" fill-rule="evenodd" fill-opacity="1" stroke="#000000" stroke-opacity="1" stroke-width="0"/>
<circle clip-path="url(#clip322)" cx="385.186" cy="1167.46" r="3" fill="#008000" fill-rule="evenodd" fill-opacity="1" stroke="#000000" stroke-opacity="1" stroke-width="0"/>
<circle clip-path="url(#clip322)" cx="478.405" cy="1180.82" r="3" fill="#ff0000" fill-rule="evenodd" fill-opacity="1" stroke="#000000" stroke-opacity="1" stroke-width="0"/>
<circle clip-path="url(#clip322)" cx="571.624" cy="1157.9" r="3" fill="#008000" fill-rule="evenodd" fill-opacity="1" stroke="#000000" stroke-opacity="1" stroke-width="0"/>
<circle clip-path="url(#clip322)" cx="664.843" cy="1028.83" r="3" fill="#008000" fill-rule="evenodd" fill-opacity="1" stroke="#000000" stroke-opacity="1" stroke-width="0"/>
<circle clip-path="url(#clip322)" cx="758.061" cy="989.066" r="3" fill="#ff0000" fill-rule="evenodd" fill-opacity="1" stroke="#000000" stroke-opacity="1" stroke-width="0"/>
<circle clip-path="url(#clip322)" cx="851.28" cy="928.754" r="3" fill="#008000" fill-rule="evenodd" fill-opacity="1" stroke="#000000" stroke-opacity="1" stroke-width="0"/>
<circle clip-path="url(#clip322)" cx="944.499" cy="848.906" r="3" fill="#008000" fill-rule="evenodd" fill-opacity="1" stroke="#000000" stroke-opacity="1" stroke-width="0"/>
<circle clip-path="url(#clip322)" cx="1037.72" cy="787.677" r="3" fill="#ff0000" fill-rule="evenodd" fill-opacity="1" stroke="#000000" stroke-opacity="1" stroke-width="0"/>
<circle clip-path="url(#clip322)" cx="1130.94" cy="767.597" r="3" fill="#008000" fill-rule="evenodd" fill-opacity="1" stroke="#000000" stroke-opacity="1" stroke-width="0"/>
<circle clip-path="url(#clip322)" cx="1224.16" cy="594.061" r="3" fill="#008000" fill-rule="evenodd" fill-opacity="1" stroke="#000000" stroke-opacity="1" stroke-width="0"/>
<circle clip-path="url(#clip322)" cx="1317.37" cy="525.652" r="3" fill="#ff0000" fill-rule="evenodd" fill-opacity="1" stroke="#000000" stroke-opacity="1" stroke-width="0"/>
<circle clip-path="url(#clip322)" cx="1410.59" cy="550.683" r="3" fill="#008000" fill-rule="evenodd" fill-opacity="1" stroke="#000000" stroke-opacity="1" stroke-width="0"/>
<circle clip-path="url(#clip322)" cx="1503.81" cy="540.359" r="3" fill="#ff0000" fill-rule="evenodd" fill-opacity="1" stroke="#000000" stroke-opacity="1" stroke-width="0"/>
<circle clip-path="url(#clip322)" cx="1597.03" cy="502.552" r="3" fill="#008000" fill-rule="evenodd" fill-opacity="1" stroke="#000000" stroke-opacity="1" stroke-width="0"/>
<circle clip-path="url(#clip322)" cx="1690.25" cy="243.288" r="3" fill="#008000" fill-rule="evenodd" fill-opacity="1" stroke="#000000" stroke-opacity="1" stroke-width="0"/>
<circle clip-path="url(#clip322)" cx="1783.47" cy="368.324" r="3" fill="#ff0000" fill-rule="evenodd" fill-opacity="1" stroke="#000000" stroke-opacity="1" stroke-width="0"/>
<circle clip-path="url(#clip322)" cx="1876.69" cy="705.675" r="3" fill="#ff0000" fill-rule="evenodd" fill-opacity="1" stroke="#000000" stroke-opacity="1" stroke-width="0"/>
<circle clip-path="url(#clip322)" cx="1969.91" cy="1075.57" r="3" fill="#ff0000" fill-rule="evenodd" fill-opacity="1" stroke="#000000" stroke-opacity="1" stroke-width="0"/>
<circle clip-path="url(#clip322)" cx="2063.13" cy="955.27" r="3" fill="#ff0000" fill-rule="evenodd" fill-opacity="1" stroke="#000000" stroke-opacity="1" stroke-width="0"/>
<circle clip-path="url(#clip322)" cx="2156.34" cy="1009.32" r="3" fill="#ff0000" fill-rule="evenodd" fill-opacity="1" stroke="#000000" stroke-opacity="1" stroke-width="0"/>
<circle clip-path="url(#clip322)" cx="2249.56" cy="1098.3" r="3" fill="#ff0000" fill-rule="evenodd" fill-opacity="1" stroke="#000000" stroke-opacity="1" stroke-width="0"/>
</svg>
